<svg xmlns="http://www.w3.org/2000/svg" viewBox="0 0 148.16 193.05"><defs><style>.cls-1{isolation:isolate;}.cls-2{fill:#42d361;}.cls-3{fill:#8dffbb;opacity:0.32;mix-blend-mode:multiply;}.cls-4{fill:#c8f3ff;}.cls-5{fill:#ffae92;}.cls-6{fill:#318909;}.cls-7{fill:#4c4c4c;}.cls-8{fill:#0d3302;}.cls-9{fill:#e2e2e2;}.cls-10{fill:#fff;}.cls-11{fill:#2b1c06;}.cls-12{fill:#5ebf60;}.cls-13{fill:#f2f8fd;}.cls-14{fill:#eaeeee;}.cls-15{fill:#ff8654;}.cls-16{fill:#41a50c;}</style></defs><title>draw-talk</title><g class="cls-1"><g id="Layer_2" data-name="Layer 2"><g id="OBJECTS"><path class="cls-2" d="M132.37,25.72a8.51,8.51,0,0,1,3.84,6.66l0,7.73c0,2.45-1.74,3.43-3.87,2.2L102.64,25l-1.73,3L99.2,23,88.68,17.12a8.48,8.48,0,0,1-3.84-6.65l0-7.74C84.87.29,86.6-.7,88.73.53Z"/><ellipse class="cls-3" cx="94.49" cy="164.4" rx="30.29" ry="19.25"/><path class="cls-4" d="M68,77.48a4.49,4.49,0,0,0,3.55-4.32l-1.4-1.69a1.45,1.45,0,0,0-1.86-.33,6.3,6.3,0,0,0-2.62,3.26,1.49,1.49,0,0,0,.49,1.72Z"/><path class="cls-5" d="M69.3,72.32s-.84-5.24-1.87-5.62-1.22.85-1.22,1.69A7.29,7.29,0,0,0,66.4,70s-4-3.65-4.87-3.09-2,3.93-.93,5.24,5.43,3,6.17,3S69.21,74.75,69.3,72.32Z"/><path class="cls-6" d="M90.46,62.3s-9.6,14.13-10.71,17.82l-8.68-8.31s-2.22-.37-3.69,2.4,0,3.7,0,3.7S77.9,89,80.31,89,92.5,74.21,92.5,73.66,90.46,62.3,90.46,62.3Z"/><path class="cls-6" d="M117.59,66.72s9.6,14.14,10.71,17.83L137,76.24s2.22-.37,3.7,2.4,0,3.69,0,3.69-10.53,11.09-12.93,11.09-12.19-14.78-12.19-15.34S117.59,66.72,117.59,66.72Z"/><path class="cls-7" d="M88.33,156.9A9.37,9.37,0,0,1,84.88,160c-2.34,1.23-3.7,2.46-3.7,3.45s1.48,1.47,3.57,1.35,3.33-2.46,4.81-3.08,3.2-.74,3.69-1.48,0-3.69,0-3.69Z"/><path class="cls-7" d="M103.78,162.32a4,4,0,0,1-1.17,2.46c-1,.74-1.72,2-3.32,2.59a3.77,3.77,0,0,0-2.59,2.83c0,.86,3.45,1.48,5.42.74s4.06-3.45,4.92-3.82a3.05,3.05,0,0,0,1.6-2,14.12,14.12,0,0,0-.37-3Z"/><path class="cls-8" d="M114,103.09s-.62,8.69-1.64,14.43-2.53,43.64-3.8,45.13-3.12,1.34-4.81-.3S100.52,114,100.52,114l-5.13-10.64Z"/><path class="cls-8" d="M89.93,98.78s-2.47,46.54-2.22,57.38c0,3.2,4.93,3.69,6.16.49s6.4-48.76,5.91-54.67S90.67,94.59,89.93,98.78Z"/><path class="cls-9" d="M106.53,58.9s9.61,6.86,10.56,9.15,1.15,8.63-.83,12.87-1.25,19.82-2,22.87-8.93,4-14,3-11.24-4.67-11-10.6.07-17-.25-19.66a46.1,46.1,0,0,1,1.26-13.89c.27-1,3.46-1.94,3.46-1.94S97.06,58.5,106.53,58.9Z"/><path class="cls-5" d="M98.18,57.61a1.27,1.27,0,0,1,0,.31c-.11.7-.46,2.5-.53,3.25s.76,2,2.71,1.93,5.24-.85,6.34-3.17a52.81,52.81,0,0,1,.33-6.85Z"/><path class="cls-10" d="M106.79,58.46a7,7,0,0,1-6.8,4.63l-.35,0,2.65,4.27a35,35,0,0,0,5.31-3.81,5,5,0,0,0,1.15-3.34Z"/><path class="cls-10" d="M99.64,63.07l-2.76,2.65S94.8,64,96.07,60l1.73-.69A4.43,4.43,0,0,0,99.64,63.07Z"/><path class="cls-5" d="M93.31,43.68c1.11-6,5.83-9.33,11.16-8.08,0,0,5.78.57,8.35,5.65s-1.2,9.35-3.62,12c-1,1.1-1.79,2-2.27,2.5-.18.2-.35.41-.53.6l-.06.06h0a12.06,12.06,0,0,1-4.94,3c-2.33.69-5.08.3-6.57-1.29S92.19,49.63,93.31,43.68Z"/><path class="cls-6" d="M108.75,60.19s1.44,1.38-.46,4.84a36.62,36.62,0,0,0-4.15,15.91c-.17,6.57-1,27.14-.17,31.64,1.72,1.56,10,.17,12.44-4,1-6,.52-24.38,1.73-28.18s.87-10.72.18-12.62C117.45,65.9,110.77,60.71,108.75,60.19Z"/><path class="cls-6" d="M95.38,60.08A47.1,47.1,0,0,0,94,72.76c0,6.8-2,35-2.31,35.61s-4.38-3-4.5-7.14,1.39-29.63,1.62-32.16,1-6.8,1.61-7.27A25.12,25.12,0,0,1,95.38,60.08Z"/><polygon class="cls-6" points="97.38 64.47 98.63 67.1 101.26 65.02 99.64 63.07 97.38 64.47"/><path class="cls-6" d="M98.07,65.44S96,88.4,96,89.79l1.66,2.9,2.21-2.35.42-25.18Z"/><path class="cls-11" d="M111.45,37.81a8.72,8.72,0,0,0-6-4c-4.29-.83-8.44,2.35-11.21,2.49s-4.29-.69-3.73,1.8,1.1,4.29,4.56,4.56,8.72.28,10.66,1,2.07,3.6,1.24,6.23-1.11,5.26-.69,5.39,2.21-.27,4-2.07,6.09-8.86,4.57-11.21A25.19,25.19,0,0,0,111.45,37.81Z"/><path class="cls-5" d="M108.63,51.56s1.76-2.4,3.05-1.76-1.75,5.91-3.69,5.81C106.24,55.34,108.63,51.56,108.63,51.56Z"/><path class="cls-10" d="M137.14,77.15s1.56-1.66,2.12-1.57a4.4,4.4,0,0,1,3,3.6c0,.92-1.29,1.84-1.29,1.84S138.8,81.39,137.14,77.15Z"/><path class="cls-5" d="M139.05,76.47s.84-5.24,1.87-5.62,1.21.85,1.21,1.69a7.67,7.67,0,0,1-.18,1.59s4-3.65,4.86-3.09,2,3.93.94,5.24-5.43,3-6.18,3S139.14,78.9,139.05,76.47Z"/><polygon class="cls-12" points="77 74.09 76.95 73.91 76.96 73.91 76.95 73.9 76.95 73.9 76.95 73.9 65.9 71.25 55.65 82.12 56.24 84.12 67.25 86.76 67.26 86.78 67.27 86.77 67.3 86.77 67.29 86.75 77.5 75.92 77.47 75.81 67.26 86.64 66.76 84.94 77 74.09"/><polygon class="cls-13" points="76.91 74.17 66.74 84.92 67.27 86.64 77.42 75.87 76.91 74.17"/><polygon class="cls-14" points="66.73 84.92 67.27 86.64 56.41 84.01 55.92 82.34 66.73 84.92"/><path class="cls-15" d="M66.48,82.59s1.39-2.49,1.29-4.06c.47-1.2,1.57-2.49,2.31-2.12s-.28,2.77.09,3.42,2.86.09,3.32.64-.83,2.58-1.93,3.23a15.34,15.34,0,0,0-2.49,2Z"/><ellipse class="cls-3" cx="30.29" cy="173.8" rx="30.29" ry="19.25"/><path class="cls-5" d="M16.49,129.82s2.77,11.43,3,15.12-1.29,9.41-.36,14.39.73,14,.92,15.68.37,3.14,1.47,3.69,2.22.18,3.69-.92,6.09-2.95,6.27-4.24-2.76-1.3-3.68-1.11-2.4.74-2.77.18.92-10.14,1.29-16.78,2-19.37,1.66-25.09-5-7.56-7.38-7S16.31,127.42,16.49,129.82Z"/><path class="cls-6" d="M41.29,75.34c-3.46-5.56-11-7.2-11-7.2-9.23-1.89-12.17,1.47-12.17,1.47a14.12,14.12,0,0,0-3,8.32c0,3.28,3.45,12.74,3.68,20.24-.09,5.21-1.63,13.91-1.76,15.23-.26,2.58,6.85,10,22.86,5.89A7.48,7.48,0,0,0,42.49,117l.18-19.35c.07-1.08.14-2.21.22-3.42C43.68,81.45,41.29,75.34,41.29,75.34Z"/><path class="cls-6" d="M18.14,69.61s-6.7,3.86-7.73,21.51c.86,3.26,6,5,10,2.4S20.21,72.61,18.14,69.61Z"/><path class="cls-5" d="M23.1,61.4s.8,4.64,0,6.77c-.13,1.06,4.52,4.65,8.63,3.72,2.39-.53,2.26-1.73,2.26-1.73a12.78,12.78,0,0,1-1.73-6.51C32.53,60.47,25.89,60.73,23.1,61.4Z"/><path class="cls-15" d="M38.64,52a11,11,0,1,1-11-11A11,11,0,0,1,38.64,52Z"/><path class="cls-5" d="M38.64,52.76s.34,10.35-2,12.56-6.27-1.44-12.14-2.81,4.76-12.92,4.76-12.92Z"/><path class="cls-10" d="M36.12,70.44l-2.85-1.6s-7.32-.69-9.94-2.4L22,68.38a8.34,8.34,0,0,0,6.51,4c4.68.46,6.85-1.37,6.85-1.37Z"/><path class="cls-11" d="M30.62,39.56S39.5,41.11,40,49.11c-.23,6.22-5.34,7.55-6,8.22s-2.22-2.22-3.78.67.67,3.55,1.56,4.66c.44,1.11-1.34,2.45-3.11,2.67s-2.36,2.22-5.29,1.11-3.38-4.22-5.6-7.33-3.11-9.56-.67-14.22S27.73,39.11,30.62,39.56Z"/><path class="cls-11" d="M22.4,65.55s-.23-.22-2.45,4.67-3.33,7.33-.89,12.88a58.27,58.27,0,0,1,3.11,8.22s4-3.33,2.89-10.66-2.59-10.54-2-12.49S25.06,65.55,22.4,65.55Z"/><path class="cls-5" d="M43.06,137.56s-1.48,33.95-1.66,39.11A7.55,7.55,0,0,0,44.9,178c2.4.37,4.61.56,5.35,1.66s-3.69,3.14-5.9,2.59-5.72.73-7.57,0c-1.29-1.48-.36-5.35-.36-6.46s-3-15.87-2.22-20.85-.74-19.73-1.29-26.56S42.5,121.88,43.06,137.56Z"/><path class="cls-16" d="M18.52,101.87s13.19,6.18,24.17.64a15.5,15.5,0,0,1,.27,3.23s2.22,18.31.14,35.61c0,0-6.5,4.42-16.32,1.93s-9.55-6.09-9.55-6.09-4.43-18.81-2.63-24.35a60,60,0,0,1,3.32-8.43l.51-2.63"/><path class="cls-6" d="M37.34,71.52A19.12,19.12,0,0,1,44.72,78c2.58,4.24,7,12.91,7.93,13.65s11.8-9.22,13.28-10c1.48-.55,4.06,1.48,3.51,4.24s-13.1,13.28-16.61,14.58S39.37,91.08,36.42,86.28,33.09,72.45,37.34,71.52Z"/><path class="cls-7" d="M36.09,178.1a4.53,4.53,0,0,1,2.63.65c1.57.83,4.11,1.38,5.4.83s1.15-.93.78-1.48c0-.32,1.89-.09,2.86.14s2.58.92,2.91,1.57-1.66,2.26-3.88,2.67-5.07-.23-5.81-.09-1,1.06-1.71,1.11-1.93.18-2.35-.14a7.45,7.45,0,0,1-1-3.65A14.17,14.17,0,0,1,36.09,178.1Z"/><path class="cls-7" d="M20,175.47a8.25,8.25,0,0,1,3.87,1c1.06.46,2.91-.6,3.32-1.06s1-2.12-.46-2.58l-.55-.1a12.05,12.05,0,0,1,2.21-.5c.78,0,2.77,0,3.51.83.27.41-.51,2-1.48,2.72s-4.57,1.84-5.12,2.3-.64,1.34-1.11,1.53a4,4,0,0,1-3-.28C20.32,178.65,19.91,176.3,20,175.47Z"/></g></g></g></svg>