<svg xmlns="http://www.w3.org/2000/svg" viewBox="0 0 51.62 65.19"><defs><style>.cls-1,.cls-2{fill:none;stroke:#1fb24b;stroke-linejoin:round;}.cls-1{stroke-linecap:round;}</style></defs><title>fale conosco</title><g id="Layer_2" data-name="Layer 2"><g id="Layer_1-2" data-name="Layer 1"><path class="cls-1" d="M43,32.23a6,6,0,0,0,4.75-5.83l.12-11.88A11.92,11.92,0,0,0,36,2.5c-.27,0-.54,0-.81,0A12.18,12.18,0,0,0,24,14.75l-.08,11.5a6,6,0,0,0,4.67,5.86"/><line class="cls-1" x1="32.19" y1="31.09" x2="32.19" y2="30.39"/><path class="cls-1" d="M46,17.05V14.27a10.69,10.69,0,0,1-13.5-2.48A6.09,6.09,0,0,1,27,16.17,5.17,5.17,0,0,1,25.77,16v.9"/><path class="cls-1" d="M47.75,19.88v-.6"/><path class="cls-1" d="M33.17,29.57a10.11,10.11,0,0,0,12.42-7.08l0-.09"/><path class="cls-1" d="M26,22.26A10.13,10.13,0,0,0,30,28"/><path class="cls-1" d="M23.93,19.12v.6"/><path class="cls-1" d="M32.83,24a4.33,4.33,0,0,0,6,0"/><path class="cls-1" d="M41.21,18.64a1.62,1.62,0,0,0-3,0"/><path class="cls-1" d="M33.47,18.4a1.62,1.62,0,0,0-3,0"/><path class="cls-1" d="M21.53,21.49v1.79a5.35,5.35,0,0,0,5.3,5.4"/><path class="cls-1" d="M25.1,22.71H22.71a1.18,1.18,0,0,1-1.19-1.18s0,0,0,0V17.94a1.19,1.19,0,0,1,1.2-1.19h2.39"/><path class="cls-1" d="M23.91,21.51a1.19,1.19,0,1,0,2.38,0V18a1.19,1.19,0,0,0-1.18-1.2h0a1.18,1.18,0,0,0-1.2,1.16v3.6Z"/><path class="cls-1" d="M46.54,22.85h2.39a1.19,1.19,0,0,0,1.19-1.19h0V18.09a1.19,1.19,0,0,0-1.18-1.2H46.55"/><path class="cls-1" d="M47.74,21.67a1.19,1.19,0,1,1-2.38,0h0V18.09A1.2,1.2,0,0,1,46.66,17a1.21,1.21,0,0,1,1.09,1.09Z"/><path class="cls-1" d="M33.4,28.72a1.79,1.79,0,1,1-3.58,0,1.79,1.79,0,0,1,3.58,0Z"/><path class="cls-1" d="M21.54,19.7V14.34a14.3,14.3,0,0,1,28.59.19v5.36"/><path class="cls-1" d="M26.83,28.68h3"/><line class="cls-1" x1="39.35" y1="29.3" x2="39.34" y2="31.14"/><path class="cls-1" d="M20.28,44.2a15.49,15.49,0,0,1,9.36-12.47"/><path class="cls-1" d="M44.12,33a15.49,15.49,0,0,1,7,13.08v7.74c-.07,9.68-7,10.68-11.92,10.65H37"/><path class="cls-1" d="M45.15,53.82c0,4.54-3.38,5.34-5.92,5.33H36.77v1.79"/><line class="cls-1" x1="26.1" y1="52.28" x2="26.13" y2="46.54"/><line class="cls-1" x1="45.19" y1="46.67" x2="45.15" y2="53.82"/><line class="cls-1" x1="34.44" y1="63.87" x2="34.43" y2="63.87"/><path class="cls-1" d="M36.76,60.92V59.13H35a2.27,2.27,0,0,0-1.54.56"/><line class="cls-1" x1="35.72" y1="38.27" x2="35.61" y2="53.76"/><path class="cls-1" d="M30.14,36.57a1,1,0,0,0,1.4.2,1.26,1.26,0,0,0,.2-.2l1.79-2.47a1,1,0,0,0,0-1.18l-1.46-2a15.35,15.35,0,0,0-4.69,2Z"/><path class="cls-1" d="M41.31,36.65a1,1,0,0,1-.81.38,1,1,0,0,1-.79-.42L38,34.11a1,1,0,0,1,0-1.18L39.43,31a15.5,15.5,0,0,1,4.68,2Z"/><path class="cls-2" d="M24.36,62.12h2.22L21.94,47.4a1,1,0,0,0-.94-.69H19.5Z"/><path class="cls-2" d="M5,62l20.35.14v2.48L7,64.49a2,2,0,0,1-2-2Z"/><path class="cls-2" d="M25.35,62.13l9,.06a.49.49,0,0,1,.49.49h0a2,2,0,0,1-2,2l-7.49,0Z"/><path class="cls-2" d="M13.34,53.8a1.06,1.06,0,0,1,.53-.92,1.19,1.19,0,0,0-.89-.49,6.82,6.82,0,0,0-.93.22c-.19,0-.49-.22-.81-.22a1.17,1.17,0,0,0-1,.6,2.52,2.52,0,0,0,.29,2.46c.2.3.45.64.77.63s.42-.2.8-.2.47.2.8.2.55-.3.75-.59A3.44,3.44,0,0,0,14,54.8,1.09,1.09,0,0,1,13.34,53.8Z"/><path class="cls-2" d="M5,62l19.36.13L19.5,46.7l-18-.12a1,1,0,0,0-.95,1.29Z"/><line class="cls-1" x1="12.02" y1="51.13" x2="12.47" y2="50.68"/><line class="cls-1" x1="37.89" y1="33.99" x2="35.72" y2="38.27"/><line class="cls-1" x1="35.72" y1="38.27" x2="33.6" y2="33.96"/></g></g></svg>