<svg xmlns="http://www.w3.org/2000/svg" xmlns:xlink="http://www.w3.org/1999/xlink" viewBox="0 0 270.82 290.88"><defs><style>.cls-1{isolation:isolate;}.cls-2{opacity:0.19;}.cls-2,.cls-4,.cls-40,.cls-41,.cls-7,.cls-88,.cls-99{mix-blend-mode:multiply;}.cls-3{fill:#48ff9f;}.cls-108,.cls-4,.cls-41,.cls-88{opacity:0.35;}.cls-5{fill:#48ff96;}.cls-6,.cls-88{fill:#48ff6f;}.cls-33,.cls-7,.cls-98{opacity:0.25;}.cls-8{fill:#00ff85;}.cls-9{fill:url(#linear-gradient);}.cls-10{fill:#19a53d;}.cls-11{fill:#75ef95;}.cls-12{fill:#0f6d1c;}.cls-13{fill:#3aad34;}.cls-14{fill:#e2e2e2;}.cls-15{fill:#0b6830;}.cls-16{fill:url(#linear-gradient-2);}.cls-17,.cls-36,.cls-85,.cls-96,.cls-97,.cls-98,.cls-99{fill:#b4bbe1;}.cls-18{fill:#dae3f2;}.cls-19{fill:#ced2ef;}.cls-20{fill:#c5c8e8;}.cls-101,.cls-102,.cls-129,.cls-21{fill:#fff;}.cls-22{fill:url(#linear-gradient-3);}.cls-23{fill:#17720a;}.cls-24{fill:#ef770a;}.cls-25{fill:#ff9906;}.cls-26{fill:#fcc106;}.cls-27{fill:#20a857;}.cls-28{fill:url(#linear-gradient-4);}.cls-29{fill:#1ab24b;}.cls-125,.cls-30{fill:#e0e0e0;}.cls-31{fill:#777;}.cls-32{fill:#75bcfc;}.cls-32,.cls-36{opacity:0.45;}.cls-109,.cls-34,.cls-39,.cls-89,.cls-90,.cls-91,.cls-92,.cls-93{fill:none;}.cls-109,.cls-34{stroke:#fff;}.cls-109,.cls-34,.cls-39,.cls-91,.cls-92,.cls-93{stroke-linecap:round;}.cls-34,.cls-39,.cls-89,.cls-90{stroke-miterlimit:10;}.cls-34{stroke-width:0.85px;}.cls-35{fill:url(#linear-gradient-5);}.cls-37{fill:url(#linear-gradient-6);}.cls-38{fill:#f7f5fa;}.cls-39{stroke:#b4bbe1;}.cls-40{fill:url(#linear-gradient-7);}.cls-41{fill:url(#linear-gradient-8);}.cls-42{fill:#ebf6f7;}.cls-43{fill:url(#linear-gradient-9);}.cls-44{fill:url(#linear-gradient-10);}.cls-45{fill:url(#linear-gradient-11);}.cls-46{fill:url(#linear-gradient-12);}.cls-47{fill:url(#linear-gradient-13);}.cls-48{fill:url(#linear-gradient-14);}.cls-49{fill:url(#linear-gradient-15);}.cls-50{fill:url(#linear-gradient-16);}.cls-51{fill:url(#linear-gradient-17);}.cls-52{fill:url(#linear-gradient-18);}.cls-53{fill:url(#linear-gradient-19);}.cls-54{fill:url(#linear-gradient-20);}.cls-55{fill:url(#linear-gradient-21);}.cls-56{fill:url(#linear-gradient-22);}.cls-57{fill:url(#linear-gradient-23);}.cls-58{fill:url(#linear-gradient-24);}.cls-59{fill:url(#linear-gradient-25);}.cls-60{fill:url(#linear-gradient-26);}.cls-61{fill:url(#linear-gradient-27);}.cls-62{fill:url(#linear-gradient-28);}.cls-63{fill:url(#linear-gradient-29);}.cls-64{fill:url(#linear-gradient-30);}.cls-65{fill:url(#linear-gradient-31);}.cls-66{fill:url(#linear-gradient-32);}.cls-67{fill:url(#linear-gradient-33);}.cls-68{fill:url(#linear-gradient-34);}.cls-69{fill:url(#linear-gradient-35);}.cls-70{fill:url(#linear-gradient-36);}.cls-71{fill:url(#linear-gradient-37);}.cls-72{fill:url(#linear-gradient-38);}.cls-73{fill:url(#linear-gradient-39);}.cls-74{fill:url(#linear-gradient-40);}.cls-75{fill:url(#linear-gradient-41);}.cls-76{fill:url(#linear-gradient-42);}.cls-77{fill:url(#linear-gradient-43);}.cls-78{fill:url(#linear-gradient-44);}.cls-79{fill:url(#linear-gradient-45);}.cls-80{fill:url(#linear-gradient-46);}.cls-81{fill:url(#linear-gradient-47);}.cls-82{fill:url(#linear-gradient-48);}.cls-83{fill:url(#linear-gradient-49);}.cls-84{fill:url(#linear-gradient-50);}.cls-85{font-size:6.75px;font-family:Montserrat-Thin, Montserrat;font-weight:200;letter-spacing:-0.05em;}.cls-86{letter-spacing:-0.04em;}.cls-125,.cls-87{opacity:0.75;}.cls-89,.cls-91{stroke:#daefdf;}.cls-90,.cls-93{stroke:#daefdc;}.cls-109,.cls-91,.cls-92,.cls-93{stroke-linejoin:round;}.cls-92{stroke:#dae3f2;}.cls-94{fill:url(#linear-gradient-51);}.cls-95{fill:#14b241;}.cls-96{opacity:0.11;}.cls-97{opacity:0.15;}.cls-129,.cls-99{opacity:0.55;}.cls-100,.cls-101{opacity:0.2;}.cls-100{mix-blend-mode:screen;fill:url(#linear-gradient-52);}.cls-102{opacity:0.4;}.cls-103{fill:#81c5e8;}.cls-104{fill:#cdd5f7;}.cls-105{fill:#2d2d2d;}.cls-106{fill:#3a3a3a;}.cls-107{fill:#4b4c4c;}.cls-109{stroke-width:2.76px;}.cls-110{fill:#f2ba88;}.cls-111{fill:#ffd1a4;}.cls-112{fill:#e8ecf7;}.cls-113{fill:url(#linear-gradient-53);}.cls-114{fill:#190b05;}.cls-115{fill:#7f391b;}.cls-116{fill:#934b32;}.cls-117{fill:#682c17;}.cls-118{fill:#595959;opacity:0.5;}.cls-119{fill:#845424;}.cls-120{fill:#713e23;}.cls-121,.cls-124{fill:#efefef;}.cls-121{opacity:0.39;}.cls-122{fill:#442312;}.cls-123{fill:#d39867;}.cls-126{fill:url(#linear-gradient-54);}.cls-127{fill:#063444;}.cls-128{fill:#169913;}.cls-130{fill:#afafaf;}.cls-131{fill:#474747;}</style><linearGradient id="linear-gradient" x1="65.4" y1="106.03" x2="28.22" y2="127.5" gradientUnits="userSpaceOnUse"><stop offset="0" stop-color="#b4bbe1" stop-opacity="0.1"/><stop offset="0.63" stop-color="#b4bbe1" stop-opacity="0.24"/><stop offset="1" stop-color="#b4bbe1" stop-opacity="0.3"/></linearGradient><linearGradient id="linear-gradient-2" x1="88.52" y1="111.83" x2="51.33" y2="133.3" xlink:href="#linear-gradient"/><linearGradient id="linear-gradient-3" x1="26.82" y1="147.88" x2="6.95" y2="159.35" xlink:href="#linear-gradient"/><linearGradient id="linear-gradient-4" x1="2333.45" y1="156.99" x2="2464.26" y2="232.51" gradientTransform="matrix(-1, 0, 0, 1, 2516.93, 0)" xlink:href="#linear-gradient"/><linearGradient id="linear-gradient-5" x1="147.99" y1="161.54" x2="70.01" y2="206.56" gradientUnits="userSpaceOnUse"><stop offset="0" stop-color="#ced5ef"/><stop offset="0.37" stop-color="#d5ddf1"/><stop offset="0.87" stop-color="#dae3f2"/></linearGradient><linearGradient id="linear-gradient-6" x1="168.05" y1="149.27" x2="89.49" y2="194.63" xlink:href="#linear-gradient-5"/><linearGradient id="linear-gradient-7" x1="150.15" y1="209.17" x2="150.15" y2="95.95" xlink:href="#linear-gradient"/><linearGradient id="linear-gradient-8" x1="106.29" y1="204.57" x2="170.28" y2="93.74" gradientUnits="userSpaceOnUse"><stop offset="0" stop-color="#b4bbe1" stop-opacity="0.1"/><stop offset="0.41" stop-color="#b4bbe1" stop-opacity="0.4"/><stop offset="0.83" stop-color="#b4bbe1" stop-opacity="0.8"/><stop offset="0.84" stop-color="#c5cbe8" stop-opacity="0.68"/><stop offset="0.87" stop-color="#dadef0" stop-opacity="0.55"/><stop offset="0.89" stop-color="#eaecf7" stop-opacity="0.44"/><stop offset="0.92" stop-color="#f6f7fb" stop-opacity="0.36"/><stop offset="0.96" stop-color="#fdfdfe" stop-opacity="0.31"/><stop offset="1" stop-color="#fff" stop-opacity="0.3"/></linearGradient><linearGradient id="linear-gradient-9" x1="124.56" y1="110.14" x2="154.61" y2="110.14" xlink:href="#linear-gradient-5"/><linearGradient id="linear-gradient-10" x1="124.56" y1="107.03" x2="154.61" y2="107.03" xlink:href="#linear-gradient-5"/><linearGradient id="linear-gradient-11" x1="124.56" y1="113.25" x2="154.61" y2="113.25" xlink:href="#linear-gradient-5"/><linearGradient id="linear-gradient-12" x1="124.56" y1="116.36" x2="154.61" y2="116.36" xlink:href="#linear-gradient-5"/><linearGradient id="linear-gradient-13" x1="124.56" y1="119.47" x2="154.61" y2="119.47" xlink:href="#linear-gradient-5"/><linearGradient id="linear-gradient-14" x1="145.3" y1="146.42" x2="154.61" y2="146.42" xlink:href="#linear-gradient-5"/><linearGradient id="linear-gradient-15" x1="124.56" y1="137.34" x2="144.06" y2="137.34" xlink:href="#linear-gradient-5"/><linearGradient id="linear-gradient-16" x1="124.56" y1="137.87" x2="156.62" y2="137.87" xlink:href="#linear-gradient-5"/><linearGradient id="linear-gradient-17" x1="124.56" y1="134.18" x2="154.61" y2="134.18" xlink:href="#linear-gradient-5"/><linearGradient id="linear-gradient-18" x1="124.56" y1="131.07" x2="154.61" y2="131.07" xlink:href="#linear-gradient-5"/><linearGradient id="linear-gradient-19" x1="124.56" y1="152.38" x2="154.61" y2="152.38" xlink:href="#linear-gradient-5"/><linearGradient id="linear-gradient-20" x1="124.3" y1="156.61" x2="159.32" y2="156.61" xlink:href="#linear-gradient-5"/><linearGradient id="linear-gradient-21" x1="123.6" y1="159.08" x2="159.07" y2="159.08" xlink:href="#linear-gradient-5"/><linearGradient id="linear-gradient-22" x1="124.56" y1="149.27" x2="154.61" y2="149.27" xlink:href="#linear-gradient-5"/><linearGradient id="linear-gradient-23" x1="124.56" y1="146.16" x2="154.61" y2="146.16" xlink:href="#linear-gradient-5"/><linearGradient id="linear-gradient-24" x1="142.08" y1="148.13" x2="154.61" y2="148.13" xlink:href="#linear-gradient-5"/><linearGradient id="linear-gradient-25" x1="124.56" y1="139.07" x2="140.84" y2="139.07" xlink:href="#linear-gradient-5"/><linearGradient id="linear-gradient-26" x1="157.56" y1="155.07" x2="172.29" y2="155.07" xlink:href="#linear-gradient-5"/><linearGradient id="linear-gradient-27" x1="157.56" y1="151.96" x2="172.29" y2="151.96" xlink:href="#linear-gradient-5"/><linearGradient id="linear-gradient-28" x1="157.56" y1="147.24" x2="172.29" y2="147.24" xlink:href="#linear-gradient-5"/><linearGradient id="linear-gradient-29" x1="157.56" y1="166.49" x2="170.33" y2="166.49" xlink:href="#linear-gradient-5"/><linearGradient id="linear-gradient-30" x1="157.56" y1="163.95" x2="172.29" y2="163.95" xlink:href="#linear-gradient-5"/><linearGradient id="linear-gradient-31" x1="157.56" y1="160.84" x2="172.29" y2="160.84" xlink:href="#linear-gradient-5"/><linearGradient id="linear-gradient-32" x1="157.56" y1="157.72" x2="172.29" y2="157.72" xlink:href="#linear-gradient-5"/><linearGradient id="linear-gradient-33" x1="124.56" y1="123.58" x2="151.47" y2="123.58" xlink:href="#linear-gradient-5"/><linearGradient id="linear-gradient-34" x1="124.56" y1="133.14" x2="172.61" y2="133.14" xlink:href="#linear-gradient-5"/><linearGradient id="linear-gradient-35" x1="159.7" y1="175.19" x2="172.29" y2="175.19" xlink:href="#linear-gradient-5"/><linearGradient id="linear-gradient-36" x1="162.08" y1="182.52" x2="167.38" y2="182.52" xlink:href="#linear-gradient-5"/><linearGradient id="linear-gradient-37" x1="121.53" y1="169.53" x2="153.16" y2="169.53" xlink:href="#linear-gradient-5"/><linearGradient id="linear-gradient-38" x1="103.82" y1="149.84" x2="129.56" y2="149.84" xlink:href="#linear-gradient-5"/><linearGradient id="linear-gradient-39" x1="101.62" y1="151.57" x2="126.87" y2="151.57" xlink:href="#linear-gradient-5"/><linearGradient id="linear-gradient-40" x1="99.7" y1="153.52" x2="124.89" y2="153.52" xlink:href="#linear-gradient-5"/><linearGradient id="linear-gradient-41" x1="97.95" y1="155.65" x2="123.15" y2="155.65" xlink:href="#linear-gradient-5"/><linearGradient id="linear-gradient-42" x1="96.52" y1="157.92" x2="121.76" y2="157.92" xlink:href="#linear-gradient-5"/><linearGradient id="linear-gradient-43" x1="95.42" y1="160.46" x2="120.65" y2="160.46" xlink:href="#linear-gradient-5"/><linearGradient id="linear-gradient-44" x1="94.36" y1="171.64" x2="141.66" y2="171.64" xlink:href="#linear-gradient-5"/><linearGradient id="linear-gradient-45" x1="94.19" y1="175.33" x2="141.66" y2="175.33" xlink:href="#linear-gradient-5"/><linearGradient id="linear-gradient-46" x1="93.65" y1="178.76" x2="141.1" y2="178.76" xlink:href="#linear-gradient-5"/><linearGradient id="linear-gradient-47" x1="92.6" y1="181.93" x2="140.05" y2="181.93" xlink:href="#linear-gradient-5"/><linearGradient id="linear-gradient-48" x1="91.03" y1="184.81" x2="138.54" y2="184.81" xlink:href="#linear-gradient-5"/><linearGradient id="linear-gradient-49" x1="89.03" y1="187.43" x2="136.56" y2="187.43" xlink:href="#linear-gradient-5"/><linearGradient id="linear-gradient-50" x1="111.23" y1="196.94" x2="134.11" y2="196.94" xlink:href="#linear-gradient-5"/><linearGradient id="linear-gradient-51" x1="253.38" y1="225.93" x2="188.07" y2="263.64" xlink:href="#linear-gradient"/><linearGradient id="linear-gradient-52" x1="193.07" y1="230.2" x2="212.22" y2="230.2" xlink:href="#linear-gradient"/><linearGradient id="linear-gradient-53" x1="94.29" y1="236.24" x2="70.47" y2="249.99" xlink:href="#linear-gradient"/><linearGradient id="linear-gradient-54" x1="64.26" y1="195.47" x2="30.49" y2="214.96" gradientTransform="translate(-29.23 74.63) rotate(-5.77)" xlink:href="#linear-gradient"/></defs><title>imagem-sobre-main_1</title><g class="cls-1"><g id="Layer_2" data-name="Layer 2"><g id="OBJECTS"><g class="cls-2"><path class="cls-3" d="M181.33,47.32a1.58,1.58,0,0,1-.5-.18L150.91,29.92a2.32,2.32,0,0,1-1.19-2V1.16a1.13,1.13,0,0,1,.61-1,1.37,1.37,0,0,1,1.28.09L181.49,17.4a2.33,2.33,0,0,1,1.19,2V46.21a1.09,1.09,0,0,1-.59,1A1.16,1.16,0,0,1,181.33,47.32Z"/></g><g class="cls-4"><path class="cls-5" d="M193.11,68.28a1,1,0,0,1-.36-.13l-21.56-12.4a1.68,1.68,0,0,1-.85-1.42V35a.78.78,0,0,1,.44-.74,1,1,0,0,1,.92.06l21.53,12.39a1.66,1.66,0,0,1,.86,1.41V67.48a.78.78,0,0,1-.43.73A.85.85,0,0,1,193.11,68.28Z"/></g><g class="cls-2"><path class="cls-6" d="M92.1,52.58a.63.63,0,0,1-.25-.09L77.06,44a1.17,1.17,0,0,1-.58-1V29.77a.55.55,0,0,1,.3-.51.68.68,0,0,1,.63,0l14.77,8.5a1.15,1.15,0,0,1,.59,1V52a.56.56,0,0,1-.67.55Z"/></g><g class="cls-7"><path class="cls-8" d="M241.92,129.24a1.61,1.61,0,0,1-.54-.2L209.3,110.59a2.52,2.52,0,0,1-1.27-2.11V79.75a1.2,1.2,0,0,1,.65-1.11,1.45,1.45,0,0,1,1.38.09l32,18.43a2.51,2.51,0,0,1,1.27,2.11v28.78a1.15,1.15,0,0,1-.63,1.08A1.26,1.26,0,0,1,241.92,129.24Z"/></g><path class="cls-8" d="M225.83,115.55c-2.64-.1-6.19-3.76-8-8.15-2-5-2-10.5.15-13.74s5.7-3.55,9-.84c-.08.29-.15.57-.23.85-.76,2.81-1.55,5.59-2.26,8.44a6.68,6.68,0,0,0-.12,2.3c.39,3.36.85,6.74,1.28,10.11C225.76,114.87,225.79,115.21,225.83,115.55Z"/><path class="cls-8" d="M226.9,115.82c-.47-3.7-.93-7.25-1.39-10.93l7,6.26C231.41,114.25,229.55,115.75,226.9,115.82Z"/><path class="cls-8" d="M228.07,93.76c3.72,3.37,6,10.95,4.8,16l-7.35-6.57C226.37,100,227.22,96.9,228.07,93.76Z"/><polygon class="cls-9" points="24.98 121.9 37.89 129.33 68.64 111.63 55.83 104.15 24.98 121.9"/><path class="cls-10" d="M56.87,51.39,28.15,67.94l9.74,5.6,20.6-16.78V52.32A1.08,1.08,0,0,0,56.87,51.39Z"/><polygon class="cls-11" points="28.14 69.47 56.71 53.02 66.99 58.95 38.43 75.4 28.14 69.47"/><path class="cls-12" d="M67.77,57.17a1.18,1.18,0,0,0-1.24-.12L37.89,73.54l-9.74-5.6L56.87,51.39a1,1,0,0,1,.94-.06h0s-1-.49-1.4-.72a1.19,1.19,0,0,0-1.21-.09L25,67.92V118.7l11.32-6.52v13.06l30.91-17.8a1.86,1.86,0,0,0,.93-1.62l1-47.9S68.21,57.45,67.77,57.17Z"/><polygon class="cls-13" points="37.89 75.37 24.98 67.93 24.98 118.71 37.89 126.15 37.89 75.37"/><polygon class="cls-14" points="36.14 78.11 26.18 72.38 26.18 76.26 36.14 82 36.14 78.11"/><polygon class="cls-14" points="36.14 83.24 26.18 77.51 26.18 78.85 36.14 84.58 36.14 83.24"/><polygon class="cls-14" points="36.14 85.74 26.18 80.01 26.18 81.35 36.14 87.08 36.14 85.74"/><polygon class="cls-14" points="36.14 119.54 26.18 113.81 26.18 115.16 36.14 120.89 36.14 119.54"/><path class="cls-15" d="M68.11,58,37.89,75.37v50.78l30.91-17.8a1.89,1.89,0,0,0,.93-1.62V58.89A1.08,1.08,0,0,0,68.11,58Z"/><polygon class="cls-16" points="48.1 127.7 61.01 135.13 91.75 117.44 78.94 109.96 48.1 127.7"/><path class="cls-17" d="M80,55.12,51.26,71.67,61,77.27l20.6-16.78V56.05A1.08,1.08,0,0,0,80,55.12Z"/><polygon class="cls-18" points="51.26 73.2 79.82 56.75 90.11 62.69 61.55 79.13 51.26 73.2"/><path class="cls-19" d="M90.89,60.9a1.2,1.2,0,0,0-1.25-.12L61,77.27l-9.75-5.6L80,55.12a1,1,0,0,1,.93-.06h0s-1-.49-1.39-.72a1.19,1.19,0,0,0-1.21-.09L48.1,71.65v50.78l11.32-6.52V129l30.9-17.8a1.87,1.87,0,0,0,.94-1.62l1-47.9S91.32,61.18,90.89,60.9Z"/><polygon class="cls-20" points="61.01 79.1 48.1 71.66 48.1 122.44 61.01 129.88 61.01 79.1"/><polygon class="cls-21" points="59.25 81.84 49.3 76.11 49.3 79.99 59.25 85.73 59.25 81.84"/><polygon class="cls-21" points="59.25 86.97 49.3 81.24 49.3 82.58 59.25 88.31 59.25 86.97"/><polygon class="cls-21" points="59.25 89.47 49.3 83.74 49.3 85.08 59.25 90.81 59.25 89.47"/><polygon class="cls-21" points="59.25 123.27 49.3 117.54 49.3 118.89 59.25 124.62 59.25 123.27"/><path class="cls-17" d="M91.23,61.69,61,79.1v50.78l30.9-17.8a1.88,1.88,0,0,0,.94-1.62V62.63A1.08,1.08,0,0,0,91.23,61.69Z"/><polygon class="cls-22" points="0 147.3 27.89 163.63 33.77 159.93 5.87 143.6 0 147.3"/><polygon class="cls-20" points="33.77 133.46 33.77 156.69 27.89 160.38 27.89 137.16 33.77 133.46"/><polygon class="cls-19" points="0 120.84 27.89 137.16 33.77 133.46 5.87 117.14 0 120.84"/><polygon class="cls-17" points="27.9 160.38 0.01 144.06 0.01 120.84 27.9 137.16 27.9 160.38"/><polygon class="cls-20" points="0 120.84 13.95 140.61 27.89 137.16 0 120.84"/><path class="cls-23" d="M22.58,125.35v4.57a.78.78,0,0,1-.49.73.81.81,0,0,1-.27,0,.72.72,0,0,1-.76-.74v-4.57a1.2,1.2,0,0,0-.6-1l-7-4.09a.49.49,0,0,0-.51,0l-.1.08,0,0a.53.53,0,0,0-.12.35v3.45a.81.81,0,0,1-.48.72.88.88,0,0,1-.29.07.74.74,0,0,1-.76-.75v-3.45a2.05,2.05,0,0,1,1-1.8,1.54,1.54,0,0,1,.5-.2,1.9,1.9,0,0,1,1.54.19l7,4.09A2.66,2.66,0,0,1,22.58,125.35Z"/><polygon class="cls-24" points="15.53 139.75 15.53 142.12 15 142.45 15 140.08 15.53 139.75"/><polygon class="cls-25" points="12.15 138.41 15 140.08 15.53 139.75 12.68 138.08 12.15 138.41"/><polygon class="cls-26" points="15 142.45 12.15 140.78 12.15 138.41 15 140.08 15 142.45"/><path class="cls-27" d="M22.58,125.35v4.57a.78.78,0,0,1-.49.73v-4.59a3.08,3.08,0,0,0-.68-2.27l-8.68-5.05a1.9,1.9,0,0,1,1.54.19l7,4.09A2.66,2.66,0,0,1,22.58,125.35Z"/><path class="cls-27" d="M12.84,120.35a.53.53,0,0,0-.12.35v3.45a.81.81,0,0,1-.48.72v-3.52A1.21,1.21,0,0,1,12.84,120.35Z"/><path class="cls-28" d="M102.22,141.58l108.55,62.67-75.85,43.08a5.66,5.66,0,0,1-5.62,0L27.84,188.73a2.84,2.84,0,0,1,0-4.92Z"/><path class="cls-17" d="M213.32,105.77V186.9l-2.55,1.41-106-64.08L103.37,43s1.74-.95,2.38-1.32a2.11,2.11,0,0,1,2.16,0l102.58,59.22A5.66,5.66,0,0,1,213.32,105.77Z"/><path class="cls-18" d="M210.77,107.18v81.13L102.22,125.64V44.88a2.1,2.1,0,0,1,3.15-1.82l102.57,59.22A5.66,5.66,0,0,1,210.77,107.18Z"/><polygon class="cls-29" points="205.5 105.86 205.5 179.97 105.37 122.3 105.37 48.19 205.5 105.86"/><polygon class="cls-30" points="190.43 101.84 190.43 109.63 133.72 76.97 133.72 69.17 190.43 101.84"/><polygon class="cls-31" points="135.28 75.65 135.28 72.19 188.86 103.06 188.86 106.52 135.28 75.65"/><path class="cls-32" d="M172.75,139.62l19.51,11.32a1.15,1.15,0,0,0,1.84-.92V127.23a1.65,1.65,0,0,0-.84-1.39l-19.51-11.32a1.15,1.15,0,0,0-1.84.92v22.79A1.67,1.67,0,0,0,172.75,139.62Z"/><g class="cls-33"><line class="cls-34" x1="192.63" y1="129.91" x2="173.38" y2="118.79"/><line class="cls-34" x1="192.63" y1="132.31" x2="173.38" y2="121.19"/><line class="cls-34" x1="192.63" y1="134.71" x2="173.38" y2="123.59"/><line class="cls-34" x1="192.63" y1="137.12" x2="173.38" y2="125.99"/><line class="cls-34" x1="192.63" y1="139.52" x2="173.38" y2="128.4"/><line class="cls-34" x1="192.63" y1="141.92" x2="173.38" y2="130.8"/><line class="cls-34" x1="192.63" y1="144.33" x2="173.38" y2="133.2"/><line class="cls-34" x1="192.63" y1="146.73" x2="178.31" y2="138.46"/></g><path class="cls-17" d="M102.22,128.75l108.55,59.56v3.11l-75.85,43.07a5.61,5.61,0,0,1-5.62,0L27.84,175.9a2.8,2.8,0,0,1-1.41-2.44c0-1,0-3.14,0-3.14Z"/><path class="cls-35" d="M102.22,125.64l108.55,62.67-75.85,43.07a5.64,5.64,0,0,1-5.62,0L27.84,172.79a2.84,2.84,0,0,1,0-4.92Z"/><polygon class="cls-36" points="63.43 158.48 104.43 135.2 194.1 186.97 153.11 210.25 63.43 158.48"/><path class="cls-37" d="M157.87,173.28l-3.73-2.15,4.49-2.55,3.72,2.15Zm18,12.5L97.7,140.62l-4.48,2.55,78.21,45.15ZM157.54,168l-3.73-2.15-4.48,2.55,3.72,2.15Zm-4.81-2.77L149,163l-4.49,2.55,3.73,2.15Zm-43.33-25L104,137l-4.48,2.55,5.41,3.12ZM172,176.29l-3.73-2.15-4.48,2.55,3.73,2.15Zm4.81,2.78-3.72-2.15-4.49,2.55,3.73,2.15Zm-9.62-5.56-3.73-2.15L159,173.91l3.73,2.15ZM119,145.72l-3.73-2.15-4.48,2.55,3.73,2.15Zm4.81,2.78-3.72-2.15-4.49,2.55,3.73,2.15Zm24.07,13.9-3.73-2.16-4.48,2.55,3.73,2.15Zm-37.42-21.61L106,143.34l3.72,2.15,4.49-2.55Zm18.17,10.49-3.73-2.15-4.48,2.54,3.72,2.16Zm4.81,2.78-3.73-2.15-4.48,2.54,3.73,2.16Zm9.63,5.56-3.73-2.16L134.89,160l3.72,2.15Zm-4.82-2.78-3.72-2.15-4.49,2.54,3.73,2.15Zm43.93,25.36-4.33-2.5-4.49,2.54,4.34,2.51Zm-31.57,18-4.39,2.49,7.29,4.21,4.48-2.55L150.55,200Zm-1-2.78,10.21,5.9,4.48-2.55-10.21-5.9ZM76,157l-3.49-2-4.49,2.55,3.5,2Zm77,35.14,13.13,7.58,4.49-2.54-13.14-7.59Zm-3.34,7.37L145.43,197,141,199.59l4.22,2.44Zm33.65-16.65-4.49,2.54,6.19,3.57,4.48-2.55ZM172.51,189l6.19,3.58,4.49-2.55L177,186.4Zm-9.83,1.54,9.73,5.62,4.49-2.55-9.73-5.62ZM86.32,168.05l4.49-2.54L77.12,157.6l-4.49,2.55Zm9.74.49-4.17-2.41-4.48,2.55,4.16,2.4Zm70,18.78L91.41,144.21l-4.48,2.54,74.67,43.11ZM153,194.21,78.83,151.38l-4.48,2.54,74.18,42.83Zm3.37-5.27L85.12,147.79l-4.48,2.55,71.26,41.14ZM139,193.31l-31.33-18.08-4.48,2.54,31.33,18.09Zm-37.66-21.74-4.17-2.41-4.48,2.55,4.16,2.4Zm43,24.85-4.28-2.48-4.49,2.55,4.29,2.47ZM106.56,174.6l-4.17-2.41-4.48,2.55,4.16,2.41Z"/><path class="cls-38" d="M84.06,173.51l23.2,13.39a.64.64,0,0,1,0,1.1l-12.87,7.3a1.88,1.88,0,0,1-1.88,0L69.31,181.9a.63.63,0,0,1,0-1.09l12.86-7.31A1.9,1.9,0,0,1,84.06,173.51Z"/><path class="cls-17" d="M107.26,187.35,84.06,174a1.93,1.93,0,0,0-1.89,0l-12.86,7.3a.62.62,0,0,0-.27.33.61.61,0,0,1,.27-.77l12.86-7.31a1.9,1.9,0,0,1,1.89,0l23.2,13.39a.63.63,0,0,1,.27.77A.6.6,0,0,0,107.26,187.35Z"/><line class="cls-39" x1="155.43" y1="74.13" x2="162.08" y2="77.97"/><path class="cls-17" d="M165.23,79.42c.16.35,0,.63-.35.63a1.09,1.09,0,0,1-.91-.63c-.16-.35,0-.64.35-.64A1.1,1.1,0,0,1,165.23,79.42Z"/><polygon class="cls-40" points="168.99 95.94 187.33 103.89 187.33 108.82 187.33 174.93 129.24 209.17 112.98 189.42 168.99 95.94"/><path class="cls-17" d="M143.61,173.25l20.3,11.9,0-.26a4.47,4.47,0,0,1-1.86-3.69v-3c0-2.12-1-5.71-2.51-6.75a5.5,5.5,0,0,0-.81-.47h0a6.1,6.1,0,0,0-6,.44C151.38,172.29,144.68,172.15,143.61,173.25Z"/><path class="cls-21" d="M187.33,103.59l-51.1-29.46-9.78,5.6h0A6,6,0,0,0,123.31,85v59.51a10.59,10.59,0,0,1-1.3,5.07l-13.26-7.7a5.16,5.16,0,0,0-.88-.51h0a6,6,0,0,0-2.78-.57,6.18,6.18,0,0,0-3.21,1,21.08,21.08,0,0,0-9.65,17.57v.16a20.14,20.14,0,0,1-8.49,16.32l-12,8.53L122.59,214l12-8.52a19.92,19.92,0,0,0,8.5-16.33V189a20.79,20.79,0,0,1,2.37-9.6,21.38,21.38,0,0,1,7.27-8,6.1,6.1,0,0,1,6-.44h0a4,4,0,0,1,.84.57c2.19,2,2.48,4.54,2.48,6.66v3a4.58,4.58,0,0,0,7.22,3.73h0c4.15-2.59,4.84-7.25,4.84-10.81V114.57a6,6,0,0,1,3.39-5.39h0Z"/><path class="cls-41" d="M187.33,103.59l-51.1-29.46-9.78,5.6h0A6,6,0,0,0,123.31,85v59.51a10.59,10.59,0,0,1-1.3,5.07l-13.26-7.7a5.16,5.16,0,0,0-.88-.51h0a6,6,0,0,0-2.78-.57,6.18,6.18,0,0,0-3.21,1,21.08,21.08,0,0,0-9.65,17.57v.16a20.14,20.14,0,0,1-8.49,16.32l-12,8.53L122.59,214l12-8.52a19.92,19.92,0,0,0,8.5-16.33V189a20.79,20.79,0,0,1,2.37-9.6,21.38,21.38,0,0,1,7.27-8,6.1,6.1,0,0,1,6-.44h0a4,4,0,0,1,.84.57c2.19,2,2.48,4.54,2.48,6.66v3a4.58,4.58,0,0,0,7.22,3.73h0c4.15-2.59,4.84-7.25,4.84-10.81V114.57a6,6,0,0,1,3.39-5.39h0Z"/><path class="cls-21" d="M125.73,160.59l-2.33-1.35A4.48,4.48,0,0,0,125.73,160.59Z"/><polygon class="cls-20" points="71.75 184.4 71.75 184.9 122.59 214.44 122.59 213.97 71.75 184.4"/><path class="cls-42" d="M161.16,166.91h0Z"/><path class="cls-26" d="M156.22,129.93l15.85,9.2a.37.37,0,0,0,.54-.32V119.74a.93.93,0,0,0-.47-.81l-16-9.3a.29.29,0,0,0-.43.25V129A1.07,1.07,0,0,0,156.22,129.93Z"/><path class="cls-43" d="M124.72,102.25l29.65,17.23a.16.16,0,0,0,.24-.15v-1.06a.27.27,0,0,0-.14-.24L124.8,100.8a.16.16,0,0,0-.24.14v1A.32.32,0,0,0,124.72,102.25Z"/><path class="cls-44" d="M124.72,99.14l29.65,17.23a.16.16,0,0,0,.24-.15v-1.06a.27.27,0,0,0-.14-.24L124.8,97.69a.16.16,0,0,0-.24.14v1A.32.32,0,0,0,124.72,99.14Z"/><path class="cls-45" d="M124.72,105.36l29.65,17.23a.16.16,0,0,0,.24-.14v-1.07a.27.27,0,0,0-.14-.24L124.8,103.91a.16.16,0,0,0-.24.14v1A.32.32,0,0,0,124.72,105.36Z"/><path class="cls-46" d="M124.72,108.47l29.65,17.23a.16.16,0,0,0,.24-.14v-1.07a.27.27,0,0,0-.14-.24L124.8,107a.16.16,0,0,0-.24.14v1A.32.32,0,0,0,124.72,108.47Z"/><path class="cls-47" d="M124.72,111.58l29.65,17.23a.16.16,0,0,0,.24-.14V127.6a.27.27,0,0,0-.14-.24L124.8,110.13a.16.16,0,0,0-.24.14v1A.32.32,0,0,0,124.72,111.58Z"/><path class="cls-48" d="M154.47,148.29l-9-5.19a.13.13,0,0,0-.2.11v1.07a.37.37,0,0,0,.18.31l8.89,5.15a.16.16,0,0,0,.24-.15v-1.06A.28.28,0,0,0,154.47,148.29Z"/><path class="cls-49" d="M124.56,131.21v1a.32.32,0,0,0,.16.28l19.1,11.12a.16.16,0,0,0,.24-.15v-1a.34.34,0,0,0-.16-.3l-19.09-11.1A.17.17,0,0,0,124.56,131.21Z"/><path class="cls-50" d="M124.72,129.4l31.66,18.4a.16.16,0,0,0,.24-.14V146.6a.29.29,0,0,0-.14-.24L124.8,128a.16.16,0,0,0-.24.14v1A.32.32,0,0,0,124.72,129.4Z"/><path class="cls-51" d="M124.72,126.29l29.65,17.23a.16.16,0,0,0,.24-.15v-1.06a.27.27,0,0,0-.14-.24L124.8,124.84a.16.16,0,0,0-.24.14v1A.32.32,0,0,0,124.72,126.29Z"/><path class="cls-52" d="M124.72,123.18l29.65,17.23a.16.16,0,0,0,.24-.15V139.2a.27.27,0,0,0-.14-.24L124.8,121.73a.16.16,0,0,0-.24.14v1A.32.32,0,0,0,124.72,123.18Z"/><path class="cls-53" d="M124.72,144.49l29.65,17.23a.16.16,0,0,0,.24-.14v-1.06a.27.27,0,0,0-.14-.24L124.8,143a.16.16,0,0,0-.24.15v1A.3.3,0,0,0,124.72,144.49Z"/><path class="cls-54" d="M124.53,147.31l34.58,20c.13.08.17,0,.18-.06h0c0-.24,0-.48,0-.73v-.4a.34.34,0,0,0-.1-.25l0,0-34.56-20a.16.16,0,0,0-.23.13c0,.28-.06.56-.1.83A.45.45,0,0,0,124.53,147.31Z"/><path class="cls-55" d="M123.77,149.67l34.71,20.09a.27.27,0,0,0,.38-.15c.08-.25.14-.51.2-.77a.32.32,0,0,0-.14-.34l-34.76-20.11a.18.18,0,0,0-.26.1c-.08.25-.17.49-.27.73A.36.36,0,0,0,123.77,149.67Z"/><path class="cls-56" d="M124.72,141.38l29.65,17.23a.16.16,0,0,0,.24-.14v-1.06a.27.27,0,0,0-.14-.24L124.8,139.93a.16.16,0,0,0-.24.15v1A.3.3,0,0,0,124.72,141.38Z"/><path class="cls-57" d="M124.72,138.27l29.65,17.23a.16.16,0,0,0,.24-.14v-1.07a.27.27,0,0,0-.14-.23L124.8,136.82a.16.16,0,0,0-.24.15v1A.3.3,0,0,0,124.72,138.27Z"/><path class="cls-58" d="M154.47,151l-12.23-7.09a.11.11,0,0,0-.16.1v1.18a.21.21,0,0,0,.11.19l12.18,7.06a.16.16,0,0,0,.24-.14v-1.07A.24.24,0,0,0,154.47,151Z"/><path class="cls-59" d="M124.56,133.85v1a.32.32,0,0,0,.16.27l15.92,9.27a.14.14,0,0,0,.2-.12v-1.14a.22.22,0,0,0-.12-.19l-15.91-9.27A.17.17,0,0,0,124.56,133.85Z"/><path class="cls-60" d="M157.71,151.63,172.05,160a.16.16,0,0,0,.24-.14v-1.07a.28.28,0,0,0-.13-.24l-14.36-8.34a.16.16,0,0,0-.24.15v1A.32.32,0,0,0,157.71,151.63Z"/><path class="cls-61" d="M157.71,148.52l14.34,8.34a.16.16,0,0,0,.24-.15v-1.06a.28.28,0,0,0-.13-.24l-14.36-8.34a.16.16,0,0,0-.24.15v1A.32.32,0,0,0,157.71,148.52Z"/><path class="cls-62" d="M157.71,145.78l14.34,8.33a.16.16,0,0,0,.24-.14v-5a.28.28,0,0,0-.13-.24l-14.36-8.34a.16.16,0,0,0-.24.15v5A.33.33,0,0,0,157.71,145.78Z"/><path class="cls-63" d="M157.71,163.62l12.38,7.2a.16.16,0,0,0,.24-.14v-1.07a.24.24,0,0,0-.14-.23l-12.39-7.22a.16.16,0,0,0-.24.15v1A.35.35,0,0,0,157.71,163.62Z"/><path class="cls-64" d="M157.71,160.51l14.34,8.33a.16.16,0,0,0,.24-.14v-1.07a.28.28,0,0,0-.13-.23l-14.36-8.35a.16.16,0,0,0-.24.15v1A.35.35,0,0,0,157.71,160.51Z"/><path class="cls-65" d="M157.71,157.4l14.34,8.33a.16.16,0,0,0,.24-.14v-1.07a.26.26,0,0,0-.13-.23l-14.36-8.35a.16.16,0,0,0-.24.15v1A.35.35,0,0,0,157.71,157.4Z"/><path class="cls-66" d="M157.71,154.28l14.34,8.34a.16.16,0,0,0,.24-.14v-1.07a.28.28,0,0,0-.13-.24l-14.36-8.34a.16.16,0,0,0-.24.15v1A.32.32,0,0,0,157.71,154.28Z"/><path class="cls-67" d="M124.56,115.29v1a.32.32,0,0,0,.16.27L151.15,132a.21.21,0,0,0,.32-.19v-.9a.39.39,0,0,0-.19-.34l-26.47-15.42A.17.17,0,0,0,124.56,115.29Z"/><path class="cls-68" d="M124.72,120l47.65,27.74a.16.16,0,0,0,.24-.15v-1.06a.27.27,0,0,0-.14-.24L124.8,118.55a.16.16,0,0,0-.24.14v1A.32.32,0,0,0,124.72,120Z"/><path class="cls-69" d="M159.7,171.62c1.4,1,2.37,4.53,2.38,6.57V180a.2.2,0,0,0,.11.18l5.73,3.32a.26.26,0,0,0,.24,0,10.71,10.71,0,0,0,2.27-2.13,9.93,9.93,0,0,0,.67-.93s0,0,0,0c1.28-2.17,1.33-7,1-7.16L161.5,167a.67.67,0,0,0-.31-.1c-.12,0-.25.05-.29.4v.05h0A10.87,10.87,0,0,1,159.7,171.62Z"/><path class="cls-70" d="M162.08,180.89v.26a4.08,4.08,0,0,0,.06.71l3.71,2.1a1.43,1.43,0,0,0,1.29,0l.24-.1Z"/><path class="cls-71" d="M122,170.67,141.49,182a.67.67,0,0,0,1-.4,21.8,21.8,0,0,1,1.54-3.82,21.38,21.38,0,0,1,7.27-8,6.49,6.49,0,0,1,1.63-.76.36.36,0,0,0,.08-.65l-3.09-1.8-10.66-6.23-5.43-3.17a1.93,1.93,0,0,0-1.39-.23,6.58,6.58,0,0,0-2.08.88,21.31,21.31,0,0,0-7.26,8,20.62,20.62,0,0,0-1.51,3.71A1,1,0,0,0,122,170.67Z"/><path class="cls-72" d="M103.82,143.07l18.4,10.72,6,3.48a.36.36,0,0,0,.36,0l.35-.23a3.91,3.91,0,0,1,.59-.34l0,0c.08,0,0-.1,0-.12h0l-7.36-4.28-16.93-9.88a6.4,6.4,0,0,0-1.34.66Z"/><path class="cls-73" d="M101.68,144.67a.19.19,0,0,0,0,.3l20.58,12,3.59,2.09a.36.36,0,0,0,.43-.05l.43-.37a.36.36,0,0,0,0-.6l-4.48-2.61-19.45-11.33a.35.35,0,0,0-.41,0C102.13,144.29,101.9,144.48,101.68,144.67Z"/><path class="cls-74" d="M99.89,147.05l24,14a.4.4,0,0,0,.52-.1l.41-.45a.29.29,0,0,0-.06-.45l-1.35-.79L100.7,146a.46.46,0,0,0-.54.07c-.12.13-.24.25-.35.38A.37.37,0,0,0,99.89,147.05Z"/><path class="cls-75" d="M98.08,149.13l24.14,14.07a.42.42,0,0,0,.56-.14c.1-.15.2-.3.31-.44a.33.33,0,0,0-.1-.48l-24.09-14a.41.41,0,0,0-.54.11c-.13.17-.25.33-.36.5A.28.28,0,0,0,98.08,149.13Z"/><path class="cls-76" d="M96.61,151.41h0l24.28,14.14a.38.38,0,0,0,.53-.17c.06-.13.13-.26.2-.39l.09-.17a.24.24,0,0,0-.06-.33s0,0,0,0L97.22,150.26a.17.17,0,0,0-.23.06q-.24.41-.45.81v0A.21.21,0,0,0,96.61,151.41Z"/><path class="cls-77" d="M95.49,153.9l24.61,14.33a.14.14,0,0,0,.2-.08c.1-.32.21-.63.33-1a.16.16,0,0,0-.06-.2L96,152.69a.15.15,0,0,0-.22.08c-.13.31-.25.62-.36.94A.16.16,0,0,0,95.49,153.9Z"/><path class="cls-78" d="M94.37,158.29a.42.42,0,0,0,.21.42L141.42,186a.16.16,0,0,0,.24-.14v-1.06a.27.27,0,0,0-.14-.24L94.78,157.33a.2.2,0,0,0-.3.15C94.43,157.75,94.4,158,94.37,158.29Z"/><path class="cls-79" d="M94.19,162a.32.32,0,0,0,.16.31l47.07,27.37a.11.11,0,0,0,.08,0,.17.17,0,0,0,.16-.17v-1.06a.33.33,0,0,0,0-.14.32.32,0,0,0-.1-.1L94.51,161a.19.19,0,0,0-.28.16C94.23,161.42,94.21,161.73,94.19,162Z"/><path class="cls-80" d="M93.67,165.42a.36.36,0,0,0,.16.41L140.57,193a.21.21,0,0,0,.3-.13c.08-.28.16-.56.22-.85a.26.26,0,0,0-.12-.29L94.16,164.51a.22.22,0,0,0-.32.16C93.79,164.92,93.73,165.17,93.67,165.42Z"/><path class="cls-81" d="M92.63,168.51a.38.38,0,0,0,.16.48l46.6,27.11a.21.21,0,0,0,.29-.09c.12-.25.23-.51.35-.76a.29.29,0,0,0-.12-.35L93.24,167.76a.24.24,0,0,0-.35.13C92.81,168.1,92.72,168.3,92.63,168.51Z"/><path class="cls-82" d="M91.07,171.47a.24.24,0,0,0,.08.34l46.59,27.1a.22.22,0,0,0,.29-.07l.48-.71a.24.24,0,0,0-.07-.32l-46.6-27.1a.28.28,0,0,0-.37.11Z"/><path class="cls-83" d="M89.09,174.08a.24.24,0,0,0,0,.35l46.48,27a.23.23,0,0,0,.28,0l.6-.64a.23.23,0,0,0-.05-.35L90,173.42a.33.33,0,0,0-.42.08C89.43,173.7,89.26,173.89,89.09,174.08Z"/><path class="cls-84" d="M111.33,190.71a.25.25,0,0,0,0,.41L133,203.71a.24.24,0,0,0,.26,0l.77-.59a.19.19,0,0,0,0-.31l-21.7-12.61a.36.36,0,0,0-.42,0Z"/><path class="cls-17" d="M177.54,109.19a6,6,0,0,0-3.39,5.38v59.51c0,5.56-1.83,8.81-4.85,10.81a4.58,4.58,0,0,1-7.22-3.73v-3c0-2-.25-4.14-1.61-5.71a5.75,5.75,0,0,0-4.8-2,8.81,8.81,0,0,0-4.26,1.88,20.28,20.28,0,0,0-7.7,11.87c-.84,3.86-.53,7.94-1.81,11.68-1.47,4.27-4.86,7.61-8.46,10.34-2.22,1.68-10.85,7.75-10.85,7.75l0,.39s7.06-4.9,10.53-7.44,7-5.85,8.7-9.8c2.13-5,1.28-10.45,3-15.56a18.61,18.61,0,0,1,7.52-9.39c1.53-1,3.22-1.83,5-1.36a5.45,5.45,0,0,1,3.3,3.06,15.5,15.5,0,0,1,1.09,6.46c0,1.71.23,3.45,1.7,4.55a4.87,4.87,0,0,0,5.92.42,8.73,8.73,0,0,0,3.41-3.49c1.92-3.05,1.67-8.38,1.67-8.38s.09-58.17.09-58.91a5.69,5.69,0,0,1,3-5l9.79-5.65v-.31Z"/><text class="cls-85" transform="matrix(1, 0.58, 0, 1, 126.33, 95.53)">P<tspan class="cls-86" x="4.46" y="0">ROFILE</tspan></text><path class="cls-21" d="M161.18,119.4a5.47,5.47,0,0,0,2.63,4.15c1.46.83,2.64.33,2.64-1.12a5.46,5.46,0,0,0-2.64-4.15C162.36,117.45,161.18,118,161.18,119.4Z"/><path class="cls-21" d="M157.86,126.71l11.9,6.85c0-3.29-2.66-7.46-5.95-9.35a4.82,4.82,0,0,0-4.21-.68A3.16,3.16,0,0,0,157.86,126.71Z"/><polygon class="cls-26" points="158 132.38 158.57 133.84 159.83 134.76 158.92 135.12 159.13 136.5 158 135.25 156.88 135.2 157.09 134.06 156.18 132.65 157.44 133.19 158 132.38"/><polygon class="cls-26" points="162.9 135.22 163.47 136.69 164.73 137.6 163.82 137.96 164.03 139.34 162.9 138.1 161.78 138.04 161.99 136.91 161.08 135.49 162.34 136.03 162.9 135.22"/><polygon class="cls-26" points="167.8 138.06 168.37 139.53 169.63 140.44 168.72 140.8 168.93 142.18 167.8 140.94 166.67 140.88 166.89 139.75 165.98 138.33 167.24 138.88 167.8 138.06"/><g class="cls-87"><path class="cls-88" d="M143.75,51.92a1.2,1.2,0,0,1-.36-.13L121.83,39.38A1.68,1.68,0,0,1,121,38V18.66a.81.81,0,0,1,.44-.75,1,1,0,0,1,.93.06l21.52,12.39a1.69,1.69,0,0,1,.86,1.42V51.12a.8.8,0,0,1-.43.73A.9.9,0,0,1,143.75,51.92Z"/></g><polygon class="cls-26" points="132.46 28.86 134.1 33.15 137.79 35.81 135.12 36.87 135.75 40.9 132.46 37.27 129.16 37.09 129.79 33.79 127.13 29.66 130.81 31.25 132.46 28.86"/><path class="cls-89" d="M199.94,81c.55,1.25,0,2.26-1.25,2.26A3.94,3.94,0,0,1,195.43,81c-.56-1.24,0-2.25,1.25-2.25A4,4,0,0,1,199.94,81Z"/><path class="cls-90" d="M241,181c.55,1.25,0,2.26-1.25,2.26a4,4,0,0,1-3.27-2.26c-.55-1.24,0-2.25,1.26-2.25A4,4,0,0,1,241,181Z"/><path class="cls-89" d="M94.91,45.09c.56,1.24,0,2.25-1.25,2.25a4,4,0,0,1-3.26-2.25c-.55-1.25,0-2.26,1.25-2.26A3.94,3.94,0,0,1,94.91,45.09Z"/><line class="cls-91" x1="154.14" y1="43.03" x2="154.14" y2="47.15"/><line class="cls-91" x1="156.07" y1="46.07" x2="152.21" y2="43.85"/><line class="cls-92" x1="217.26" y1="64.06" x2="217.26" y2="68.19"/><line class="cls-92" x1="219.19" y1="67.11" x2="215.32" y2="64.89"/><line class="cls-91" x1="107.57" y1="27.14" x2="107.57" y2="31.26"/><line class="cls-91" x1="109.51" y1="30.19" x2="105.64" y2="27.96"/><line class="cls-93" x1="254.31" y1="172.21" x2="254.31" y2="176.33"/><line class="cls-93" x1="256.25" y1="175.25" x2="252.38" y2="173.03"/><line class="cls-93" x1="235.97" y1="139.52" x2="235.97" y2="143.64"/><line class="cls-93" x1="237.9" y1="142.57" x2="234.04" y2="140.34"/><path class="cls-94" d="M230.3,216.52l39.35,22.72a2.32,2.32,0,0,1,0,4l-58.21,33.6a6.89,6.89,0,0,1-6.86,0l-39.7-22.55a2.32,2.32,0,0,1,0-4l58.53-33.79A6.93,6.93,0,0,1,230.3,216.52Z"/><path class="cls-17" d="M230.31,206l40.51,23.14v1.59a2.3,2.3,0,0,1-1.16,2l-58.21,33.61a6.93,6.93,0,0,1-6.87,0l-39.7-22.54a2.32,2.32,0,0,1-1.17-2c0-.8,0-1.64,0-1.64L223.4,206A6.93,6.93,0,0,1,230.31,206Z"/><path class="cls-18" d="M230.3,204.39l39.35,22.72a2.32,2.32,0,0,1,0,4l-58.21,33.61a6.91,6.91,0,0,1-6.86,0l-39.7-22.54a2.32,2.32,0,0,1,0-4l58.53-33.8A6.93,6.93,0,0,1,230.3,204.39Z"/><polygon class="cls-95" points="225.59 207.68 263.54 229.59 210.15 260.42 171.88 238.68 225.59 207.68"/><ellipse class="cls-96" cx="211.95" cy="237.59" rx="12.78" ry="22.59" transform="translate(-52.98 414.17) rotate(-81.95)"/><path class="cls-97" d="M203.87,229.51c7-1.88,16.36.2,20.81,4.66s2.38,9.61-4.66,11.49-16.35-.2-20.81-4.66S196.84,231.4,203.87,229.51Z"/><path class="cls-98" d="M206.89,232.53c4.41-1.18,10.24.12,13,2.92s1.49,6-2.92,7.2-10.25-.13-13-2.92S202.48,233.71,206.89,232.53Z"/><polygon class="cls-26" points="207.76 233.42 211.74 235.28 215.42 234.36 215 237.21 218.33 239.68 214.09 239.58 212.46 242.03 210.25 239.11 205.92 238.16 208.8 236.46 207.76 233.42"/><path class="cls-99" d="M184.43,254.91v-1.59l8.74-5.37a.72.72,0,0,0,.25-.16,1.58,1.58,0,0,0,.48-.65,2.14,2.14,0,0,0,.11-.92l2.94-1.83.14-.08.11-.12a15.79,15.79,0,0,0,6.45,1.1c5.63-.17,10.15-2.9,10.31-6.17h0v-.28h0L213.9,237v-.08c-.16-3.37-4.91-6-10.66-5.78s-10.4,3.07-10.3,6.46l0,1.84a4.62,4.62,0,0,0,1.93,3.41l-2.21,1.38a1.63,1.63,0,0,0-.88-.17,1.88,1.88,0,0,0-.45.12l-.07,0-.09.06,0,0s0,0,0,0L180.33,251v1.59Z"/><path class="cls-17" d="M191.76,232.44a3.84,3.84,0,0,0,.15.95c.88,3.06,5.48,5.3,11,5.13s9.95-2.66,10.65-5.76c.07-.32.09-2.92.09-2.92s-2.87-5.71-11.11-5.6c-5,.07-10.74,6.24-10.74,6.24S191.74,231.82,191.76,232.44Zm1.73-.05a3.62,3.62,0,0,1,.72-2.2c1.37-1.94,4.56-3.35,8.32-3.46s7,1.11,8.5,3a3.58,3.58,0,0,1,.84,2.16c.09,3-4,4.13-9,4.28S193.58,235.36,193.49,232.39Z"/><path class="cls-100" d="M193.07,230.48c.09,3,4.45,5.38,9.74,5.22s9.5-2.74,9.41-5.78-4.45-5.38-9.74-5.22S193,227.44,193.07,230.48Z"/><path class="cls-101" d="M197.14,225.76c9.54.21,12.4,4.91,13.2,7.56a4.25,4.25,0,0,0,1.88-3.4c-.09-3-4.42-5.27-9.71-5.11A15.82,15.82,0,0,0,197.14,225.76Z"/><path class="cls-102" d="M194,230.6c.08,2.69,3.94,4.75,8.62,4.62s8.4-2.43,8.32-5.12a1.69,1.69,0,0,0,0-.23c-.26,2.52-3.85,4.6-8.31,4.73s-8.31-1.8-8.6-4.37A2.3,2.3,0,0,0,194,230.6Z"/><path class="cls-17" d="M192.73,228.59,195.2,226l7.16-1.77,7.24,1.35,2.63,2.42.68,1.52-1,.36s-1.22-4.92-9.48-4.68-9.2,5.23-9.2,5.23l-1.06-.3Z"/><path class="cls-103" d="M191.76,230.48a3.92,3.92,0,0,0,.15,1c.88,3.06,5.48,5.29,11,5.13s9.95-2.66,10.65-5.77a3.91,3.91,0,0,0,.09-1c-.1-3.54-5.08-6.27-11.11-6.09S191.66,226.94,191.76,230.48Zm1.73,0a3.64,3.64,0,0,1,.72-2.2c1.37-1.93,4.56-3.35,8.32-3.46s7,1.11,8.5,3a3.61,3.61,0,0,1,.84,2.16c.09,3-4,5.51-9,5.66S193.58,233.41,193.49,230.43Z"/><path class="cls-21" d="M191.76,230.48a3.92,3.92,0,0,0,.15,1c.88,3.06,5.48,5.29,11,5.13s9.95-2.66,10.65-5.77a3.91,3.91,0,0,0,.09-1c-.1-3.54-5.08-6.27-11.11-6.09S191.66,226.94,191.76,230.48Zm1.73,0a3.64,3.64,0,0,1,.72-2.2c1.37-1.93,4.56-3.35,8.32-3.46s7,1.11,8.5,3a3.61,3.61,0,0,1,.84,2.16c.09,3-4,5.51-9,5.66S193.58,233.41,193.49,230.43Z"/><path class="cls-104" d="M190.45,238.06l.21.31h0l.94,1.38.24.36,4.1-2.56h0l.15-.09a.9.9,0,0,0,.29-.4,1,1,0,0,0,.06-.25h0a1.46,1.46,0,0,0-.13-.81,1.38,1.38,0,0,0-.71-.7.93.93,0,0,0-.46-.07.77.77,0,0,0-.27.07l0,0-.06,0h0Z"/><path class="cls-21" d="M190.45,238.06l.21.31h0l4.94-3.07a.93.93,0,0,0-.46-.07.77.77,0,0,0-.27.07l0,0-.06,0h0Z"/><path class="cls-17" d="M191.6,239.75l.24.36,4.1-2.56h0l.15-.09a.9.9,0,0,0,.29-.4,1,1,0,0,0,.06-.25Z"/><path class="cls-105" d="M177.38,245.23l.6,1.05,1.53,2.7,12.5-7.72h0a1.17,1.17,0,0,0,.26-.17,1.57,1.57,0,0,0,.5-.68,2.4,2.4,0,0,0-.13-1.86,2.56,2.56,0,0,0-.42-.63h0a2,2,0,0,0-1.62-.7,1.51,1.51,0,0,0-.46.13l-.08,0-.09.06,0,0s0,0,0,0Z"/><path class="cls-106" d="M177.38,245.23l.6,1.05,1.5-.45,12.74-7.91h0a2,2,0,0,0-1.62-.7,1.51,1.51,0,0,0-.46.13l-.08,0-.09.06,0,0s0,0,0,0Z"/><path class="cls-107" d="M176.75,247.94a2,2,0,0,0,2.5,1.2h0a1,1,0,0,0,.26-.16,1.63,1.63,0,0,0,.5-.68,2.4,2.4,0,0,0-.13-1.86,2.15,2.15,0,0,0-2-1.34,1.51,1.51,0,0,0-.46.13l-.08,0-.09.06,0,0A2.08,2.08,0,0,0,176.75,247.94Z"/><path class="cls-21" d="M213.61,220.13l12.45,7.16c4-3,3.29-5.41.61-7.25C222.44,217.14,217.58,217.83,213.61,220.13Z"/><g class="cls-108"><path class="cls-17" d="M239.75,235.34a.41.41,0,0,1-.19-.05l-12.23-7.13a.38.38,0,0,1-.13-.52.37.37,0,0,1,.52-.14l12.22,7.12a.4.4,0,0,1,.14.53A.39.39,0,0,1,239.75,235.34Z"/><path class="cls-17" d="M241.15,234.53a.32.32,0,0,1-.19-.05l-12.23-7.12a.39.39,0,0,1-.14-.52.38.38,0,0,1,.53-.14l12.22,7.12a.39.39,0,0,1,.14.52A.37.37,0,0,1,241.15,234.53Z"/><path class="cls-17" d="M242.55,233.73a.37.37,0,0,1-.2,0l-12.22-7.12a.39.39,0,0,1,.39-.67L242.74,233a.38.38,0,0,1-.19.71Z"/><path class="cls-17" d="M244,232.93a.46.46,0,0,1-.2-.05l-12.22-7.13a.38.38,0,0,1,.38-.66l12.23,7.13a.38.38,0,0,1-.19.71Z"/><path class="cls-17" d="M245.34,232.13a.45.45,0,0,1-.19,0L232.93,225a.39.39,0,0,1-.14-.52.38.38,0,0,1,.52-.14l12.23,7.13a.39.39,0,0,1,.14.52A.4.4,0,0,1,245.34,232.13Z"/></g><path class="cls-21" d="M231.33,214.94a4.57,4.57,0,0,0-4.93.79,2.06,2.06,0,0,0,.71,3.51,4.59,4.59,0,0,0,4.93-.78A2.08,2.08,0,0,0,231.33,214.94Z"/><polygon class="cls-25" points="108.33 80.13 108.33 97.63 106.46 98.67 90.16 86.4 87.61 70.3 89.47 69.27 108.33 80.13"/><polygon class="cls-24" points="108.33 80.13 108.33 97.63 106.46 98.67 90.16 86.4 106.46 81.16 108.33 80.13"/><polygon class="cls-26" points="106.46 81.16 106.46 98.67 87.61 87.81 87.61 70.3 106.46 81.16"/><polyline class="cls-109" points="92.35 82.61 94.9 87.66 102.25 82.28"/><path class="cls-110" d="M54.84,190.93s2.26.41,2.76,0,2.66-2.47,3-2.77a28.77,28.77,0,0,1,5-1.34c.35,0,1.89.16,1.86.38a34.06,34.06,0,0,1-3,3c-.31.25-1.28,1-1.43,1.54s-1.56,2.16-2.58,2.23a8.23,8.23,0,0,1-1.25-.07l-5,.71"/><path class="cls-111" d="M69.55,183.17a6.71,6.71,0,0,1-1.5,1.21,3.76,3.76,0,0,1-.8.15,12.2,12.2,0,0,0-3.5,1,9.33,9.33,0,0,0-2.06,2.39.27.27,0,0,0,0,.15.23.23,0,0,0,.08.14c.49.45,1.14,0,1.51-.4.2-.21.89-.78,1-.62a5.65,5.65,0,0,1-1.13,3.22c-.7.79-2.66,1.66-2.32,2.05.13.15.53.27,1.27.1a5.77,5.77,0,0,0,2.85-.5,10.54,10.54,0,0,0,2.17-2.15c.47-.52.84-1.21,1.5-1.87A24.41,24.41,0,0,1,71,186.45Z"/><path class="cls-21" d="M74,141.21c-4.32.4-5.53,2.55-6.28,4.11-1.5,3.13-.77,7.57-.72,9.38.19,6.42.83,12.83,1.47,19.22q.6,6.14,1.21,12.26a2.28,2.28,0,0,0,.18.77,1.45,1.45,0,0,0,2.11.23,4,4,0,0,0,1.14-2.08,29,29,0,0,0,1.61-10.25c-.22-3.61-1.55-7-2.17-10.61-.81-4.69-.38-9.6-1.79-14.14"/><path class="cls-112" d="M72.73,153.23c.24,1.07-4.1-1.09-3.9,0,.17.94,1,13.42,1.14,14.94.29,2.53-.62,5.88-.4,8.41a18.76,18.76,0,0,0,.74,4.22,1.84,1.84,0,0,0,1,1.27,1.3,1.3,0,0,0,.78,0c1.09-.29,1.72-1.39,2.22-2.39"/><path class="cls-113" d="M99.14,244.73c-2.89-6-9.66-9.61-15.5-12.15a32.72,32.72,0,0,0-8.92-2.29c-3-.39-6.28-.41-8.79,1.29s-3.59,5.69-1.42,7.8c1,1,2.39,1.33,3.6,2,2.38,1.33,3.9,3.76,5.52,6a28.31,28.31,0,0,0,8.28,7.82,16.19,16.19,0,0,0,11,2.2,9.22,9.22,0,0,0,6.08-3.7C100.72,251.06,100.49,247.53,99.14,244.73Z"/><path class="cls-114" d="M94.44,240.55s-.3,1.23-.48,2.26-.23,2.35-.35,3.44a14.72,14.72,0,0,1-1.6,4.33,4.25,4.25,0,0,1-2.28,1.63,7.49,7.49,0,0,1-3.51-.07,1.68,1.68,0,0,1-.9-.9"/><path class="cls-114" d="M67.57,236.57c0,.68,1,1.15,2.05,1.24a10.39,10.39,0,0,0,3.36-.47,17,17,0,0,0,2.61-1,3.4,3.4,0,0,1,1.91-.17s0,.12,0,.24a8.79,8.79,0,0,0,4.67-.78h0s0-.53,0-1-.09-1-.09-1l-14.52,2.42Z"/><path class="cls-115" d="M84.91,250.08c0,.13,0,.25,0,.37a1.83,1.83,0,0,0,1.26,1.47,5.41,5.41,0,0,0,5.12-1.13c1.25-1.35,2.13-4.82,2.13-6.9a9.23,9.23,0,0,1,1.09-4H88.91a.94.94,0,0,0-.14.19c-1,1.36-3.51,6.55-3.76,8.22A8.68,8.68,0,0,0,84.91,250.08Z"/><path class="cls-116" d="M84.91,250.08a.22.22,0,0,0,0-.14,27.92,27.92,0,0,1,2.23-5.32l2-3.87-.38-.67c-1,1.36-3.51,6.55-3.76,8.22A8.68,8.68,0,0,0,84.91,250.08Z"/><path class="cls-117" d="M85,250.45a1.84,1.84,0,0,0,1.25,1.47,5.43,5.43,0,0,0,5.13-1.13c1.25-1.35,2.13-4.82,2.13-6.9a9.23,9.23,0,0,1,1.09-4h-2.3l-.18,1.19s-.07,4.83-1.21,7.22a4.6,4.6,0,0,1-4.15,2.82c-.92-.06-1.49-.18-1.75-.66A0,0,0,0,0,85,250.45Z"/><path class="cls-115" d="M67.56,236.35a.9.9,0,0,0,.51.72,8,8,0,0,0,4.14,0c1.21-.29,3.46-1.35,4.64-1.48s3.5-.33,4.08-.49a1.63,1.63,0,0,0,1.31-1.61,3.54,3.54,0,0,0-.43-2l-.94.06-5.49.35h-.13l-2.8,1c-.9.31-2.77.6-4,1.75a3.51,3.51,0,0,0-.5.55h0A1.72,1.72,0,0,0,67.56,236.35Z"/><path class="cls-116" d="M68,235.17a12.29,12.29,0,0,1,4.31-1.74c1.55-.4,3-.88,3-.88s0-.3.07-.69h-.13l-2.8,1c-.9.31-2.77.6-4,1.75A3.51,3.51,0,0,0,68,235.17Z"/><path class="cls-117" d="M67.56,236.34a.91.91,0,0,0,.51.73,8.05,8.05,0,0,0,4.14,0c1.21-.3,3.46-1.36,4.64-1.48s3.5-.33,4.08-.5a1.63,1.63,0,0,0,1.31-1.6,3.63,3.63,0,0,0-.43-2l-.94.05,0,.3s.86,1.2.29,2.1-2.71.77-4,.92-3.18,1.22-5,1.53-4,.57-4.61,0Z"/><path class="cls-106" d="M71.79,201.86c.23.92.41,1.82.56,2.68a.18.18,0,0,1,0,.05c.15.85.27,1.66.38,2.42,0,0,0,.05,0,.08s0,.22.06.42.06.39.09.57c.24,1.56.67,4.78,1.06,9.16v.1c.16,1.46.29,3.43.41,5.52,0,.48.05,1,.07,1.46.14,2.74.24,5.53.31,7.57a1.41,1.41,0,0,0,.75,1.21,2.49,2.49,0,0,0,1.2.32,8.51,8.51,0,0,0,2.94-.39,6.11,6.11,0,0,0,1.65-.84,1.55,1.55,0,0,0,.63-1.32c-.05-1.73-.16-6.31,0-10.9.22-5.81.67-16.76.67-16.76l-2-18.34-3.8-.85c.19-1.07.41-2.29.56-3.15.11-.66.19-1.12.19-1.12H70.07s0,.11,0,.31C70,182,69.58,193,71.79,201.86Z"/><path class="cls-118" d="M71.79,201.86c.23.92.41,1.82.56,2.68-.07-.63-.75-6.69-1.06-9.78-.33-3.27.2-13.49.2-13.49l-1.43-1.21C70,182,69.58,193,71.79,201.86Z"/><path class="cls-105" d="M75,182.59A114.13,114.13,0,0,0,77.77,204c1.55,6.57,1.86,19.66,1.88,29a6,6,0,0,0,1.65-.84,1.55,1.55,0,0,0,.63-1.32c-.05-1.73-.16-6.31,0-10.9.22-5.81.68-16.76.68-16.76l-2-18.34L76.78,184c.2-1.07.41-2.29.56-3.15Z"/><path class="cls-106" d="M78.27,183.5a83.64,83.64,0,0,0,4.37,27.89h0a51.58,51.58,0,0,1,1.85,5c.42,1.64,2.31,18.17,2.76,22.16a4.26,4.26,0,0,0,.63,1.83,3.44,3.44,0,0,0,3.46,1.86,8.47,8.47,0,0,0,1.5-.3,11.28,11.28,0,0,0,1.93-.78,1.45,1.45,0,0,0,.79-1.33c-.13-4.28-.69-23-1-25.36a140.36,140.36,0,0,1-2.78-19,11.31,11.31,0,0,1,.47-4.52,12.14,12.14,0,0,0,.12-7.37l-1.11.42c0-1,.06-1.45.06-1.45h-.36l-13,.28Z"/><path class="cls-105" d="M86.72,191.42c-.39,3.71,3.85,20.22,4.3,24.46S92.84,242,92.84,242h0a11.28,11.28,0,0,0,1.93-.78,1.45,1.45,0,0,0,.79-1.33c-.13-4.28-.69-23-1-25.36a140.36,140.36,0,0,1-2.78-19,11.31,11.31,0,0,1,.47-4.52,12.14,12.14,0,0,0,.12-7.37l-1.11.42c0-1,.06-1.45.06-1.45h-.36c-2.36,1.31-4.37,2.56-4.37,2.56A22.09,22.09,0,0,1,86.72,191.42Z"/><path class="cls-119" d="M92.4,183.29a6.89,6.89,0,0,1,.21,1,.47.47,0,0,1-.21.48,13.47,13.47,0,0,1-2.81,1.34,14.66,14.66,0,0,1-6,.64c-.73-.07-7.94-1.66-12.25-4.38a3.22,3.22,0,0,1-1.43-3.26v0C70.05,178.25,92.4,183.29,92.4,183.29Z"/><path class="cls-21" d="M70.94,164.17c0,.79,0,1.6.07,2.4a26.67,26.67,0,0,1-.39,5.35c-.27,1.5-.58,3.33-.79,4.66-.41,2.64.3,4.55,1.62,5.34l0,0a36,36,0,0,0,11.72,4.3c.42.08.84.13,1.27.17a10.78,10.78,0,0,0,2.72-.12,7.22,7.22,0,0,0,1.1-.24l.34-.1a4.73,4.73,0,0,0,1.14-.53,3.41,3.41,0,0,0,2-2.91c.18-1.63-.65-3.63-1-5.22-1.06-5.21,1.62-9.87,3.1-14.67.68-2.23,1.35-4.47,1.9-6.73a13.89,13.89,0,0,0,.69-4.42s0-.06,0-.09a5.51,5.51,0,0,0-.24-1,7.87,7.87,0,0,0-2.14-2.66,24.7,24.7,0,0,0-2.9-2.2l-.1-.07a21,21,0,0,0-2.22-1.28c-.75-.38-1.7-.81-3-1.34-.48-.19-1-.36-1.48-.51-.92-.29-1.87-.52-2.83-.72-1.48-.31-3-.55-4.41-.82-.25,0-.49,0-.74,0a35.19,35.19,0,0,0-5.17,1.06s-1.55,2.91-2.41,4.62C67.38,149.17,70.17,159.21,70.94,164.17Z"/><path class="cls-112" d="M94.56,150.48c-2.19-3.76-7.68-5.6-8.64-5.91-3,4.34-6.36,4.44-6.36,4.44l-.15-1.87-.94.69-.63,10-1.09-2.52.83-8.55,3.2-4.09,3.53-.42c.5.15,1,.32,1.48.51a29.57,29.57,0,0,1,4.22,2l.09.06.34.2.38.24.24.15.1.07a24.7,24.7,0,0,1,2.9,2.2h0a7.76,7.76,0,0,1,2.14,2.65l.06.18a8.27,8.27,0,0,1,.18.84h0C97,154.42,95.2,154.35,94.56,150.48Z"/><path class="cls-112" d="M77.86,145.6A10.43,10.43,0,0,0,76.54,147c-.39.52-.66,1.1-1,1.62a7.46,7.46,0,0,1-.06-1.64,11.22,11.22,0,0,1,.12-1.74,8.23,8.23,0,0,1,1.17-3.1c.18.16.19.42.28.64s.46.6.57,1,0,.8.12,1.17"/><path class="cls-110" d="M85.06,137.5v4S81,144.4,78.84,144c-.93-.19-1.41-1.37-1.22-3l2-.4Z"/><path class="cls-21" d="M78.36,143.75l-2.31,2.71s-.09-3.26,1.45-4.92,1.57-.22,1.57-.22S77.65,143,78.36,143.75Z"/><path class="cls-111" d="M73.84,132.21a22.93,22.93,0,0,0,.36,6.37c.69,3,.89,3.73,2.12,4.27s2.33.59,4.39-.73a10.34,10.34,0,0,0,3.19-3.48s.29.19,1-.64a4.44,4.44,0,0,0,1.37-3.71A12.3,12.3,0,0,0,84.49,128c-1.38-2.31-5.6-1.57-7.51-.59A6.33,6.33,0,0,0,73.84,132.21Z"/><path class="cls-120" d="M72.18,132.36c2.1,3.72,7.35,1.27,7.35,1.27.39,1.62,1.52,1.77,2.06,2.07s.66,1.86.66,1.86h.5A11.58,11.58,0,0,1,83,135.2a1.4,1.4,0,0,1,2.46-.24c.66,1-.1,2.18-.54,3a3.94,3.94,0,0,0,.13,1.92,6.45,6.45,0,0,0,1.34-2.41,16.78,16.78,0,0,0,0-8.63,4.07,4.07,0,0,0-.43-1c-1.61-2.72-6.21-3.25-8-2.63-1.55.53-5.4,2.28-6.12,4.77A3,3,0,0,0,72.18,132.36Z"/><path class="cls-106" d="M72,206.59l.09.57Q72.07,206.82,72,206.59Z"/><path class="cls-106" d="M71.94,206.09s0,0,0,.08A.73.73,0,0,0,71.94,206.09Z"/><path class="cls-121" d="M88.27,159.81a25.14,25.14,0,0,0,.69-5.63c-.11-2.23-1.35-.23-1.47,1.59a43.49,43.49,0,0,1-1.19,5.77"/><path class="cls-21" d="M85.06,141.06a3.66,3.66,0,0,1,.44.83,7,7,0,0,1,.29.92,10.76,10.76,0,0,1-6.23,4.89L79,144S83,143.46,85.06,141.06Z"/><path class="cls-112" d="M87.55,172.55c-.09-.44-.15-.7-.15-.7l2.79-3s.46,4.77.63,6.36,2.1,6.62,2,8.39-5.64,2.73-5.64,2.73a19.84,19.84,0,0,0,1.42-6.54,32.88,32.88,0,0,0-.56-4.63c-.16-.89-.19-3.59-1.36-3.64a2.44,2.44,0,0,0-.88.19c-1.51.51-3.6,2.86-5.08,3.44s-3.39,2.4-4.55,1.06c1.19-1.58,4.77-5.69,5.06-6.17s5.49-12.35,6.38-13.86c.57,3.46,1,7.74,1.62,11.2"/><path class="cls-106" d="M79,144l.37,2.63L78.1,147.7l-1.36-.43-.07-1.55,1.69-2A1.17,1.17,0,0,0,79,144Z"/><path class="cls-106" d="M78.08,148.29c0-.2,0-.39,0-.59l-1.35-.44s-.94,5.19-1,5.58c-.78,4.83-1.47,9.68-2.13,14.53L73,172a1.39,1.39,0,0,0,.07.64l1.38,3.61a19.09,19.09,0,0,0,3.38-3.57C77.79,172,77.88,154.89,78.08,148.29Zm-3,9.11h0C75.09,157.46,75.08,157.47,75.08,157.4Z"/><path class="cls-122" d="M72.18,132.36c2.1,3.72,7.35,1.27,7.35,1.27.39,1.62,1.52,1.77,2.06,2.07s.66,1.86.66,1.86h.5A11.58,11.58,0,0,1,83,135.2a1.4,1.4,0,0,1,2.46-.24c.66,1-.1,2.18-.54,3a3.94,3.94,0,0,0,.13,1.92,6.45,6.45,0,0,0,1.34-2.41,16.78,16.78,0,0,0,0-8.63,4.07,4.07,0,0,0-.43-1,25.54,25.54,0,0,1-6.08,3.93c-3.3,1.39-5.85,1.09-6.68.38A3.16,3.16,0,0,1,71.85,130h0A3,3,0,0,0,72.18,132.36Z"/><path class="cls-21" d="M87.49,155.77c-1.7,5.14-3.06,10.46-5.9,15.52-5.22,4.22-9.07,8.81-13.2,12.72.79,1.48.77,2.35,1.56,3.84,1.2-.29,11.53-7.57,15.84-10.36s5.58-5.29,7.56-10c1.82-4.34,3.35-11.38,3.09-16.08"/><path class="cls-112" d="M96.44,151.38l-1.56.2c0,4.63-2.26,11.88-3.93,15.88-2,4.74-3.25,7.23-7.56,10-3.38,2.19-10.45,7.13-13.92,9.3a7.87,7.87,0,0,0,.48,1.06c1.2-.29,11.53-7.57,15.84-10.36s5.58-5.29,7.56-10C95.17,163.12,96.7,156.08,96.44,151.38Z"/><path class="cls-110" d="M61.27,188.77A14.29,14.29,0,0,0,63,188a10.39,10.39,0,0,1,2.09-.52.9.9,0,0,1-.5,1.24,12.07,12.07,0,0,0-1.3.74A7,7,0,0,1,60,192.3"/><path class="cls-123" d="M64.54,188.76c-.42.28-.83.56-1.25.82l0,0a6.29,6.29,0,0,1-1.41,1.71A4.8,4.8,0,0,1,60,192.3a8.25,8.25,0,0,0,3.18-2.85v0h0C63.63,189.18,64.08,189,64.54,188.76Z"/><path class="cls-123" d="M61.39,188.56c.23.05.45-.12.66-.21a6.54,6.54,0,0,1,.66-.28,8.37,8.37,0,0,1,1.41-.38,8.19,8.19,0,0,1-1.31.61c-.23.07-.45.14-.69.23A.93.93,0,0,1,61.39,188.56Z"/><path class="cls-124" d="M55.31,191.11l1.14-.18s.74.49.88.94a4.91,4.91,0,0,1-.07,2.46l-3.6,1.07"/><path class="cls-125" d="M24.45,176.92s9,10.79,10.91,11.17,20.39,2.84,20.39,2.84a1.81,1.81,0,0,1,1.15,1.39,7.17,7.17,0,0,1-.54,2.66S37,197.26,35.28,196.81s-18-14.41-18-14.41"/><path class="cls-125" d="M35.83,194.28c-1.43-.38-12.8-10-16.67-13.3l-1.85,1.42s16.24,13.95,18,14.41S56.36,195,56.36,195s.18-.46.34-1C54.77,194,37.47,194.71,35.83,194.28Z"/><path class="cls-126" d="M56.28,276.63a35.67,35.67,0,0,0,.67-6.26c.09-3.61-.81-7.45-4.82-8.09-6.29-1-13-.18-19.21.8-5.17.81-11.91.81-16.12,4.32-6.47,5.41,1.9,12.28,6.4,15.37,8.63,5.93,21.13,13.46,29.35,2.58A21.35,21.35,0,0,0,56.28,276.63Z"/><path class="cls-114" d="M21.37,278.09v.05a.32.32,0,0,0,0,.07.24.24,0,0,1,0,.08,2.38,2.38,0,0,0,2.12,1.59l.3,0,.12,0a11.52,11.52,0,0,0,1.19,0l.39,0a9.46,9.46,0,0,0,3.77-2.05l.12-.11v-.32s1.14-.77,1.56-1c1.28-.76,3.12-1.4,4.87-2.27a5,5,0,0,0,1.23-.83l.17-.17a.32.32,0,0,0,.1-.1l.11-.15c.07-.1.14-.19.19-.28l.08-.14.06-.13a.78.78,0,0,0,0-.14h0a2.11,2.11,0,0,0,.1-.66v-1.15l-10.68,4.38L21.41,277Z"/><path class="cls-115" d="M27.73,270.12a42.12,42.12,0,0,0,4.71-.58c2.91-.5,4.92-.64,5.3.27s.45,1.82-2.15,3.6-4.62,2-6.71,3.65a7.28,7.28,0,0,1-4.49,1.65,3,3,0,0,1-2.94-1.12c-.79-1.48,0-4.26,0-4.26"/><path class="cls-114" d="M31.88,279.79v1.44a1.37,1.37,0,0,0,.74,1.25,1.78,1.78,0,0,0,.63.18,21.77,21.77,0,0,0,4.59-.22v-.54l3.91-.47a17.37,17.37,0,0,0,6-1.8,1.31,1.31,0,0,0,.7-1.16v-1.06l-11.48,2Z"/><path class="cls-115" d="M39.93,274.7a4.67,4.67,0,0,0,2.78,1.21c1.51,0,4.44,0,5.19.48a1.25,1.25,0,0,1,.58.94,1.88,1.88,0,0,1-.39,1.17c-.57.82-4.36,2.06-7.22,2.29a42.9,42.9,0,0,0-4.36.41,6.63,6.63,0,0,1-3.61-.09c-1.47-.73-1.57-2.95-.67-4.42S39.93,274.7,39.93,274.7Z"/><path class="cls-111" d="M24.35,168.43l-.23.54.35,1.79,5.71,2.88.34,0,.91-.11,1.44-.19v-2a2.6,2.6,0,0,1,1.48-2.41l.07,0a2.94,2.94,0,0,0,1-.65l.08-.09c1.1-1.16,2.08-3.78,1.8-9.52a11,11,0,0,0-.74-3.62c-.83-1.6-2.59-2.65-6.23-1.65-6.06,1.68-8.71,4.43-9,6.81S24.35,168.43,24.35,168.43Z"/><path class="cls-110" d="M32.87,173.29v-2a2.6,2.6,0,0,1,1.48-2.41c-.3.13-1.22.57-2.44,1.23-.49.26-.48,1.84-.48,3.34Z"/><path class="cls-127" d="M42.07,183.51l12.1,6.22,5.52-17.67a1.34,1.34,0,0,0-.64-1.58l-10.12-5.19a1,1,0,0,0-1.36.6Z"/><path class="cls-128" d="M42.86,183.13l10.78,5.57,5.14-16.41c.2-.75.17-1.07-.59-1.45L48.75,166a.43.43,0,0,0-.61.27Z"/><path class="cls-129" d="M52.5,173.9l3.34,1.73a.17.17,0,0,0,.23-.1l.92-3.06a.18.18,0,0,0-.08-.2l-3.35-1.73a.16.16,0,0,0-.22.1l-.93,3.06A.18.18,0,0,0,52.5,173.9ZM50,181.63,52.63,183a.14.14,0,0,0,.18-.08l2-6.49a.14.14,0,0,0-.07-.16l-2.59-1.34A.12.12,0,0,0,52,175l-2,6.49A.14.14,0,0,0,50,181.63Zm-1.51-5.82,2,1a.1.1,0,0,0,.13-.06l0-.13a.09.09,0,0,0,0-.12l-2-1a.11.11,0,0,0-.14.06l0,.13A.11.11,0,0,0,48.53,175.81Zm1.64,1.68a.17.17,0,0,0,.24-.1l.06-.23a.19.19,0,0,0-.09-.21l-3.52-1.82a.17.17,0,0,0-.24.11l0,.22a.18.18,0,0,0,.09.22m-.2.65L50,178.15a.17.17,0,0,0,.24-.11l.06-.22a.19.19,0,0,0-.09-.22l-3.51-1.81a.17.17,0,0,0-.24.1l-.06.23A.18.18,0,0,0,46.46,176.33Zm-.2.66,3.52,1.81a.16.16,0,0,0,.23-.1l.06-.23a.18.18,0,0,0-.09-.21l-3.51-1.82a.17.17,0,0,0-.24.11l-.06.22A.19.19,0,0,0,46.26,177Zm-.2.66,3.52,1.81a.17.17,0,0,0,.24-.11l0-.22a.18.18,0,0,0-.09-.22l-3.51-1.81a.17.17,0,0,0-.24.1l-.06.23A.21.21,0,0,0,46.06,177.65Zm-.2.65,3.52,1.81a.17.17,0,0,0,.24-.1l.05-.23a.17.17,0,0,0-.09-.21l-3.51-1.82a.17.17,0,0,0-.24.11l0,.23A.18.18,0,0,0,45.86,178.3Zm2-6.42,3.66,1.89a.18.18,0,0,0,.25-.11l1-3.35a.19.19,0,0,0-.09-.23L49,168.19a.17.17,0,0,0-.24.11l-1,3.35A.21.21,0,0,0,47.83,171.88Z"/><path class="cls-111" d="M51.59,186.15l1.95,1.63.37.31a6.35,6.35,0,0,1,1.23-2.59,5.24,5.24,0,0,1,1.51-.68,1.17,1.17,0,0,0,.65-.43,4.75,4.75,0,0,0,.65-3.65,2.09,2.09,0,0,0-.25-.83h0c-.24-.41-.54-.4-.54-.4l-1.7,1.22c-.31.23-.71.68-1,.34-.17-.17.79-1.39,1.06-1.94s-.25-1.16-.47-1a13.39,13.39,0,0,0-2.12,3.36C52.35,183,51.59,186.15,51.59,186.15Z"/><path class="cls-110" d="M53.09,186.39l.45,1.39.37.31a6.35,6.35,0,0,1,1.23-2.59,5.24,5.24,0,0,1,1.51-.68,1.17,1.17,0,0,0,.65-.43,4.75,4.75,0,0,0,.65-3.65,2.09,2.09,0,0,0-.25-.83h0s0,.34-.55.82a13.69,13.69,0,0,1-1.72,1.16,5.15,5.15,0,0,0-1.33,2C53.73,184.76,53.09,186.39,53.09,186.39Z"/><path class="cls-124" d="M54.27,188l.34-1.09a.86.86,0,0,0,0-.63,5.41,5.41,0,0,0-.89-1.38,1.35,1.35,0,0,0-1.64-.26,2.41,2.41,0,0,0-.42.82,3,3,0,0,0-.09,1c0,.07.73,1.06.81,1.15A18.16,18.16,0,0,0,54.27,188Z"/><path class="cls-106" d="M18.5,222.69c1.35,7.39,2.32,16.55,2.32,16.55s-2.26,18.36.28,34.34c.11.75.38,2.35,1.35,3a3.6,3.6,0,0,0,3.13,0l.14-.07c3.79-2.07,3.39-4.76,3.94-6.52,0-7.11-.76-24.6.75-28.45L31.77,226l-.5-11.09H17.71v0l-.07,0S16.48,217.88,18.5,222.69Z"/><path class="cls-105" d="M22.64,223c1.28,4.2,2.92,15.16,3.27,17.84,0,0-1.26,21.11-.19,35.63,3.79-2.07,3.39-4.76,3.94-6.52,0-7.11-.76-24.6.75-28.45L31.77,226l-.5-11.09H21.94A20.52,20.52,0,0,0,22.64,223Z"/><path class="cls-106" d="M23.51,218.56a21.83,21.83,0,0,0,2.93,7.09c.26.39.49.79.72,1.19,0,.19.71,2.67,1.53,6s1.82,7.51,2.53,11.07c-.4,4.46-1.5,20.08.6,33.6a2.49,2.49,0,0,0,1.78,2,4.46,4.46,0,0,0,1.5.16,3.73,3.73,0,0,0,1.25-.3c2.22-.93,3.82-4.49,3.82-4.49s.06-22.46,1.22-28.36a24.6,24.6,0,0,0,.41-3.41c.22-3.61.61-10.19.73-12.95a113.38,113.38,0,0,0,.09-11.85l-11.12.14Z"/><path class="cls-105" d="M31.5,218.47l.1,1.1a27.7,27.7,0,0,0,1.52,7c1.42,4.2,2.82,14.16,3,17.89.15,3.43-1.67,19.8-1,35.24a3.73,3.73,0,0,0,1.25-.3c2.22-.93,3.82-4.49,3.82-4.49s.06-22.46,1.22-28.36a24.6,24.6,0,0,0,.41-3.41c.22-3.61.61-10.19.73-12.95a113.38,113.38,0,0,0,.09-11.85Z"/><path class="cls-130" d="M16.33,187.22c1.79,5.44,2.79,14.38,1.71,18.11a67.32,67.32,0,0,0-1.71,9c1,2.8,10.49,8.87,15.78,9.33a7.89,7.89,0,0,0,1.94-.07c4.66-.69,9-4.83,9-4.83s-1-15.32-1.63-25.11a56.3,56.3,0,0,0-2-12.56c-.3-1-.5-1.47-.5-1.47a21.91,21.91,0,0,0-4.36-3.39l0,0c-1.43-.95-3-2-4.69-2.92h0c-2.17-1.29-4.36-2.49-6.12-3.37l-.58-.28a15.26,15.26,0,0,0-2.7-1.1c-2.49-.46-5.83.85-6.84,5.37S14.54,181.77,16.33,187.22Z"/><path class="cls-125" d="M34.61,205.27c.32,4.18-.32,14.61-.56,18.34,4.66-.69,9-4.83,9-4.83s-1-15.32-1.63-25.11a56.3,56.3,0,0,0-2-12.56c-.5-.58-.83-.94-.83-.94H32.48s-3.19.65-2,7.92S34.23,200.13,34.61,205.27Z"/><path class="cls-112" d="M23.11,172c.93,1.28,4.28,3.12,5.82,3.45a13.58,13.58,0,0,0,3.51.15,4.57,4.57,0,0,1,2.11.67l0,0h0l-.91-1.39-1.07-.68s-1.55-.57-1.9-.73a3.89,3.89,0,0,0-.87-.15h0c-.92-.11-2.25-.2-2.45-.23a28.81,28.81,0,0,1-2.8-1.76c-.06,0-.53-.82-.87-1.38l-.58-.28A1.78,1.78,0,0,0,23.11,172Z"/><path class="cls-120" d="M19.68,160.37c.53,3.12,3.17,8,4.5,8.46a7.54,7.54,0,0,0,2.2.42,2.1,2.1,0,0,0,2.17-1.71,10.29,10.29,0,0,1,.9-2.82c.93-1.73,2.16-2.63,2.77-2.31s.55,1.43.55,1.43h.4s0-.35.1-.83.09-1.06.12-1.52a5.31,5.31,0,0,1,1.07-3.23A12.62,12.62,0,0,0,36,155.5a5,5,0,0,0,.38-2.46h0A5.1,5.1,0,0,0,34.17,149c-3-2.21-9.33,1.89-11.66,3.85a8.08,8.08,0,0,0-2.61,3.72h0A8.06,8.06,0,0,0,19.68,160.37Z"/><path class="cls-21" d="M23.54,169.51l.58-.53a13.41,13.41,0,0,0,8.75,4.31,7.54,7.54,0,0,1,1.75,3l-.8-.51a3.61,3.61,0,0,0-1.37-.54c-.32,0-1-.08-1-.08-3.11,0-6.21-2.22-7.84-3.56A1.38,1.38,0,0,1,23.54,169.51Z"/><path class="cls-131" d="M37.64,272.91a1.45,1.45,0,0,1-.19.29C37.52,273.09,37.59,273,37.64,272.91Z"/><path class="cls-131" d="M37.34,273.34s.07-.1.11-.14l-.21.25A.52.52,0,0,0,37.34,273.34Z"/><path class="cls-130" d="M31.81,185.25c.59,3.44,7.14,13.43,7.41,13.83a47.85,47.85,0,0,0,3.27,4.67h0a6,6,0,0,0,2,1.92l.26.06a3.52,3.52,0,0,0,4.13-2.3A73.49,73.49,0,0,0,52.35,196a71.11,71.11,0,0,0,1.95-7.59,2.29,2.29,0,0,0-.24-1.68.75.75,0,0,0-.07-.12c-.36-.61-.87-1.29-1.32-1.36-.82-.12-1,.09-1,.09s-1.5,2.42-2.69,4.28a35,35,0,0,0-2.38,5c-.11.32-.19.5-.19.5-2.16-5-5-11.2-6.14-13.78a4.66,4.66,0,0,0-7.81-1.17.44.44,0,0,1-.09.11,2,2,0,0,0-.31.63h0l0,0C31.94,181.06,31.26,182,31.81,185.25Z"/><path class="cls-122" d="M19.68,160.37c.53,3.12,3.17,8,4.5,8.46a7.54,7.54,0,0,0,2.2.42,2.1,2.1,0,0,0,2.17-1.71,10.29,10.29,0,0,1,.9-2.82c.93-1.73,2.16-2.63,2.77-2.31s.55,1.43.55,1.43h.4s0-.35.1-.83.09-1.06.12-1.52a5.31,5.31,0,0,1,1.07-3.23A12.62,12.62,0,0,0,36,155.5a5,5,0,0,0,.38-2.46,13.82,13.82,0,0,1-9.84,8.09c-7.33,1.54-6.64-4.29-6.59-4.58A8.06,8.06,0,0,0,19.68,160.37Z"/><path class="cls-112" d="M46.62,194.62c-.11.32-.19.5-.19.5a6.84,6.84,0,0,1,.59,3A3.82,3.82,0,0,0,46.62,194.62Z"/><path class="cls-112" d="M32.05,180.92h0s-.22,2.86,2.49,7.64,8.5,16.21,11.36,15.89c1.5-.16,4.82-7.23,6.06-10.53a54.87,54.87,0,0,0,2-7.34.75.75,0,0,1,.07.12,2.29,2.29,0,0,1,.24,1.68A71.11,71.11,0,0,1,52.35,196a73.49,73.49,0,0,1-3.42,7.47,3.52,3.52,0,0,1-4.13,2.29h0l-.26-.06a6,6,0,0,1-2-1.92h0a47.85,47.85,0,0,1-3.27-4.67c-.27-.4-6.82-10.39-7.41-13.83C31.26,182,31.94,181.06,32.05,180.92Z"/></g></g></g></svg>