<svg xmlns="http://www.w3.org/2000/svg" viewBox="0 0 88 69.92"><defs><style>.cls-1{fill:#f4fff3;}.cls-2,.cls-8{fill:none;}.cls-2,.cls-5,.cls-6,.cls-7,.cls-8{stroke:#0e7228;stroke-linejoin:round;}.cls-2,.cls-5{stroke-linecap:round;}.cls-3,.cls-6{fill:#14b241;}.cls-4,.cls-5,.cls-7{fill:#fff;}</style></defs><title>pc cadastro</title><g id="Layer_2" data-name="Layer 2"><g id="Layer_1-2" data-name="Layer 1"><path class="cls-1" d="M84,40.41A40,40,0,1,0,7.56,56.91H80.44A39.79,39.79,0,0,0,84,40.41Z"/><line class="cls-2" x1="5" y1="56.91" x2="83" y2="56.91"/><line class="cls-2" x1="0.5" y1="56.91" x2="3" y2="56.91"/><line class="cls-2" x1="85" y1="56.91" x2="87.5" y2="56.91"/><ellipse class="cls-1" cx="43.43" cy="68.21" rx="14.85" ry="1.71"/><path class="cls-3" d="M66.28,28.27a3.62,3.62,0,0,0-3.62-3.62H25.35a3.62,3.62,0,0,0-3.63,3.61h0V53H66.28Z"/><path class="cls-4" d="M51.49,24.65H25.35a3.62,3.62,0,0,0-3.63,3.61h0V53h1.42Z"/><polygon class="cls-4" points="49.4 63.8 38.6 63.8 39.27 58.4 48.73 58.4 49.4 63.8"/><polygon class="cls-2" points="49.4 63.8 38.6 63.8 39.27 58.4 48.73 58.4 49.4 63.8"/><path class="cls-5" d="M51.73,66.5H36.27a.85.85,0,0,1-.85-.83.8.8,0,0,1,.07-.34,2.7,2.7,0,0,1,2.43-1.53H50.08a2.7,2.7,0,0,1,2.43,1.53.84.84,0,0,1-.44,1.1A.8.8,0,0,1,51.73,66.5Z"/><path class="cls-5" d="M62.65,58.4a3.62,3.62,0,0,0,3.63-3.61h0V53H21.72v1.78a3.62,3.62,0,0,0,3.62,3.62H62.65Z"/><path class="cls-2" d="M66.28,28.27a3.62,3.62,0,0,0-3.62-3.62H25.35a3.62,3.62,0,0,0-3.63,3.61h0V53H66.28Z"/><path class="cls-2" d="M44.6,55.7a.6.6,0,1,1-.6-.6h0A.6.6,0,0,1,44.6,55.7Z"/><path class="cls-6" d="M57.39,43.36A2.4,2.4,0,0,1,55,45.78H33A2.42,2.42,0,0,1,33,41H55A2.41,2.41,0,0,1,57.39,43.36Z"/><path class="cls-7" d="M49.14,41H33a2.42,2.42,0,0,0,0,4.83H49.14Z"/><path class="cls-8" d="M49.14,41H33a2.42,2.42,0,0,0,0,4.83H49.14Z"/><path class="cls-4" d="M36.21,8.51A1.22,1.22,0,0,0,35,9.71a1.2,1.2,0,0,0,.24.75L43,20.55a1.22,1.22,0,0,0,1.71.21,1,1,0,0,0,.21-.21l7.79-10.09a1.23,1.23,0,0,0-.25-1.71,1.18,1.18,0,0,0-.75-.24h-3V2.91A2.41,2.41,0,0,0,46.3.5H41.58a2.41,2.41,0,0,0-2.41,2.41v5.6Z"/><path class="cls-8" d="M36.21,8.51A1.22,1.22,0,0,0,35,9.71a1.2,1.2,0,0,0,.24.75L43,20.55a1.22,1.22,0,0,0,1.71.21,1,1,0,0,0,.21-.21l7.79-10.09a1.23,1.23,0,0,0-.25-1.71,1.18,1.18,0,0,0-.75-.24h-3V2.91A2.41,2.41,0,0,0,46.3.5H41.58a2.41,2.41,0,0,0-2.41,2.41v5.6Z"/></g></g></svg>