<svg xmlns="http://www.w3.org/2000/svg" viewBox="0 0 510.82 67.22"><defs><style>.cls-1{fill:#e5e5e5;}.cls-2{fill:#fff;}</style></defs><title>white logo</title><g id="Layer_2" data-name="Layer 2"><g id="Layer_1-2" data-name="Layer 1"><path class="cls-1" d="M37.42,16a15.31,15.31,0,0,1,6,5.95,17.94,17.94,0,0,1,2.25,9.15A23.22,23.22,0,0,1,42.9,42.55,20.67,20.67,0,0,1,24.5,53.41a18,18,0,0,1-7.77-1.57,11.21,11.21,0,0,1-5.05-4.7l-1.14,5.7H0L10.17,3,21.65,0,18.09,17.8a16.71,16.71,0,0,1,11-3.84A17.19,17.19,0,0,1,37.42,16Zm-8.37,26.6a10.84,10.84,0,0,0,4-4.45,14.45,14.45,0,0,0,1.43-6.55,8.33,8.33,0,0,0-2.32-6.2,8.78,8.78,0,0,0-6.44-2.28,10.65,10.65,0,0,0-5.77,1.61,10.78,10.78,0,0,0-4,4.45,14.42,14.42,0,0,0-1.42,6.55,8.36,8.36,0,0,0,2.28,6.19,8.63,8.63,0,0,0,6.4,2.28A10.76,10.76,0,0,0,29.05,42.62Z"/><path class="cls-1" d="M69.86,15.17A25.53,25.53,0,0,1,78.16,14l-2,10.25c-1.33-.09-2.19-.14-2.57-.14a12.33,12.33,0,0,0-8.08,2.49c-2,1.66-3.38,4.25-4.1,7.76l-3.7,18.52H46.61l7.62-38.31H64.77l-.92,4.55A14.43,14.43,0,0,1,69.86,15.17Z"/><path class="cls-1" d="M116.73,36.67H87.4q.55,7.84,9.89,7.84a16.86,16.86,0,0,0,5.59-.93A14.51,14.51,0,0,0,107.55,41l4.63,7.33a22.29,22.29,0,0,1-7.34,3.85,29.28,29.28,0,0,1-8.69,1.28,24,24,0,0,1-10.36-2.1,15.57,15.57,0,0,1-6.83-6,17,17,0,0,1-2.39-9,22.69,22.69,0,0,1,2.89-11.43,20.62,20.62,0,0,1,8-8A23.4,23.4,0,0,1,99.14,14,21.25,21.25,0,0,1,108.79,16a15,15,0,0,1,6.34,5.91,17.31,17.31,0,0,1,2.24,8.9A29.71,29.71,0,0,1,116.73,36.67ZM92,24.39a11.32,11.32,0,0,0-3.84,5.8h19a7.44,7.44,0,0,0-2.31-5.8,8.93,8.93,0,0,0-6.23-2.1A10.49,10.49,0,0,0,92,24.39Z"/><path class="cls-1" d="M167.23,14.53l-7.62,38.31H149.07l.71-3.78a17.83,17.83,0,0,1-20,2.28,15.41,15.41,0,0,1-6-5.94,18,18,0,0,1-2.24-9.15,23.27,23.27,0,0,1,2.81-11.43,20.78,20.78,0,0,1,7.66-8A20.49,20.49,0,0,1,142.66,14q8.82,0,12.46,5.76l1-5.19ZM147.29,42.62a10.82,10.82,0,0,0,4-4.45,14.45,14.45,0,0,0,1.43-6.55,8.29,8.29,0,0,0-2.32-6.2,8.78,8.78,0,0,0-6.44-2.28,10.69,10.69,0,0,0-9.83,6.06,14.42,14.42,0,0,0-1.42,6.55A8.3,8.3,0,0,0,135,41.94a8.8,8.8,0,0,0,6.45,2.28A10.78,10.78,0,0,0,147.29,42.62Z"/><path class="cls-1" d="M177.27,31.19l13.17,21.65H177.56L168.44,38l-6.76,5.63-1.86,9.26h-11.1l6.59-33.38,11.5-4.93-2.36,15,18.37-15h14.46Z"/><path class="cls-1" d="M202.2,14.67h11l-7.62,38.17h-11Z"/><path class="cls-1" d="M252.42,17.34q3.77,3.38,3.77,9.65a21.81,21.81,0,0,1-.5,4.63l-4.27,21.22H240.31l4.13-20.51a11.54,11.54,0,0,0,.29-2.64,6,6,0,0,0-1.64-4.55,6.84,6.84,0,0,0-4.92-1.57A10.36,10.36,0,0,0,231.09,26a12.73,12.73,0,0,0-3.81,7.37l-3.85,19.44h-11.1l7.61-38.31h10.54l-.85,4.13a17.93,17.93,0,0,1,12.6-4.7Q248.65,14,252.42,17.34Z"/><path class="cls-1" d="M306.58,14.53l-6.34,31.9Q298.11,57.25,292,62.24t-16.27,5a38.59,38.59,0,0,1-10.22-1.28,24.1,24.1,0,0,1-8-3.77l5.27-8.05a16.62,16.62,0,0,0,5.88,3,25.88,25.88,0,0,0,7.58,1.1q5.63,0,8.55-2.46a13,13,0,0,0,4-7.44l.28-1.64A16.56,16.56,0,0,1,277.38,51a18.75,18.75,0,0,1-8.61-2,15,15,0,0,1-6.09-5.59,15.9,15.9,0,0,1-2.25-8.55,20.73,20.73,0,0,1,2.78-10.61,20.34,20.34,0,0,1,7.66-7.55A21.69,21.69,0,0,1,281.8,14a17.63,17.63,0,0,1,7.87,1.67,11,11,0,0,1,5.09,5.16L296,14.53ZM288.35,38.74a10.89,10.89,0,0,0,3.13-8,7,7,0,0,0-2.28-5.52,9.2,9.2,0,0,0-6.33-2,11,11,0,0,0-8.09,3.14,10.83,10.83,0,0,0-3.17,8A6.93,6.93,0,0,0,274,39.84a9.51,9.51,0,0,0,6.41,2A10.81,10.81,0,0,0,288.35,38.74Z"/><path class="cls-2" d="M373.68,15.38,352.54,52.84h-4.92l-6.26-30.62L323.84,52.84H319l-7.34-37.46h4.63l6,31.76,18.09-31.76h4.27L351,47.14l17.8-31.76Z"/><path class="cls-2" d="M414.9,15.38l-7.48,37.46h-4.84l1.21-5.91a19,19,0,0,1-6.41,4.63,20.06,20.06,0,0,1-8.19,1.63,18.13,18.13,0,0,1-8.47-1.92A13.89,13.89,0,0,1,375,45.75a16.6,16.6,0,0,1-2.07-8.44,23.49,23.49,0,0,1,2.75-11.39A20.25,20.25,0,0,1,383.21,18,20.78,20.78,0,0,1,394,15.1a17.7,17.7,0,0,1,9,2.1,12.23,12.23,0,0,1,5.27,6l1.56-7.83ZM398.59,46.46a15.53,15.53,0,0,0,5.8-6.26,19.19,19.19,0,0,0,2.11-9c0-3.66-1.09-6.52-3.24-8.58s-5.19-3.1-9.08-3.1a15.59,15.59,0,0,0-8.34,2.28,15.9,15.9,0,0,0-5.8,6.3,19.18,19.18,0,0,0-2.1,9c0,3.66,1.08,6.5,3.24,8.55s5.19,3.06,9.08,3.06A15.74,15.74,0,0,0,398.59,46.46Z"/><path class="cls-2" d="M419.67,51.91a16.73,16.73,0,0,1-6.3-3.27l2.42-4a16.17,16.17,0,0,0,5.63,3,23.43,23.43,0,0,0,7.33,1.14q5.34,0,8.22-1.75a5.47,5.47,0,0,0,2.89-5,3.63,3.63,0,0,0-1.18-2.84,7.81,7.81,0,0,0-2.88-1.64,50.2,50.2,0,0,0-5-1.28,54,54,0,0,1-6.34-1.71,10,10,0,0,1-4.13-2.71,7.26,7.26,0,0,1-1.71-5.13,10,10,0,0,1,4.41-8.51q4.43-3.17,11.82-3.16a26.31,26.31,0,0,1,7.09,1,17.08,17.08,0,0,1,5.59,2.53l-2.14,4.05a15.67,15.67,0,0,0-5-2.38,21.46,21.46,0,0,0-5.94-.82q-5.13,0-8,1.85a5.7,5.7,0,0,0-2.85,5,4,4,0,0,0,1.21,3,7.74,7.74,0,0,0,3,1.71q1.81.57,4.95,1.21A59.14,59.14,0,0,1,439,33.86a9.84,9.84,0,0,1,4.09,2.67,7.07,7.07,0,0,1,1.71,5,9.84,9.84,0,0,1-4.52,8.59q-4.51,3.09-12.07,3.09A28.38,28.38,0,0,1,419.67,51.91Z"/><path class="cls-2" d="M457.78,41.51a17.62,17.62,0,0,0-.29,2.35c0,3.33,1.81,5,5.41,5a9.38,9.38,0,0,0,5.77-1.92l1.21,3.84a13.4,13.4,0,0,1-8.33,2.42,9.41,9.41,0,0,1-6.66-2.28,8.08,8.08,0,0,1-2.45-6.26,14.12,14.12,0,0,1,.28-2.92l4.34-22.08h-6.62l.78-4.27h6.7l1.64-8.19h5.05L463,15.38h11.4l-.86,4.27H462.12Z"/><path class="cls-2" d="M478.85,35.53a11.21,11.21,0,0,0-.07,1.5c0,3.8,1.08,6.69,3.24,8.69s5.37,3,9.64,3a19.22,19.22,0,0,0,6.95-1.25,13.94,13.94,0,0,0,5.3-3.45l2.28,3.63a17.86,17.86,0,0,1-6.59,4.09,23.75,23.75,0,0,1-8.36,1.46c-5.41,0-9.68-1.42-12.78-4.27s-4.67-6.74-4.67-11.68a23.88,23.88,0,0,1,2.67-11.32A20,20,0,0,1,494.51,15.1q7.49,0,11.9,4.23T510.82,31a23.56,23.56,0,0,1-.5,4.55Zm5.91-12.81a16.68,16.68,0,0,0-5.41,9h26.7a9.61,9.61,0,0,0,.07-1.35c0-3.52-1.07-6.23-3.2-8.16a12.32,12.32,0,0,0-8.55-2.88A14.41,14.41,0,0,0,484.76,22.72Z"/></g></g></svg>