<svg xmlns="http://www.w3.org/2000/svg" xmlns:xlink="http://www.w3.org/1999/xlink" viewBox="0 0 295.56 259.97"><defs><style>.cls-1{isolation:isolate;}.cls-2{fill:#158725;}.cls-2,.cls-24,.cls-48,.cls-59{opacity:0.6;}.cls-2,.cls-24,.cls-47,.cls-48,.cls-5,.cls-58,.cls-59{mix-blend-mode:multiply;}.cls-3{fill:url(#Áåçûìÿííûé_ãðàäèåíò_2);}.cls-4,.cls-5{fill:#195519;}.cls-5{opacity:0.5;}.cls-6{fill:#181019;}.cls-7{fill:url(#Áåçûìÿííûé_ãðàäèåíò_14);}.cls-8{fill:url(#Áåçûìÿííûé_ãðàäèåíò_15);}.cls-9{fill:url(#Áåçûìÿííûé_ãðàäèåíò_14-2);}.cls-10{fill:url(#Áåçûìÿííûé_ãðàäèåíò_15-2);}.cls-11{fill:url(#Áåçûìÿííûé_ãðàäèåíò_14-3);}.cls-12{fill:url(#Áåçûìÿííûé_ãðàäèåíò_15-3);}.cls-13{fill:url(#Áåçûìÿííûé_ãðàäèåíò_14-4);}.cls-14{fill:url(#Áåçûìÿííûé_ãðàäèåíò_15-4);}.cls-15{fill:url(#Áåçûìÿííûé_ãðàäèåíò_14-5);}.cls-16{fill:url(#Áåçûìÿííûé_ãðàäèåíò_11);}.cls-17{fill:url(#Áåçûìÿííûé_ãðàäèåíò_11-2);}.cls-18{fill:url(#Áåçûìÿííûé_ãðàäèåíò_11-3);}.cls-19{fill:url(#Áåçûìÿííûé_ãðàäèåíò_11-4);}.cls-20{fill:url(#Áåçûìÿííûé_ãðàäèåíò_11-5);}.cls-21{fill:url(#Áåçûìÿííûé_ãðàäèåíò_10);}.cls-22{fill:url(#Áåçûìÿííûé_ãðàäèåíò_9);}.cls-23{fill:url(#Áåçûìÿííûé_ãðàäèåíò_146);}.cls-24{fill:#e8a000;}.cls-25{fill:url(#Áåçûìÿííûé_ãðàäèåíò_6);}.cls-26,.cls-40,.cls-54,.cls-67{mix-blend-mode:screen;}.cls-26{fill:url(#Áåçûìÿííûé_ãðàäèåíò_3);}.cls-27{fill:#235c23;}.cls-28{fill:#261626;}.cls-29{fill:#0d4c0d;}.cls-30{fill:url(#Áåçûìÿííûé_ãðàäèåíò_5);}.cls-31{fill:url(#Áåçûìÿííûé_ãðàäèåíò_5-2);}.cls-32{fill:url(#Áåçûìÿííûé_ãðàäèåíò_2-2);}.cls-33{fill:url(#Áåçûìÿííûé_ãðàäèåíò_2-3);}.cls-34{fill:#190f19;}.cls-35{fill:#302030;}.cls-36{fill:#2c0035;}.cls-37{fill:#3b0049;}.cls-38{fill:#490959;}.cls-39{fill:#efefef;}.cls-40{opacity:0.3;fill:url(#Áåçûìÿííûé_ãðàäèåíò_182);}.cls-41{fill:#f7b192;}.cls-42{fill:#fff;}.cls-43{fill:#ffc8b3;}.cls-44{fill:#5b3f2c;}.cls-45{fill:#a7a7a7;}.cls-46{fill:#c7caff;}.cls-47{fill:#d1d3ff;}.cls-47,.cls-58{opacity:0.2;}.cls-48,.cls-60{fill:#bbb;}.cls-49{fill:#a4a4a4;}.cls-50{fill:url(#Áåçûìÿííûé_ãðàäèåíò_8);}.cls-51{fill:#b6b6b6;}.cls-52{fill:#878787;}.cls-53{fill:url(#Áåçûìÿííûé_ãðàäèåíò_222);}.cls-54{fill:url(#Áåçûìÿííûé_ãðàäèåíò_203);}.cls-55{fill:#1c1a18;}.cls-56{fill:#a5a5a5;}.cls-57{fill:#ccc7ff;}.cls-58{fill:#d5d1ff;}.cls-59{fill:#ccc;}.cls-61{fill:url(#Áåçûìÿííûé_ãðàäèåíò_7);}.cls-62{fill:#c8c8c8;}.cls-63{fill:#91c799;}.cls-64{fill:#5eac69;}.cls-65{fill:#bbcdbb;}.cls-66,.cls-67{fill:#d8e2d8;}</style><linearGradient id="Áåçûìÿííûé_ãðàäèåíò_2" x1="138.53" y1="174.29" x2="149.02" y2="174.29" gradientUnits="userSpaceOnUse"><stop offset="0" stop-color="#69b273"/><stop offset="1" stop-color="#add5b3"/></linearGradient><linearGradient id="Áåçûìÿííûé_ãðàäèåíò_14" x1="128.61" y1="142.61" x2="163.96" y2="142.61" gradientUnits="userSpaceOnUse"><stop offset="0" stop-color="#848484"/><stop offset="1" stop-color="#a5a5a5"/></linearGradient><linearGradient id="Áåçûìÿííûé_ãðàäèåíò_15" x1="126.27" y1="133.08" x2="166.29" y2="133.08" gradientTransform="translate(0.38 -0.41) rotate(0.16)" gradientUnits="userSpaceOnUse"><stop offset="0" stop-color="silver"/><stop offset="0.49" stop-color="#d1d1d1"/><stop offset="1" stop-color="#dedede"/></linearGradient><linearGradient id="Áåçûìÿííûé_ãðàäèåíò_14-2" x1="128" y1="136.86" x2="164.55" y2="136.86" xlink:href="#Áåçûìÿííûé_ãðàäèåíò_14"/><linearGradient id="Áåçûìÿííûé_ãðàäèåíò_15-2" x1="126.26" y1="128.15" x2="166.27" y2="128.15" gradientTransform="translate(0.36 -0.41) rotate(0.16)" xlink:href="#Áåçûìÿííûé_ãðàäèåíò_15"/><linearGradient id="Áåçûìÿííûé_ãðàäèåíò_14-3" x1="127.99" y1="131.92" x2="164.53" y2="131.92" xlink:href="#Áåçûìÿííûé_ãðàäèåíò_14"/><linearGradient id="Áåçûìÿííûé_ãðàäèåíò_15-3" x1="126.25" y1="123.21" x2="166.26" y2="123.21" gradientTransform="matrix(1, 0, 0, 1, 0, 0)" xlink:href="#Áåçûìÿííûé_ãðàäèåíò_15"/><linearGradient id="Áåçûìÿííûé_ãðàäèåíò_14-4" x1="127.97" y1="126.98" x2="164.52" y2="126.98" xlink:href="#Áåçûìÿííûé_ãðàäèåíò_14"/><linearGradient id="Áåçûìÿííûé_ãðàäèåíò_15-4" x1="126.23" y1="118.27" x2="166.24" y2="118.27" gradientTransform="matrix(1, 0, 0, 1, 0, 0)" xlink:href="#Áåçûìÿííûé_ãðàäèåíò_15"/><linearGradient id="Áåçûìÿííûé_ãðàäèåíò_14-5" x1="127.96" y1="122.04" x2="164.51" y2="122.04" xlink:href="#Áåçûìÿííûé_ãðàäèåíò_14"/><linearGradient id="Áåçûìÿííûé_ãðàäèåíò_11" x1="126.27" y1="139.83" x2="166.29" y2="139.83" gradientUnits="userSpaceOnUse"><stop offset="0" stop-color="#939393"/><stop offset="1" stop-color="#c4c4c4"/></linearGradient><linearGradient id="Áåçûìÿííûé_ãðàäèåíò_11-2" x1="126.26" y1="134.89" x2="166.28" y2="134.89" xlink:href="#Áåçûìÿííûé_ãðàäèåíò_11"/><linearGradient id="Áåçûìÿííûé_ãðàäèåíò_11-3" x1="126.25" y1="129.95" x2="166.26" y2="129.95" xlink:href="#Áåçûìÿííûé_ãðàäèåíò_11"/><linearGradient id="Áåçûìÿííûé_ãðàäèåíò_11-4" x1="126.23" y1="125.02" x2="166.25" y2="125.02" xlink:href="#Áåçûìÿííûé_ãðàäèåíò_11"/><linearGradient id="Áåçûìÿííûé_ãðàäèåíò_11-5" x1="120.57" y1="113.23" x2="171.83" y2="113.23" xlink:href="#Áåçûìÿííûé_ãðàäèåíò_11"/><linearGradient id="Áåçûìÿííûé_ãðàäèåíò_10" x1="120.57" y1="100.4" x2="171.81" y2="100.4" gradientUnits="userSpaceOnUse"><stop offset="0" stop-color="#d1d1d1"/><stop offset="0.52" stop-color="#dedede"/><stop offset="1" stop-color="#e0e8e0"/></linearGradient><radialGradient id="Áåçûìÿííûé_ãðàäèåíò_9" cx="157.2" cy="113.29" r="29.42" gradientUnits="userSpaceOnUse"><stop offset="0" stop-color="#fff"/><stop offset="1" stop-color="#dedede"/></radialGradient><radialGradient id="Áåçûìÿííûé_ãðàäèåíò_146" cx="171.19" cy="18.86" r="113.8" gradientUnits="userSpaceOnUse"><stop offset="0" stop-color="#f7ff85"/><stop offset="1" stop-color="#fcd72c"/></radialGradient><linearGradient id="Áåçûìÿííûé_ãðàäèåíò_6" x1="147.11" y1="42.85" x2="140.53" y2="101.49" gradientUnits="userSpaceOnUse"><stop offset="0" stop-color="#f9ffaa"/><stop offset="0.5" stop-color="#f7ff85"/><stop offset="1" stop-color="#fbe142"/></linearGradient><linearGradient id="Áåçûìÿííûé_ãðàäèåíò_3" x1="161.31" y1="15.41" x2="136.74" y2="102.88" gradientUnits="userSpaceOnUse"><stop offset="0" stop-color="#ffcd3d"/><stop offset="0.03" stop-color="#f2c33a"/><stop offset="0.25" stop-color="#aa8929"/><stop offset="0.44" stop-color="#6d581a"/><stop offset="0.62" stop-color="#3e320f"/><stop offset="0.78" stop-color="#1c1707"/><stop offset="0.91" stop-color="#070602"/><stop offset="1"/></linearGradient><linearGradient id="Áåçûìÿííûé_ãðàäèåíò_5" x1="198.47" y1="189.41" x2="196.29" y2="193.2" gradientUnits="userSpaceOnUse"><stop offset="0" stop-color="#195519"/><stop offset="1" stop-color="#0d4c0d"/></linearGradient><linearGradient id="Áåçûìÿííûé_ãðàäèåíò_5-2" x1="1254.12" y1="189.22" x2="1251.93" y2="193" gradientTransform="matrix(-1, 0, 0, 1, 1347.74, 0)" xlink:href="#Áåçûìÿííûé_ãðàäèåíò_5"/><linearGradient id="Áåçûìÿííûé_ãðàäèåíò_2-2" x1="225.94" y1="224.76" x2="236.44" y2="224.76" xlink:href="#Áåçûìÿííûé_ãðàäèåíò_2"/><linearGradient id="Áåçûìÿííûé_ãðàäèåíò_2-3" x1="51.09" y1="224.76" x2="61.59" y2="224.76" xlink:href="#Áåçûìÿííûé_ãðàäèåíò_2"/><radialGradient id="Áåçûìÿííûé_ãðàäèåíò_182" cx="57.83" cy="189.51" r="18.36" gradientUnits="userSpaceOnUse"><stop offset="0" stop-color="#694169"/><stop offset="1"/></radialGradient><linearGradient id="Áåçûìÿííûé_ãðàäèåíò_8" x1="72.15" y1="210.09" x2="96.51" y2="210.09" gradientUnits="userSpaceOnUse"><stop offset="0" stop-color="#d9dbff"/><stop offset="1" stop-color="#eaebff"/></linearGradient><radialGradient id="Áåçûìÿííûé_ãðàäèåíò_222" cx="1222.02" cy="165.29" r="13.88" gradientTransform="matrix(-1, 0, 0, 1, 1448.21, 0)" gradientUnits="userSpaceOnUse"><stop offset="0" stop-color="#d9d9d9"/><stop offset="0.16" stop-color="#e0e0e0"/><stop offset="0.57" stop-color="#ebebeb"/><stop offset="1" stop-color="#efefef"/></radialGradient><radialGradient id="Áåçûìÿííûé_ãðàäèåíò_203" cx="1209.12" cy="180.37" r="17.71" gradientTransform="matrix(-1, 0, 0, 1, 1448.21, 0)" gradientUnits="userSpaceOnUse"><stop offset="0" stop-color="#fff"/><stop offset="1"/></radialGradient><linearGradient id="Áåçûìÿííûé_ãðàäèåíò_7" x1="1221.12" y1="201.13" x2="1244.83" y2="201.13" gradientTransform="matrix(-1, 0, 0, 1, 1448.21, 0)" gradientUnits="userSpaceOnUse"><stop offset="0" stop-color="#ddd9ff"/><stop offset="1" stop-color="#eceaff"/></linearGradient></defs><title>why-draw-idea</title><g class="cls-1"><g id="Layer_2" data-name="Layer 2"><g id="_0" data-name="0"><path class="cls-2" d="M181.37,182.15,150.62,200a9.33,9.33,0,0,1-8.47,0L111.4,182.28c-2.35-1.35-2.36-3.55,0-4.91l30.75-17.88a9.36,9.36,0,0,1,8.47,0l30.75,17.75C183.68,178.6,183.7,180.8,181.37,182.15Zm87.28,45.79L237.9,210.19a9.36,9.36,0,0,0-8.47,0l-30.75,17.88c-2.33,1.36-2.32,3.56,0,4.91l30.75,17.76a9.33,9.33,0,0,0,8.47,0l30.75-17.88C271,231.5,271,229.3,268.65,227.94Zm-174.75,0L63.16,210.19a9.38,9.38,0,0,0-8.48,0L23.94,228.07c-2.34,1.36-2.33,3.56,0,4.91l30.75,17.76a9.35,9.35,0,0,0,8.48,0l30.74-17.88C96.26,231.5,96.25,229.3,93.9,227.94Z"/><g class="cls-1"><path class="cls-3" d="M109.63,151l0,25.49a3,3,0,0,0,1.77,2.47l30.75,17.75a9.3,9.3,0,0,0,8.47,0l30.75-17.88a3,3,0,0,0,1.74-2.44l0-25.49Z"/><path class="cls-4" d="M181.34,148.41l-30.75-17.75a9.3,9.3,0,0,0-8.47,0l-30.75,17.88c-2.33,1.35-2.32,3.55,0,4.91l30.75,17.75a9.3,9.3,0,0,0,8.47,0l30.75-17.88C183.7,152,183.68,149.76,181.34,148.41Z"/></g><ellipse class="cls-5" cx="146.5" cy="150.95" rx="23.24" ry="13.42"/><path class="cls-6" d="M140,146.93a5.23,5.23,0,0,0,2.65,4.38c3.77,2.35,9.89.35,10-4.42Z"/><path class="cls-7" d="M128.61,135.15A14.72,14.72,0,0,0,136,147.4c10.54,6.58,27.66,1,27.93-12.35Z"/><ellipse class="cls-8" cx="146.28" cy="133.08" rx="20.01" ry="11.59" transform="translate(-0.38 0.42) rotate(-0.16)"/><path class="cls-9" d="M128,133.13v-3c0,2.63,1.7,5.26,5.09,7.3,7,4.2,18.55,4.32,25.83.26,3.75-2.09,5.63-4.88,5.62-7.66v3c0,2.79-1.88,5.58-5.62,7.67-7.28,4.06-18.85,3.94-25.83-.26-3.39-2-5.08-4.67-5.09-7.3Z"/><ellipse class="cls-10" cx="146.27" cy="128.15" rx="20.01" ry="11.59" transform="translate(-0.36 0.41) rotate(-0.16)"/><path class="cls-11" d="M128,128.2v-3c0,2.63,1.69,5.25,5.08,7.29,7,4.21,18.55,4.33,25.84.27,3.74-2.09,5.62-4.88,5.62-7.67v3c0,2.79-1.87,5.58-5.62,7.67-7.28,4.06-18.84,3.94-25.83-.26-3.39-2-5.08-4.67-5.08-7.3Z"/><path class="cls-12" d="M160.69,115.16c-7.65-4.61-20.32-4.74-28.29-.29s-8.23,11.78-.58,16.39,20.31,4.73,28.28.28S168.34,119.76,160.69,115.16Z"/><path class="cls-13" d="M128,123.26v-3c0,2.62,1.7,5.25,5.09,7.29,7,4.21,18.55,4.32,25.83.26,3.75-2.08,5.63-4.87,5.62-7.66v3c0,2.79-1.87,5.58-5.62,7.67-7.28,4.06-18.85,3.94-25.83-.26-3.39-2-5.08-4.67-5.09-7.3Z"/><path class="cls-14" d="M160.67,110.22c7.65,4.6,7.39,11.94-.58,16.39s-20.64,4.31-28.29-.29-7.39-11.94.59-16.39S153,105.62,160.67,110.22Z"/><path class="cls-15" d="M128,118.32v-3c0,2.63,1.7,5.26,5.09,7.3,7,4.21,18.55,4.32,25.83.26,3.74-2.09,5.63-4.87,5.62-7.66v3c0,2.78-1.88,5.57-5.62,7.66-7.29,4.06-18.85,3.94-25.83-.26-3.4-2-5.08-4.67-5.09-7.3Z"/><path class="cls-16" d="M126.28,135.1v-2c0,2.87,1.86,5.75,5.57,8,7.65,4.6,20.32,4.73,28.29.28,4.1-2.29,6.16-5.34,6.16-8.39v2c0,3-2,6.1-6.15,8.39-8,4.45-20.64,4.32-28.29-.28-3.71-2.24-5.56-5.12-5.57-8Z"/><path class="cls-17" d="M126.27,130.17v-2c0,2.87,1.86,5.75,5.57,8,7.65,4.6,20.31,4.73,28.29.28,4.1-2.29,6.16-5.34,6.15-8.39v2c0,3-2.06,6.11-6.16,8.4-8,4.44-20.64,4.31-28.28-.29-3.72-2.23-5.57-5.11-5.57-8Z"/><path class="cls-18" d="M126.25,125.23v-2c0,2.88,1.85,5.76,5.57,8,7.64,4.61,20.31,4.74,28.28.29,4.11-2.29,6.17-5.34,6.16-8.39v2c0,3-2,6.1-6.15,8.39-8,4.45-20.64,4.32-28.29-.29-3.71-2.23-5.56-5.11-5.57-8Z"/><path class="cls-19" d="M126.24,120.29v-2c0,2.88,1.86,5.75,5.57,8,7.65,4.6,20.32,4.73,28.29.29,4.1-2.29,6.16-5.35,6.15-8.4v2c0,3.06-2.05,6.11-6.16,8.4-8,4.44-20.63,4.32-28.28-.29-3.72-2.23-5.56-5.11-5.57-8Z"/><path class="cls-20" d="M171.81,100.33l-51.24.15,0,8.85c0,.25,0,.49,0,.74.32,4.62,3,8.54,8.08,11.66,7.18,4.44,18.63,5.66,27.86,3,5.22-1.52,13.81-5.3,15.1-13.88a9.22,9.22,0,0,0,.16-1.65Z"/><path class="cls-21" d="M164.67,90.1c5.69,3.42,8,8,6.87,12.4-.8,3.16-3.34,6.19-7.62,8.58-10.21,5.69-26.42,5.53-36.22-.37s-9.46-15.29.75-21S154.88,84.2,164.67,90.1Z"/><path class="cls-22" d="M127.7,110.71c16.76,10.16,41.08,3.61,43.84-8.21C168,113,146,119.6,127.7,110.71Z"/><path class="cls-23" d="M191.15,39.56c-1.62-13.74-8.86-24.86-21.51-33.05A45,45,0,0,0,150.75.23,45.44,45.44,0,0,0,105.4,25.61c-8.24,17.83-5.18,35.66,9.11,53l.22.29c4.39,5.54,6.94,12.58,7.57,20.93a9.61,9.61,0,0,0,2.39,5.58A17,17,0,0,0,129,109c9.21,5.55,24.47,5.7,34.07.35a17.77,17.77,0,0,0,5-4,9.62,9.62,0,0,0,2.36-5.67c.6-8.4,3.14-15.47,7.54-21l.17-.22C185.32,69.58,193.23,57.24,191.15,39.56Z"/><path class="cls-24" d="M160.6,89.14c7.79,4.69,7.52,12.16-.6,16.68s-21,4.4-28.8-.29-7.53-12.16.59-16.68S152.81,84.45,160.6,89.14Z"/><path class="cls-25" d="M160.82,39.46a1,1,0,0,0-1.39.32l-.34.53a1.45,1.45,0,0,0-.36,0,1.34,1.34,0,0,0-.9.62c-.21.26-.38.52-.55.77a5.16,5.16,0,0,1-1,1.16,1.45,1.45,0,0,1-1.38.13,1.89,1.89,0,0,0-1.75.44,6.66,6.66,0,0,0-.87,1.1,8,8,0,0,1-.69.93,1.55,1.55,0,0,1-1.36.49l-.18,0a1.73,1.73,0,0,0-1.54.11,4.93,4.93,0,0,0-1.17,1.34c-.13.2-.28.41-.43.61a3,3,0,0,1-.73.75,1.05,1.05,0,0,1-.65.17,2,2,0,0,1-.5-.13,1.61,1.61,0,0,0-1.14,0,4.71,4.71,0,0,0-1.65,1.7,3.47,3.47,0,0,1-1.42,1.33,1.53,1.53,0,0,1-.75-.09,2.22,2.22,0,0,0-.78-.14c-.52,0-1.26.69-1.72,1.33l-.18.26a4.62,4.62,0,0,1-1.29,1.43,1.19,1.19,0,0,1-1,0,4.36,4.36,0,0,0-.46-.12,1.37,1.37,0,0,0-.9.12,2.9,2.9,0,0,0-.83.74,1,1,0,0,0-.64,1.9l9.84,4.16v39.74a2.11,2.11,0,0,0,1.24,1.71,6.63,6.63,0,0,0,6,0,2.1,2.1,0,0,0,1.24-1.76V58.64a1.5,1.5,0,0,0-.27-.85l10.74-16.94A1,1,0,0,0,160.82,39.46Zm-12,17.14a6.73,6.73,0,0,0-5.36.31,2,2,0,0,0-1.23,1.86s0-.07,0-.11v.47l-8.8-3.72a2.28,2.28,0,0,1,.61-.53,1,1,0,0,1,.65-.08,2,2,0,0,1,.42.11,1.53,1.53,0,0,0,1.26,0,4.92,4.92,0,0,0,1.45-1.56l.18-.27a2.85,2.85,0,0,1,1.4-1.16A1.71,1.71,0,0,1,140,52a1.89,1.89,0,0,0,.93.11c.53-.09,1.24-.86,1.69-1.5.27-.38,1-1.39,1.45-1.55a1.2,1.2,0,0,1,.88.05,3.81,3.81,0,0,0,.6.14,1.45,1.45,0,0,0,.9-.23,3.53,3.53,0,0,0,.83-.85c.16-.21.31-.42.44-.62a4.37,4.37,0,0,1,1.07-1.23,1.3,1.3,0,0,1,1.2-.06l.19,0a1.94,1.94,0,0,0,1.76-.61,11.18,11.18,0,0,0,.73-1,6.69,6.69,0,0,1,.81-1,1.49,1.49,0,0,1,1.36-.33,1.86,1.86,0,0,0,1.74-.2,5.46,5.46,0,0,0,1-1.26c.17-.24.34-.5.55-.75a1,1,0,0,1,.63-.46h.05Z"/><ellipse class="cls-26" cx="155.81" cy="34.99" rx="24.53" ry="22.09"/><g class="cls-1"><g class="cls-1"><path class="cls-27" d="M177.33,172.82l-5.94-3.45a.4.4,0,0,1,.43,0l5.94,3.45a.4.4,0,0,0-.43,0Z"/></g><path class="cls-28" d="M169,182v-3.67l-5.93-3.45v3.67a.43.43,0,0,0,.17.39l5.94,3.45A.43.43,0,0,1,169,182Z"/><polygon class="cls-4" points="169.62 177.27 163.69 173.82 171.39 169.37 177.33 172.82 169.62 177.27"/><g class="cls-1"><path class="cls-27" d="M169,178.32l-5.93-3.44a1.31,1.31,0,0,1,.61-1.06l5.93,3.45a1.34,1.34,0,0,0-.61,1Z"/></g><path class="cls-29" d="M177.33,172.82c.33-.2.61,0,.61.35v3.67a1.32,1.32,0,0,1-.61,1l-7.7,4.45c-.34.2-.62,0-.62-.34v-3.67a1.34,1.34,0,0,1,.61-1Z"/></g><path class="cls-30" d="M221.13,202.49l-46.4-26.79a1.09,1.09,0,0,0-1.11.1,3.41,3.41,0,0,0-1.54,2.68,1.11,1.11,0,0,0,.44,1l48.61,28.06Z"/><path class="cls-27" d="M221.13,204.29v-1l-47.54-27.45a3.08,3.08,0,0,0-.69.62Z"/><g class="cls-1"><path class="cls-29" d="M123.19,181.8v-3.67l5.93-3.45v3.67a.42.42,0,0,1-.17.38L123,182.18A.4.4,0,0,0,123.19,181.8Z"/><path class="cls-4" d="M120.82,169.18a.43.43,0,0,0-.43-.05l-5.94,3.45a.43.43,0,0,1,.43,0l7.71,4.44,5.93-3.45Z"/><g class="cls-1"><path class="cls-27" d="M123.2,178.13l5.93-3.45a1.35,1.35,0,0,0-.61-1.06l-5.93,3.45a1.35,1.35,0,0,1,.61,1.06Z"/></g><path class="cls-28" d="M114.88,172.63c-.33-.2-.61,0-.61.35v3.66a1.32,1.32,0,0,0,.61,1.05l7.7,4.45c.34.2.62,0,.62-.34v-3.67a1.35,1.35,0,0,0-.61-1.06Z"/></g><path class="cls-31" d="M71,202.3l46.41-26.79a1.07,1.07,0,0,1,1.1.1,3.4,3.4,0,0,1,1.55,2.68,1.08,1.08,0,0,1-.44,1L71,207.35Z"/><path class="cls-27" d="M71,204.1v-1l47.55-27.45a2.85,2.85,0,0,1,.69.62Z"/><g class="cls-1"><path class="cls-32" d="M197,201.45l0,25.49a3,3,0,0,0,1.78,2.47l30.74,17.75a9.32,9.32,0,0,0,8.48,0l30.74-17.88a3,3,0,0,0,1.74-2.44l0-25.49Z"/><path class="cls-4" d="M268.75,198.88,238,181.13a9.35,9.35,0,0,0-8.48,0L198.79,199c-2.34,1.35-2.33,3.55,0,4.91l30.74,17.75a9.35,9.35,0,0,0,8.48,0l30.74-17.88C271.11,202.43,271.1,200.23,268.75,198.88Z"/></g><g class="cls-1"><path class="cls-33" d="M22.2,201.45l0,25.49A3,3,0,0,0,24,229.41l30.74,17.75a9.32,9.32,0,0,0,8.48,0l30.74-17.88a3,3,0,0,0,1.74-2.44l0-25.49Z"/><path class="cls-4" d="M93.91,198.88,63.16,181.13a9.35,9.35,0,0,0-8.48,0L23.94,199c-2.34,1.35-2.32,3.55,0,4.91l30.74,17.75a9.35,9.35,0,0,0,8.48,0l30.75-17.88C96.26,202.43,96.25,200.23,93.91,198.88Z"/></g><path class="cls-34" d="M89.49,254.55a35.11,35.11,0,0,0-4.72-5c-2-1.74-2.63-2.54-3-4.79l-7,.22c0,1.2.12,4.45.48,4.95a88.59,88.59,0,0,0,6.12,7c1.64,1.67,4,3,6.25,2.53A3,3,0,0,0,90,257.57,3.63,3.63,0,0,0,89.49,254.55Z"/><path class="cls-35" d="M90.09,256.12a3,3,0,0,1-.09.52,3,3,0,0,1-2.37,1.89c-2.3.46-4.61-.86-6.25-2.53s-5.26-5.44-6.45-7.52a5.63,5.63,0,0,0,.33,1.91,88.68,88.68,0,0,0,6.12,7c1.64,1.67,4,3,6.25,2.52A3,3,0,0,0,90,258,5.5,5.5,0,0,0,90.09,256.12Z"/><path class="cls-34" d="M99.47,237.64a5.84,5.84,0,0,1,.14-1.83l-7.11-.32c0,1.9-1.34,3.06-1.34,4.73s1.69,2.33,10,5.4c4.27,1.58,5.92,1.6,7.23.85a2.17,2.17,0,0,0,1.12-2.68C108.82,241.18,100.15,238.85,99.47,237.64Z"/><path class="cls-35" d="M109.56,244a2.29,2.29,0,0,1-1.15,1.35c-1.31.75-3,.73-7.23-.85-7.42-2.73-9.47-3.41-10-4.9a6.93,6.93,0,0,0-.18,1c0,.87.52,1.25,2.28,2.11,1.51.73,4.08,1.57,7.91,3,4.27,1.58,5.86,1.54,7.17.79A2.15,2.15,0,0,0,109.56,244Z"/><path class="cls-36" d="M78.42,194.74l-2.32-3.89-21.25,4.42C56,206.79,55.92,209,57.38,211.7c1.76,3.28,2.91,3,13.93,15,0,0,2.2,12,3.16,19.33,1,3.17,8,2,8-.19,0-7.62-.9-23.2-1.17-24.46s-6.08-12.14-6.08-12.14c5.3,3.89,16.65,9.29,16.65,9.29A104.93,104.93,0,0,0,91.93,237c0,2.14,7.44,2.7,7.72.45.3-2.46,1.48-12.11,2.28-21.87a5.1,5.1,0,0,0-1.83-4.36C96,207.81,84.07,198.74,78.42,194.74Z"/><path class="cls-37" d="M50.47,164.93c-3.72,3.72,2.65,17.43,3.2,22.64.62,5.92.88,15.93,1.18,17.84.47,3,11.58,4.1,16.46,1.31.49-.29-1-13.71-1-13.71a20,20,0,0,0,8.21,9.53c1.78-.29,4.6-3.44,4.18-5.32,0,0-3.36-3.26-4.78-5-2.88-3.6-2.28-14.62-1.26-24.33.9-5.48-.54-14.67-4.32-14.24C70,153.89,55.7,159.7,50.47,164.93Z"/><path class="cls-38" d="M56,163a4.15,4.15,0,0,1,1.88-3c3.69-2.33,6.27-3.51,8.39-3.82l.34,0a4,4,0,0,1,3,1.91,9.37,9.37,0,0,1,1.86,5c.66,7.81-1,13.78-2.39,24C64.69,181.46,54.75,170.11,56,163Z"/><path class="cls-39" d="M69.1,187.06l-1-1.85c-3.22-5.65-12.51-22.53-8.88-24.79s5.29-2.94,7.22-3.22c1.66-.24,2.66,3.72,2.94,7.09C69.79,169.69,69.1,178.06,69.1,187.06Z"/><path class="cls-37" d="M49.39,167.06c-.5,1.9-.17,21.73,1.29,25.54.78,2,15.4,13.88,17,15.47,1,1,5.24-3.06,4.09-4.29l-14-14.43c-.91-8.85.37-17.54-1.44-22-.56-1.38-2-3.72-3.69-3.77S49.75,165.71,49.39,167.06Z"/><path class="cls-40" d="M57.82,189.34c-.36-3.67-.38-7.36-.38-11,0-1.84,0-3.69-.11-5.53,0-.92-.13-1.84-.27-2.75a12.61,12.61,0,0,0-.28-1.36,10.58,10.58,0,0,0-.41-1.32c.12.45.28.88.36,1.33A12.51,12.51,0,0,1,57,170c.13.91.18,1.83.22,2.75.09,1.83.08,3.68.07,5.52a104.94,104.94,0,0,0,.32,11.07.31.31,0,0,0,.06.13l7,7.17,3.52,3.58,3.55,3.54S57.82,189.34,57.82,189.34Z"/><path class="cls-39" d="M67.9,207.93c.39.24,1.54-.49,1.88-.79s2.91-2.74,1.52-3.24C70.15,203.49,66.67,207.15,67.9,207.93Z"/><path class="cls-37" d="M70.51,156.82c-.51,1.91-.17,21.73,1.3,25.55.77,2,10.37,12.9,11.41,14.9.64,1.22,5.92-1.36,5.19-2.87l-9.49-15.29c-.91-8.85.36-17.54-1.45-22-.56-1.38-2-3.72-3.69-3.77S70.86,155.47,70.51,156.82Z"/><path class="cls-39" d="M83.56,197.21c.29.36,1.62,0,2-.22s3.55-1.76,2.38-2.67C87,193.53,82.58,196,83.56,197.21Z"/><path class="cls-41" d="M61.3,164.61a5.14,5.14,0,0,0,3.37,1.81A3.6,3.6,0,0,0,68,164.81c.7-1.19,1.5-6.33,1.35-9.24a4.58,4.58,0,0,0-.44-1.93A4.18,4.18,0,0,0,67.08,152a6.86,6.86,0,0,0-3.39-.91,1.94,1.94,0,0,0-1.43.58,2.45,2.45,0,0,0-.37,1.06A45,45,0,0,1,60,159.6C59.32,161.48,60,163.12,61.3,164.61Z"/><polygon class="cls-36" points="69.2 180.75 67.21 167.05 66.03 167.57 66.15 181.89 69.11 187.13 69.2 180.75"/><path class="cls-36" d="M66.58,168.85c1.3-.38,1.82-3,1.32-3.52-.28-.28-1.55-.16-1.94,0-1,.48-1.88,1.12-1.71,1.7S65.8,169.07,66.58,168.85Z"/><path class="cls-42" d="M66.45,165.16l-4.24,3.69s-5.58-6.56-2.22-9.25a5,5,0,0,0,3.11,4.86A8.69,8.69,0,0,0,66.45,165.16Z"/><path class="cls-42" d="M66.33,165.18l3.79,1.26a12.72,12.72,0,0,0-2-5.71C68.89,164.77,66.33,165.18,66.33,165.18Z"/><path class="cls-43" d="M59.26,149.21c0,6.88-.78,4.21,3.8,10.78,1.89,2.7,5.27,4.68,6.63,4.9a2.28,2.28,0,0,0,2.14-.67c.58-.71,1.12-3.87,1.47-5.78a40.75,40.75,0,0,0,.6-6.52c.13-5.25-2.14-7.47-5.31-8.67S59.3,142.11,59.26,149.21Z"/><path class="cls-44" d="M63.3,156.09c.27.84,1.25.79,1.26.14,0-1,.17-2.77.6-3.25,1.6-1.85,5.27-3.36,8.29-3.68a.6.6,0,0,0,.44-.26c1.37-2.16.29-7.1-6.61-7.71-3.4-.3-6.14.62-7.77,2.87-1.89,2.63-1.52,6.15-.85,9.57a5.83,5.83,0,0,0,1.58,3.12,3.91,3.91,0,0,0,1.88,1.19,17.36,17.36,0,0,1-1.62-3.56c-.32-1.19.58-2,1.26-1.68C63.15,153.44,63.1,155.44,63.3,156.09Z"/><polygon class="cls-45" points="78.8 219.14 98.79 207.52 98.79 207.88 78.8 219.5 78.8 219.14"/><polygon class="cls-46" points="64.78 210.65 84.77 199.03 98.77 207.12 78.78 218.74 64.78 210.65"/><path class="cls-47" d="M83.81,206l-6.42,3.71a.59.59,0,0,1-.52,0l-4.26-2.46a.16.16,0,0,1,0-.3l6.42-3.7a.53.53,0,0,1,.52,0l4.26,2.45C84,205.8,84,205.93,83.81,206Z"/><path class="cls-48" d="M72.61,207,79,203.33a.59.59,0,0,1,.52,0l4.26,2.46a.26.26,0,0,1,.1.11.16.16,0,0,0-.1-.19l-4.26-2.45a.53.53,0,0,0-.52,0L72.61,207a.17.17,0,0,0-.1.19A.26.26,0,0,1,72.61,207Z"/><path class="cls-49" d="M77.84,214.88c0-.1,0-.14.06-.16l.86-.5a.34.34,0,0,1,.31,0l.73.42a.08.08,0,0,1,0,.1c0,.1,0,.13,0,.16l-.87.5a.32.32,0,0,1-.3,0L77.9,215C77.85,215,77.83,214.91,77.84,214.88Zm-1.69-.37.73.42a.32.32,0,0,0,.3,0l.87-.5s.06-.06,0-.1,0-.13,0-.16l-.73-.42a.34.34,0,0,0-.31,0l-.86.5a.08.08,0,0,0-.06.1C76.08,214.45,76.1,214.48,76.15,214.51Zm2-2.87s-.07.06-.06.1,0,.13.06.16l.72.42a.34.34,0,0,0,.31,0l.86-.5a.08.08,0,0,0,.06-.1c0-.09,0-.13-.06-.16C79,210.94,79.34,211,78.16,211.64ZM90.1,209l.87-.5a.1.1,0,0,0,.06-.1c0-.1,0-.13-.06-.16l-.73-.42a.32.32,0,0,0-.3,0l-.87.5a.1.1,0,0,0-.06.1c0,.09,0,.13.06.16l.73.42A.32.32,0,0,0,90.1,209Zm-9.77,5.64.86-.5a.08.08,0,0,0,.06-.1c0-.09,0-.13-.06-.16l-.72-.42a.34.34,0,0,0-.31,0l-.86.5s-.07.07-.06.1,0,.14.06.16l.72.42A.34.34,0,0,0,80.33,214.59ZM77.62,212l-.86.49a.1.1,0,0,0-.06.11c0,.09,0,.13.06.16l.73.42a.32.32,0,0,0,.3,0l.87-.5a.1.1,0,0,0,0-.1c0-.1,0-.14,0-.16l-.73-.42A.34.34,0,0,0,77.62,212Zm9.69-1.39.87-.5a.09.09,0,0,0,0-.1c0-.09,0-.13,0-.16l-.73-.42a.34.34,0,0,0-.31,0l-.86.5s-.07.06-.06.1,0,.14.06.16l.73.42A.32.32,0,0,0,87.31,210.56Zm-6.89-.23-.87.5a.12.12,0,0,0-.06.11c0,.09,0,.13.06.16l.73.42a.32.32,0,0,0,.3,0l.87-.5a.12.12,0,0,0,.06-.11c0-.09,0-.13-.06-.16l-.73-.42A.32.32,0,0,0,80.42,210.33Zm5.49,1,.87-.5a.11.11,0,0,0,.06-.1c0-.1,0-.14-.06-.16l-.73-.42a.32.32,0,0,0-.3,0l-.87.5a.1.1,0,0,0-.06.1c0,.09,0,.13.06.16l.73.42A.32.32,0,0,0,85.91,211.37Zm-4.19,2.42.87-.5s.07-.07.06-.1,0-.14-.06-.17l-.73-.42a.39.39,0,0,0-.3,0l-.87.5a.12.12,0,0,0-.06.11c0,.09,0,.13.06.16l.73.42A.32.32,0,0,0,81.72,213.79Zm7-4,.86-.5a.1.1,0,0,0,.06-.11c0-.09,0-.13-.06-.16l-.73-.42a.32.32,0,0,0-.3,0l-.86.5a.1.1,0,0,0-.06.11c0,.09,0,.13.06.16l.72.42A.34.34,0,0,0,88.71,209.76ZM83.12,213l.87-.5s.06-.06.05-.1,0-.13-.05-.16l-.73-.42a.34.34,0,0,0-.31,0l-.86.5s-.07.06-.06.1,0,.13.06.16l.73.42A.32.32,0,0,0,83.12,213Zm1.4-.8.86-.5a.1.1,0,0,0,.06-.11c0-.09,0-.13-.06-.16l-.73-.42a.32.32,0,0,0-.3,0l-.86.5s-.07.07-.06.1,0,.14.06.17l.72.42A.42.42,0,0,0,84.52,212.18Zm-8.29.57-.87.5a.11.11,0,0,0-.06.1c0,.1,0,.14.06.17l.73.42a.39.39,0,0,0,.3,0l.87-.5a.12.12,0,0,0,.06-.11c0-.09,0-.13-.06-.16l-.73-.42A.32.32,0,0,0,76.23,212.75Zm5.14-.24.87-.5s.06-.06.05-.1,0-.13-.05-.16l-.73-.42a.34.34,0,0,0-.31,0l-.86.5s-.07.06-.06.1,0,.13.06.16l.73.42A.32.32,0,0,0,81.37,212.51Zm4.19-2.42.86-.5a.08.08,0,0,0,.06-.1c0-.09,0-.13-.06-.16l-.72-.42a.34.34,0,0,0-.31,0l-.86.5s-.07.07-.06.1,0,.14.06.16l.73.42A.32.32,0,0,0,85.56,210.09Zm-1.4.81.87-.5a.11.11,0,0,0,.06-.1c0-.1,0-.14-.06-.16l-.73-.42a.32.32,0,0,0-.3,0l-.87.5a.1.1,0,0,0-.06.1c0,.09,0,.13.06.16l.73.42A.32.32,0,0,0,84.16,210.9Zm-1.39.81.86-.5a.1.1,0,0,0,.06-.11c0-.09,0-.13-.06-.16l-.73-.42a.32.32,0,0,0-.3,0l-.87.5a.1.1,0,0,0,0,.1c0,.1,0,.14,0,.17l.73.42A.42.42,0,0,0,82.77,211.71ZM93.21,206c0,.09,0,.13.06.16l.73.42a.32.32,0,0,0,.3,0l.87-.5a.11.11,0,0,0,.06-.1c0-.1,0-.14-.06-.17l-.73-.42a.39.39,0,0,0-.3,0l-.87.5A.12.12,0,0,0,93.21,206ZM80,213.32l.87-.5a.11.11,0,0,0,.06-.1c0-.1,0-.14-.06-.16l-.73-.42a.32.32,0,0,0-.3,0l-.87.49a.12.12,0,0,0-.06.11c0,.09,0,.13.06.16l.73.42A.32.32,0,0,0,80,213.32Zm-1.25-.38a.34.34,0,0,0-.31,0l-.86.5s-.07.07-.06.1,0,.14.06.16l.72.42a.34.34,0,0,0,.31,0l.86-.49a.1.1,0,0,0,.06-.11c0-.09,0-.13-.06-.16Zm4.49-4.22-.87.5a.1.1,0,0,0,0,.1c0,.1,0,.14,0,.16l.73.42a.34.34,0,0,0,.31,0l.86-.5a.08.08,0,0,0,.06-.1c0-.09,0-.13-.06-.16l-.73-.42A.32.32,0,0,0,83.21,208.72Zm1.4-.81-.87.5a.12.12,0,0,0-.06.11c0,.09,0,.13.06.16l.73.42a.32.32,0,0,0,.3,0l.87-.5a.11.11,0,0,0,.06-.1c0-.1,0-.14-.06-.17l-.73-.42A.39.39,0,0,0,84.61,207.91ZM87,209.29l.86-.5c.05,0,.07-.07.06-.1s0-.14-.06-.17l-.73-.42a.39.39,0,0,0-.3,0l-.87.5a.11.11,0,0,0,0,.11c0,.09,0,.13,0,.16l.73.42A.34.34,0,0,0,87,209.29Zm-1-2.18-.86.5s-.07.06-.06.1,0,.13.06.16l.72.42a.34.34,0,0,0,.31,0l.86-.5s.07-.06.06-.1,0-.13-.06-.16l-.72-.42A.34.34,0,0,0,86,207.11Zm-4.19,2.42L81,210a.08.08,0,0,0-.06.1c0,.09,0,.13.06.16.71.41.84.53,1,.42l.86-.5s.07-.06.06-.1,0-.14-.06-.16l-.72-.42A.34.34,0,0,0,81.81,209.53Zm6.54-1.05,1.32-.76a.1.1,0,0,0,.06-.1c0-.1,0-.13-.06-.16l-.73-.42a.32.32,0,0,0-.3,0l-1.32.76s-.07.06-.06.1,0,.13.06.16l.73.42A.32.32,0,0,0,88.35,208.48Zm.08-1.76-.73-.42a.32.32,0,0,0-.3,0l-.87.5a.1.1,0,0,0,0,.1c0,.1,0,.14,0,.17l.73.42a.42.42,0,0,0,.31,0l.86-.5a.1.1,0,0,0,.06-.11C88.5,206.79,88.48,206.75,88.43,206.72Zm-5,.68.72.42a.34.34,0,0,0,.31,0l.86-.5a.08.08,0,0,0,.06-.1c0-.1,0-.13-.06-.16l-.72-.42a.34.34,0,0,0-.31,0l-.86.5s-.07.06-.06.1S83.34,207.37,83.39,207.4Zm-4.21,9-.73-.42a.32.32,0,0,0-.3,0l-.86.5a.08.08,0,0,0-.06.1c0,.09,0,.13.06.16l.72.42a.34.34,0,0,0,.31,0l.86-.5s.07-.07.06-.1S79.23,216.46,79.18,216.44Zm1.4-.81-.73-.42a.32.32,0,0,0-.3,0l-.87.5a.1.1,0,0,0-.06.1c0,.1,0,.14.06.16l.73.42a.32.32,0,0,0,.3,0l.87-.5a.1.1,0,0,0,.06-.1C80.64,215.7,80.63,215.66,80.58,215.63Zm-2.12,0c0-.09,0-.13-.06-.16l-.73-.42a.32.32,0,0,0-.3,0l-1.32.76a.09.09,0,0,0,0,.1c0,.1,0,.14,0,.17l.73.42a.34.34,0,0,0,.31,0l1.31-.76A.1.1,0,0,0,78.46,215.6Zm3.51-.78-.72-.42a.34.34,0,0,0-.31,0l-.86.5A.1.1,0,0,0,80,215c0,.09,0,.13.06.16l.73.42a.32.32,0,0,0,.3,0l.86-.5A.1.1,0,0,0,82,215C82,214.89,82,214.85,82,214.82Zm-7.8-1.15c0-.1,0-.13-.06-.16l-.73-.42a.32.32,0,0,0-.3,0l-.86.5s-.07.06-.06.1,0,.13.06.16l.72.42a.34.34,0,0,0,.31,0l.86-.5S74.18,213.71,74.17,213.67Zm2.54,1.47c0-.1,0-.14-.06-.17l-.73-.42a.39.39,0,0,0-.3,0l-.87.5a.12.12,0,0,0-.06.11c0,.09,0,.13.06.16l.73.42a.32.32,0,0,0,.3,0l.87-.5S76.72,215.17,76.71,215.14Zm-.79-1c0-.1,0-.13-.06-.16l-.72-.42a.34.34,0,0,0-.31,0l-1.31.76s-.07.06-.06.1,0,.13.06.16l.72.42a.34.34,0,0,0,.31,0l1.31-.76S75.93,214.18,75.92,214.14Zm20.52-7.63-.72-.42a.34.34,0,0,0-.31,0l-.86.5s-.07.07-.06.1,0,.14.06.16l.73.42a.32.32,0,0,0,.3,0l.86-.49a.1.1,0,0,0,.06-.11C96.51,206.58,96.49,206.54,96.44,206.51Zm-2.79,1.61-.73-.42a.39.39,0,0,0-.3,0l-.87.5a.11.11,0,0,0,0,.11c0,.09,0,.13,0,.16l.73.42a.34.34,0,0,0,.31,0l.86-.5s.07-.07.06-.1S93.7,208.15,93.65,208.12Zm1.4-.8-.73-.42a.32.32,0,0,0-.3,0l-.87.5a.1.1,0,0,0-.06.1c0,.1,0,.13.06.16l.73.42a.32.32,0,0,0,.3,0l.87-.5a.1.1,0,0,0,.06-.1C95.11,207.38,95.1,207.35,95.05,207.32ZM83.37,214l-.73-.42a.32.32,0,0,0-.3,0l-.87.5a.09.09,0,0,0,0,.1c0,.09,0,.13,0,.16l.73.42a.34.34,0,0,0,.31,0l.86-.5s.07-.06.06-.1S83.42,214.05,83.37,214Zm-9.76-1,.73.42a.39.39,0,0,0,.3,0l.87-.5a.12.12,0,0,0,.06-.11c0-.09,0-.13-.06-.16l-.73-.42a.32.32,0,0,0-.3,0l-.87.5a.11.11,0,0,0-.06.1C73.55,213,73.56,213,73.61,213.05ZM90.38,210l-.73-.42a.34.34,0,0,0-.31,0l-6.46,3.73s-.07.07-.06.1,0,.14.06.17l.72.42a.42.42,0,0,0,.31,0l6.47-3.74s.06-.06.05-.1S90.42,210,90.38,210Zm1.81-1.07-.73-.42a.39.39,0,0,0-.3,0l-1.32.76a.11.11,0,0,0,0,.11c0,.09,0,.13,0,.16l.73.42a.34.34,0,0,0,.31,0l1.31-.76s.07-.07.06-.1S92.24,209,92.19,208.92Zm-.68-.77.86-.5s.07-.07.06-.1,0-.14-.06-.16l-.72-.42a.34.34,0,0,0-.31,0l-.86.5a.08.08,0,0,0-.06.1c0,.09,0,.13.06.16l.73.42A.32.32,0,0,0,91.51,208.15Zm-2.06-4.24.73.42a.32.32,0,0,0,.3,0l.87-.5s.06-.06.05-.1,0-.13-.05-.16l-.73-.42a.34.34,0,0,0-.31,0l-.86.5a.08.08,0,0,0-.06.1C89.38,203.84,89.4,203.88,89.45,203.91Zm-1.4.81.73.42a.32.32,0,0,0,.3,0l.87-.5a.11.11,0,0,0,.06-.1c0-.1,0-.14-.06-.17l-.73-.42a.39.39,0,0,0-.3,0l-.87.5a.12.12,0,0,0-.06.11C88,204.65,88,204.69,88.05,204.72Zm-3.27,1.88.73.42a.39.39,0,0,0,.3,0l1.32-.76a.1.1,0,0,0,.06-.11c0-.09,0-.13-.06-.16l-.73-.42a.32.32,0,0,0-.3,0l-1.32.76a.09.09,0,0,0,0,.1C84.72,206.53,84.73,206.57,84.78,206.6Zm1.88-1.08.72.42a.34.34,0,0,0,.31,0l.86-.5a.08.08,0,0,0,.06-.1c0-.09,0-.13-.06-.16l-.72-.42a.34.34,0,0,0-.31,0l-.86.5s-.07.07-.06.1S86.61,205.5,86.66,205.52Zm4-1c0,.1,0,.14.06.17l.73.42a.39.39,0,0,0,.3,0l.87-.5a.12.12,0,0,0,.06-.11c0-.09,0-.13-.06-.16l-.73-.42a.32.32,0,0,0-.3,0l-.87.5A.11.11,0,0,0,90.66,204.48Zm2.25,2.86.86-.5a.08.08,0,0,0,.06-.1c0-.09,0-.13-.06-.16l-.73-.42a.32.32,0,0,0-.3,0l-.87.5a.1.1,0,0,0-.05.1c0,.1,0,.14.05.16l.73.42A.34.34,0,0,0,92.91,207.34ZM76.4,211.43l.73.42a.34.34,0,0,0,.31,0l.86-.5a.08.08,0,0,0,.06-.1c0-.09,0-.13-.06-.16l-.73-.42a.32.32,0,0,0-.3,0l-.87.5a.1.1,0,0,0-.05.1C76.34,211.37,76.36,211.41,76.4,211.43Zm1.4-.8c1,.6.69.62,1.9-.08a.11.11,0,0,0,.06-.1c0-.1,0-.14-.06-.17l-.73-.42a.39.39,0,0,0-.3,0l-.87.5a.12.12,0,0,0-.06.11C77.74,210.56,77.75,210.6,77.8,210.63ZM75,212.24l.73.42a.32.32,0,0,0,.3,0l.86-.5s.07-.07.06-.1,0-.14-.06-.16l-.72-.42a.34.34,0,0,0-.31,0L75,212a.08.08,0,0,0-.06.1C74.94,212.17,75,212.21,75,212.24Zm4.19-2.42.72.42a.34.34,0,0,0,.31,0l.86-.5s.07-.06.06-.1,0-.13-.06-.16l-.72-.42a.34.34,0,0,0-.31,0l-.86.5a.08.08,0,0,0-.06.1C79.13,209.76,79.15,209.79,79.2,209.82ZM82,208.21l.73.42a.32.32,0,0,0,.3,0l.87-.5a.09.09,0,0,0,0-.1c0-.1,0-.14,0-.16l-.73-.42a.32.32,0,0,0-.3,0l-.87.49a.1.1,0,0,0-.06.11C81.92,208.14,81.94,208.18,82,208.21Zm-1.4.8.73.42a.34.34,0,0,0,.31,0l.86-.49a.1.1,0,0,0,.06-.11c0-.09,0-.13-.06-.16l-.73-.42a.32.32,0,0,0-.3,0l-.87.5a.1.1,0,0,0,0,.1C80.53,209,80.55,209,80.59,209Zm10.87-3.75-1-.55a.42.42,0,0,0-.38,0L87.93,206a.11.11,0,0,0-.07.12c0,.1,0,.15.07.18l1.91,1.11a.42.42,0,0,0,.38,0l3.64-2.1s.08-.08.07-.13a.17.17,0,0,0-.07-.18l-.72-.41a.28.28,0,0,0-.25,0l-1.22.7A.22.22,0,0,1,91.46,205.26Z"/><path class="cls-50" d="M74.11,213.65l-.86.5a.42.42,0,0,1-.31,0l-.72-.42c-.09,0-.09-.13,0-.18l.86-.5a.32.32,0,0,1,.3,0l.73.42C74.2,213.52,74.2,213.6,74.11,213.65Zm1.4-1-.73-.42a.39.39,0,0,0-.3,0l-.87.5a.1.1,0,0,0,0,.18l.73.42a.32.32,0,0,0,.3,0l.87-.5A.1.1,0,0,0,75.51,212.66Zm1.39-.8-.72-.42a.34.34,0,0,0-.31,0l-.86.5c-.09.05-.09.12,0,.17l.73.42a.32.32,0,0,0,.3,0l.86-.5C77,212,77,211.91,76.9,211.86Zm1.4-.81-.73-.42a.32.32,0,0,0-.3,0l-.87.5a.1.1,0,0,0,0,.18l.73.42a.34.34,0,0,0,.31,0l.86-.5C78.39,211.18,78.39,211.1,78.3,211.05Zm1.4-.8-.73-.42a.32.32,0,0,0-.3,0l-.87.49a.1.1,0,0,0,0,.18l.73.42a.32.32,0,0,0,.3,0l.87-.5C79.78,210.37,79.78,210.29,79.7,210.25Zm1.39-.81-.72-.42a.34.34,0,0,0-.31,0l-.86.5c-.09,0-.09.13,0,.17l.72.42a.34.34,0,0,0,.31,0l.86-.5C81.18,209.57,81.18,209.49,81.09,209.44Zm1.4-.81-.73-.42a.32.32,0,0,0-.3,0l-.87.5a.1.1,0,0,0,0,.18l.73.42a.34.34,0,0,0,.31,0l.86-.5A.1.1,0,0,0,82.49,208.63Zm1.4-.8-.73-.42a.32.32,0,0,0-.3,0l-.87.5c-.08,0-.08.12,0,.17l.73.42a.32.32,0,0,0,.3,0l.87-.5C84,208,84,207.88,83.89,207.83Zm1.39-.81-.72-.42a.34.34,0,0,0-.31,0l-.86.5c-.09.05-.09.13,0,.18l.72.42a.42.42,0,0,0,.31,0l.86-.5C85.37,207.15,85.37,207.07,85.28,207ZM87.13,206l-.73-.42a.39.39,0,0,0-.3,0l-1.32.76a.1.1,0,0,0,0,.18l.73.42a.32.32,0,0,0,.3,0l1.32-.76A.1.1,0,0,0,87.13,206Zm5.25,1.4-.73-.42a.34.34,0,0,0-.31,0l-.86.5c-.09,0-.09.12,0,.17l.73.42a.32.32,0,0,0,.3,0l.87-.5C92.46,207.48,92.46,207.4,92.38,207.35Zm1.39-.81-.73-.42a.32.32,0,0,0-.3,0l-.87.5a.1.1,0,0,0,0,.18l.73.42a.34.34,0,0,0,.31,0l.86-.5C93.86,206.67,93.86,206.59,93.77,206.54Zm1.4-.8-.73-.42a.32.32,0,0,0-.3,0l-.87.5c-.08,0-.08.12,0,.17l.73.42a.32.32,0,0,0,.3,0l.87-.5C95.25,205.86,95.25,205.78,95.17,205.74Zm-1.52,2.35-.73-.42a.32.32,0,0,0-.3,0l-.87.49a.1.1,0,0,0,0,.18l.73.42a.34.34,0,0,0,.31,0l.86-.5C93.74,208.21,93.74,208.13,93.65,208.09Zm1.4-.81-.73-.42a.32.32,0,0,0-.3,0l-.87.5c-.08,0-.08.13,0,.17l.73.42a.32.32,0,0,0,.3,0l.87-.5C95.13,207.41,95.13,207.33,95.05,207.28Zm1.39-.81-.72-.42a.34.34,0,0,0-.31,0l-.86.5c-.09,0-.09.13,0,.18l.73.42a.32.32,0,0,0,.3,0l.86-.5C96.53,206.6,96.53,206.52,96.44,206.47Zm-20.58,7.47-.72-.42a.34.34,0,0,0-.31,0l-1.31.76c-.09.05-.09.13,0,.17l.72.42a.34.34,0,0,0,.31,0l1.31-.75C76,214.07,76,214,75.86,213.94Zm1.4-.81-.73-.42a.32.32,0,0,0-.3,0l-.87.5a.1.1,0,0,0,0,.18l.73.42a.32.32,0,0,0,.3,0l.87-.5A.1.1,0,0,0,77.26,213.13Zm1.4-.8-.73-.42a.34.34,0,0,0-.31,0l-.86.5c-.08.05-.08.12,0,.17l.73.42a.32.32,0,0,0,.3,0l.87-.5C78.74,212.45,78.74,212.38,78.66,212.33Zm1.39-.81-.73-.42a.32.32,0,0,0-.3,0l-.86.5c-.09.05-.09.13,0,.18l.72.42a.42.42,0,0,0,.31,0l.86-.5C80.14,211.65,80.14,211.57,80.05,211.52Zm1.4-.81-.73-.42a.39.39,0,0,0-.3,0l-.87.5a.1.1,0,0,0,0,.18l.73.42a.32.32,0,0,0,.3,0l.87-.5A.1.1,0,0,0,81.45,210.71Zm1.39-.8-.72-.42a.34.34,0,0,0-.31,0L81,210c-.09,0-.09.12,0,.17l.73.42a.32.32,0,0,0,.3,0l.86-.5C82.93,210,82.93,210,82.84,209.91Zm1.4-.81-.73-.42a.32.32,0,0,0-.3,0l-.87.5a.1.1,0,0,0,0,.18l.73.42a.34.34,0,0,0,.31,0l.86-.5C84.33,209.23,84.33,209.15,84.24,209.1Zm1.4-.8-.73-.42a.32.32,0,0,0-.3,0l-.87.5c-.08,0-.08.12,0,.17l.73.42a.32.32,0,0,0,.3,0l.87-.5C85.72,208.42,85.72,208.34,85.64,208.3Zm1.39-.81-.72-.42a.34.34,0,0,0-.31,0l-.86.5c-.09.05-.09.13,0,.17l.72.42a.34.34,0,0,0,.31,0l.86-.49C87.12,207.62,87.12,207.54,87,207.49Zm1.4-.81-.73-.42a.32.32,0,0,0-.3,0l-.87.5a.1.1,0,0,0,0,.18l.73.42a.34.34,0,0,0,.31,0l.86-.5A.1.1,0,0,0,88.43,206.68Zm-11.78,8.26-.73-.42a.32.32,0,0,0-.3,0l-.87.49a.1.1,0,0,0,0,.18l.73.42a.32.32,0,0,0,.3,0l.87-.5C76.73,215.06,76.73,215,76.65,214.94Zm1.4-.81-.73-.42a.34.34,0,0,0-.31,0l-.86.5c-.08,0-.08.13,0,.17l.73.42a.32.32,0,0,0,.3,0l.87-.5C78.13,214.26,78.13,214.18,78.05,214.13Zm1.39-.81-.72-.42a.34.34,0,0,0-.31,0l-.86.5c-.09,0-.09.13,0,.18l.72.42a.34.34,0,0,0,.31,0l.86-.5C79.53,213.45,79.53,213.37,79.44,213.32Zm1.4-.8-.73-.42a.32.32,0,0,0-.3,0l-.87.5c-.08,0-.08.12,0,.17l.73.42a.32.32,0,0,0,.3,0l.87-.5C80.92,212.64,80.92,212.57,80.84,212.52Zm-1.66,3.88-.73-.42a.32.32,0,0,0-.3,0l-.86.5c-.09.05-.09.12,0,.17l.72.42a.34.34,0,0,0,.31,0l.86-.5C79.27,216.52,79.27,216.45,79.18,216.4Zm1.4-.81-.73-.42a.32.32,0,0,0-.3,0l-.87.5a.1.1,0,0,0,0,.18l.73.42a.39.39,0,0,0,.3,0l.87-.5A.1.1,0,0,0,80.58,215.59Zm1.39-.81-.72-.42a.42.42,0,0,0-.31,0l-.86.5c-.09,0-.09.13,0,.18l.73.42a.32.32,0,0,0,.3,0L82,215C82.06,214.91,82.06,214.83,82,214.78Zm1.4-.8-.73-.42a.32.32,0,0,0-.3,0l-.87.5c-.08.05-.08.13,0,.17l.73.42a.34.34,0,0,0,.31,0l.86-.5C83.46,214.11,83.46,214,83.37,214Zm8.82-5.09-.73-.42a.32.32,0,0,0-.3,0l-1.32.76c-.08,0-.08.12,0,.17l.73.42a.34.34,0,0,0,.31,0l1.31-.76C92.28,209,92.28,208.93,92.19,208.89Zm-10,2.82-.73-.42a.34.34,0,0,0-.31,0l-.86.5c-.09.05-.09.13,0,.18l.73.42a.39.39,0,0,0,.3,0l.87-.5A.1.1,0,0,0,82.24,211.71Zm1.39-.81-.73-.42a.39.39,0,0,0-.3,0l-.87.5a.1.1,0,0,0,0,.18l.73.42a.34.34,0,0,0,.31,0l.86-.5C83.72,211,83.72,211,83.63,210.9Zm1.4-.8-.73-.42a.32.32,0,0,0-.3,0l-.87.5c-.08,0-.08.12,0,.17l.73.42a.32.32,0,0,0,.3,0l.87-.5C85.11,210.23,85.11,210.15,85,210.1Zm1.39-.81-.72-.42a.34.34,0,0,0-.31,0l-.86.5c-.09,0-.09.13,0,.18l.73.42a.32.32,0,0,0,.3,0l.86-.5C86.51,209.42,86.51,209.34,86.42,209.29Zm1.4-.8-.73-.42a.32.32,0,0,0-.3,0l-.87.49a.1.1,0,0,0,0,.18l.73.42a.34.34,0,0,0,.31,0l.86-.5C87.9,208.61,87.9,208.53,87.82,208.49Zm1.85-1.07-.73-.42a.32.32,0,0,0-.3,0l-1.32.76c-.08.05-.08.13,0,.17l.73.42a.32.32,0,0,0,.3,0l1.32-.76C89.75,207.55,89.75,207.47,89.67,207.42Zm-11.27,8-.73-.42a.39.39,0,0,0-.3,0l-1.32.76a.1.1,0,0,0,0,.18l.73.42a.34.34,0,0,0,.31,0l1.31-.76A.1.1,0,0,0,78.4,215.4Zm1.4-.8-.73-.42a.34.34,0,0,0-.31,0l-.86.5c-.08,0-.08.12,0,.17l.73.42a.32.32,0,0,0,.3,0l.87-.5C79.88,214.73,79.88,214.65,79.8,214.6Zm1.39-.81-.72-.42a.34.34,0,0,0-.31,0l-.86.5c-.09,0-.09.13,0,.18l.72.42a.34.34,0,0,0,.31,0l.86-.5C81.28,213.92,81.28,213.84,81.19,213.79Zm1.4-.8-.73-.42a.32.32,0,0,0-.3,0l-.87.5c-.08,0-.08.12,0,.17l.73.42a.32.32,0,0,0,.3,0l.87-.5C82.67,213.11,82.67,213,82.59,213Zm1.4-.81-.73-.42a.34.34,0,0,0-.31,0l-.86.5c-.08.05-.08.13,0,.17l.73.42a.32.32,0,0,0,.3,0l.87-.49A.1.1,0,0,0,84,212.18ZM90.38,210l-.73-.42a.34.34,0,0,0-.31,0l-6.46,3.73c-.09.05-.09.13,0,.18l.72.42a.34.34,0,0,0,.31,0l6.47-3.74C90.46,210.08,90.46,210,90.38,210Zm-5,1.42-.73-.42a.32.32,0,0,0-.3,0l-.86.5c-.09.05-.09.13,0,.18l.72.42a.34.34,0,0,0,.31,0l.86-.5C85.47,211.5,85.47,211.42,85.38,211.37Zm1.4-.8-.73-.42a.32.32,0,0,0-.3,0l-.87.5c-.08,0-.08.12,0,.17l.73.42a.32.32,0,0,0,.3,0l.87-.5C86.86,210.69,86.86,210.62,86.78,210.57Zm1.4-.81-.73-.42a.34.34,0,0,0-.31,0l-.86.5c-.09,0-.09.13,0,.18l.73.42a.39.39,0,0,0,.3,0l.87-.5A.1.1,0,0,0,88.18,209.76Zm1.39-.81-.73-.42a.39.39,0,0,0-.3,0l-.86.5c-.09.05-.09.13,0,.18l.72.42a.34.34,0,0,0,.31,0l.86-.5C89.66,209.08,89.66,209,89.57,209Zm1.4-.8-.73-.42a.32.32,0,0,0-.3,0l-.87.5c-.08.05-.08.13,0,.17l.73.42a.32.32,0,0,0,.3,0l.87-.5C91.05,208.28,91.05,208.2,91,208.15Zm-2.42-3-.72-.42a.34.34,0,0,0-.31,0l-.86.5c-.09.05-.09.13,0,.18l.72.42a.42.42,0,0,0,.31,0l.86-.5C88.64,205.27,88.64,205.19,88.55,205.14Zm1.4-.8-.73-.42a.32.32,0,0,0-.3,0l-.87.49a.1.1,0,0,0,0,.18l.73.42a.32.32,0,0,0,.3,0l.87-.5C90,204.46,90,204.38,90,204.34Zm1.4-.81-.73-.42a.34.34,0,0,0-.31,0l-.86.5c-.09,0-.09.13,0,.17l.73.42a.32.32,0,0,0,.3,0l.87-.5C91.43,203.66,91.43,203.58,91.35,203.53Zm1.27.73-.73-.42a.39.39,0,0,0-.3,0l-.87.5a.1.1,0,0,0,0,.18l.73.42a.32.32,0,0,0,.3,0l.87-.5A.1.1,0,0,0,92.62,204.26Zm1.24.68-.72-.41a.28.28,0,0,0-.25,0l-1.22.7a.26.26,0,0,1-.21,0l-1-.56a.42.42,0,0,0-.38,0l-2.19,1.27a.12.12,0,0,0,0,.22l1.91,1.1a.42.42,0,0,0,.38,0l3.64-2.1A.12.12,0,0,0,93.86,204.94Z"/><polygon class="cls-51" points="85.01 208.13 105 196.51 98.96 207.62 78.97 219.24 85.01 208.13"/><polygon class="cls-46" points="84.72 207.81 104.71 196.19 105 196.51 85.01 208.13 84.72 207.81"/><polygon class="cls-52" points="84.72 207.81 85.01 208.13 78.97 219.24 78.8 219.14 78.8 219.5 64.77 211.4 64.78 210.65 78.78 218.74 84.72 207.81"/><path class="cls-43" d="M74.67,205.54c1.68,1.6,2.15,2.1,2.3,4.4a2.88,2.88,0,0,1-.15,1.4c-.33.7-1.15,1-1.82,1.4a2.28,2.28,0,0,1-2,.49,1,1,0,0,1-.53-.27,1.47,1.47,0,0,1-.27-.47c-1.16-2.78-1-1.18-3.79-4.77a.66.66,0,0,1-.13-.25.56.56,0,0,1,.06-.33,5.34,5.34,0,0,1,2.13-2.45,1.59,1.59,0,0,1,.79-.22A9.82,9.82,0,0,1,74.67,205.54Z"/><path class="cls-43" d="M85.72,203.48c.39,1,2,.86,2.34.8.71-.14,2.14-.71,2.21-1.28a10.09,10.09,0,0,0-.76-5.5A9.19,9.19,0,0,0,87.72,195c-.92-.81-3.89,1.1-3.75,1.89,0,.22.59,1.64.86,2.85A23.29,23.29,0,0,0,85.72,203.48Z"/><path class="cls-34" d="M210.57,244.29c-.28.89-6.25,6.67-6.75,7.06-3.7,2.91-8,.2-5.63-3,.68-.91,6.75-7.83,7.13-8.19a3.81,3.81,0,0,1,1.19-.92c1.08-.47,2.1,0,3.12.44C211.46,240.47,210.77,243.65,210.57,244.29Z"/><path class="cls-35" d="M197.54,249.77c.65,1.76,3.57,2.51,6.19.46.49-.4,6.46-6.17,6.75-7.07a7.61,7.61,0,0,0,.29-1.91,7,7,0,0,1-.2,3c-.28.89-6.25,6.67-6.75,7.06C200.7,253.81,197.13,252.26,197.54,249.77Z"/><path class="cls-43" d="M205.73,244.14c-1.23.31-2-.07-1.81-1.15a12.67,12.67,0,0,1,1.36-2.4l.35-1.84a17.08,17.08,0,0,1,4.4-.43s.09,1.21.09,2.45C210.12,241.52,208.88,243.37,205.73,244.14Z"/><path class="cls-34" d="M218.2,249.85c-.38.86-6.95,5.94-7.49,6.28-4,2.48-8-.69-5.25-3.64.77-.83,7.57-7,8-7.36a4.2,4.2,0,0,1,1.28-.77,3.77,3.77,0,0,1,3.06.78C219.51,246.16,218.48,249.24,218.2,249.85Z"/><path class="cls-35" d="M204.65,253.86c.45,1.82,3.27,2.89,6.1,1.14.53-.34,7.11-5.42,7.49-6.28a8,8,0,0,0,.5-1.86,6.94,6.94,0,0,1-.54,3c-.38.86-6.95,5.94-7.49,6.28C207.34,258.22,204,256.29,204.65,253.86Z"/><path class="cls-43" d="M212,248.75a.84.84,0,0,1-.47-1.22c.55-.91,1.94-2,2.25-2.7a5,5,0,0,0,.24-1.22c.24-1.57,1.79-1.37,2.89-.77a2.44,2.44,0,0,1,1.3,1.92,2.91,2.91,0,0,1-.81,2.46C215.74,248.54,213.5,249.22,212,248.75Z"/><path class="cls-53" d="M230.51,153.88a14,14,0,0,1-.18,2.33c-.77,5.43-3.93,17.52-3.93,17.52l-7.8,16.89c-.71,1.2-4-.14-3.51-1.87,1.14-3.76,5.33-18.85,5.33-18.85s1.82-16.44,2.17-17.53c.52-1.63,1.93-4.67,4.6-4.3S230.44,151.72,230.51,153.88Z"/><path class="cls-39" d="M221.92,165c1.76-4.26,7.09-7.24,5.08-16.63,3.11-.84,19.35,8.4,20.75,11.68,0,0-5,11-6.12,18-.57,3.49.49,7,1.45,10.4.24,5.71-17.68-.79-17.81-3.82s-.1-7.76-.19-9.86c-.06-1.24-1.58-3.46-2.24-4.47C221.5,168.29,221.23,166.7,221.92,165Z"/><path class="cls-36" d="M245.78,199.68c-.71,4.68-2.63,6.14-6.22,9.24-15,13-16.4,11.85-16.05,13.61a20.3,20.3,0,0,1-.88,11.65c-1.72,4.23-3.19,5.85-3.84,10.15-.5,1.87-6,1-5.53-.57,1.73-7.43,1.68-11.77,1.64-19.71,0-2.43-.05-5.21.89-7.45,1.31-3.1,9.08-9.45,11-12.29,0,0-11.26,6-17.05,12,3,8.23-.42,13.44.72,23.07.27,2.35-5.41,2.61-5.34.63.09-3-3.17-17-4.47-23.16a9.2,9.2,0,0,1,1.57-7.33c.59-.79,1.25-1.54,1.9-2.27,4.35-4.84,16-16,18.39-18.24a28.12,28.12,0,0,0,2.72-5.73c.2,2.91,7.6,7.13,17.45,3.76C245.16,191.41,246.33,196.06,245.78,199.68Z"/><path class="cls-39" d="M249,164.56a14,14,0,0,1-.19,2.32c-.76,5.43-3.92,17.52-3.92,17.52l-16.22,12.08c-1.21.7-3.54-1.85-2.76-2.78,3.62-3.31,13-13.13,13-13.13s1.83-16.44,2.18-17.53c.52-1.63,1.93-4.66,4.59-4.29S248.93,162.4,249,164.56Z"/><path class="cls-54" d="M225.91,193.69c2.25-2.1,4.4-4.3,6.56-6.49l6.41-6.64,1-8.77.54-4.38.28-2.19c.11-.73.19-1.46.36-2.18-.13.72-.2,1.46-.29,2.19l-.25,2.19-.5,4.39-.94,8.78a.22.22,0,0,1-.05.11c-2.14,2.22-4.3,4.41-6.47,6.6s-4.35,4.36-6.65,6.4C225.9,193.7,225.9,193.69,225.91,193.69Z"/><path class="cls-55" d="M238,131.58a6.61,6.61,0,0,1,6.76,5.6,4.45,4.45,0,0,1-2.47,4.4c-2,1.11-2.31,0-3.81-.48-1.21-.37-5.78-4.66-5.42-5.48A5.62,5.62,0,0,1,238,131.58Z"/><path class="cls-41" d="M239.5,155.53c-.37,3.11-8.06,6.25-8.3,1.67a20,20,0,0,0-.52-4.23c-.69-2.62-.31-5.19,3.41-5.86,4.61-.82,3.39,1.93,3.6,3.74C238,153.9,239.6,154.69,239.5,155.53Z"/><path class="cls-43" d="M241.67,138.61a4.59,4.59,0,0,1,.63,3.09c-.4,4.89-6.67,12.48-11.26,14.43-3.8,1.61-4.08-3.93-4.37-8.8-.06-1.07,0-2.6,0-3.9a8.91,8.91,0,0,1,4.08-7.25,6.71,6.71,0,0,1,6.47-.62A20.67,20.67,0,0,1,241.67,138.61Z"/><path class="cls-55" d="M242.68,140.62c1,4.95-4.24,9.2-4.24,9.2-2,.87-.81-4.91-3.36-4.78-6.62.33-7.49-2.46-7.79-3-.19-.34-.46.14-.46.14C227.21,133.3,240.78,131.15,242.68,140.62Z"/><path class="cls-43" d="M240.35,148.37c-.41,1-2.93,3.06-3.5,3s-.08-2.15.11-2.82C237.63,146.12,241.17,146.31,240.35,148.37Z"/><polygon class="cls-56" points="220.62 209.94 201.16 198.63 201.16 198.98 220.62 210.29 220.62 209.94"/><polygon class="cls-57" points="234.27 201.68 214.81 190.37 201.18 198.24 220.64 209.55 234.27 201.68"/><path class="cls-58" d="M215.75,197.16l6.24,3.61a.57.57,0,0,0,.51,0l4.14-2.39a.15.15,0,0,0,0-.29l-6.25-3.61a.57.57,0,0,0-.51,0l-4.13,2.39C215.6,197,215.6,197.08,215.75,197.16Z"/><path class="cls-59" d="M226.64,198.16l-6.25-3.6a.52.52,0,0,0-.51,0L215.75,197c-.06,0-.09.06-.1.1s0-.13.1-.18l4.13-2.39a.57.57,0,0,1,.51,0l6.25,3.61c.09,0,.12.12.1.18A.21.21,0,0,0,226.64,198.16Z"/><path class="cls-60" d="M221.49,205.89l-.7.41a.32.32,0,0,1-.3,0l-.84-.49a.08.08,0,0,1-.06-.1c0-.09,0-.13.06-.15l.71-.41a.3.3,0,0,1,.29,0l.84.48s.07.07.06.1S221.54,205.86,221.49,205.89Zm1.76-.55c0-.1,0-.13-.05-.16l-.84-.49a.32.32,0,0,0-.3,0l-.71.41s-.06.06,0,.1,0,.13,0,.16l.84.48a.32.32,0,0,0,.3,0l.71-.4A.09.09,0,0,0,223.25,205.34Zm-3.85-2.78a.11.11,0,0,0-.06.1c0,.09,0,.13.06.16l.84.49a.39.39,0,0,0,.3,0l.71-.41a.1.1,0,0,0,.05-.1c0-.1,0-.13-.05-.16C220.09,202,220.44,202,219.4,202.56ZM209.91,200l.71-.41a.1.1,0,0,0,.06-.1c0-.09,0-.13-.06-.15l-.84-.49a.32.32,0,0,0-.3,0l-.71.41s-.06.06-.05.1,0,.13.05.16l.85.48A.3.3,0,0,0,209.91,200Zm9.52,5.5.71-.41a.1.1,0,0,0,.05-.1c0-.1,0-.13-.05-.16l-.85-.49a.37.37,0,0,0-.29,0l-.71.41s-.07.07-.06.1,0,.13.06.16l.84.49A.39.39,0,0,0,219.43,205.52Zm2-2.58-.71.41a.08.08,0,0,0-.06.1c0,.09,0,.13.06.15l.84.49a.32.32,0,0,0,.3,0l.7-.41c.05,0,.07-.06.06-.1s0-.13-.06-.16l-.84-.48A.3.3,0,0,0,221.47,202.94Zm-8.84-1.35.71-.41a.1.1,0,0,0,.06-.1c0-.09,0-.13-.06-.15l-.84-.49a.32.32,0,0,0-.3,0l-.71.41s-.06.06-.05.1,0,.13.05.16l.84.48A.32.32,0,0,0,212.63,201.59Zm6.12-.22-.71.41a.1.1,0,0,0-.06.1c0,.09,0,.13.06.15l.84.49a.32.32,0,0,0,.3,0l.71-.41s.06-.06.05-.1,0-.13-.05-.16l-.85-.48A.3.3,0,0,0,218.75,201.37Zm-4.76,1,.71-.41a.09.09,0,0,0,.05-.1c0-.09,0-.13-.05-.16l-.84-.49a.39.39,0,0,0-.3,0l-.71.41a.09.09,0,0,0,0,.1c0,.1,0,.13,0,.16l.84.49A.39.39,0,0,0,214,202.38Zm4.08,2.35.71-.41a.09.09,0,0,0,.05-.1c0-.09,0-.13-.05-.15l-.85-.49a.3.3,0,0,0-.29,0l-.71.41a.1.1,0,0,0-.06.1c0,.09,0,.13.06.16l.84.48A.32.32,0,0,0,218.07,204.73Zm-6.8-3.92.71-.41a.11.11,0,0,0,.06-.1c0-.09,0-.13-.06-.16l-.84-.48a.32.32,0,0,0-.3,0l-.71.4a.1.1,0,0,0,0,.1c0,.1,0,.13,0,.16l.85.49A.37.37,0,0,0,211.27,200.81Zm5.44,3.14.71-.41a.1.1,0,0,0,.05-.1c0-.1,0-.13-.05-.16l-.85-.49a.37.37,0,0,0-.29,0l-.71.41a.11.11,0,0,0-.06.1c0,.1,0,.13.06.16l.84.49A.39.39,0,0,0,216.71,204Zm-1.36-.79.71-.41a.09.09,0,0,0,.05-.1c0-.09,0-.13-.05-.15l-.84-.49a.32.32,0,0,0-.3,0l-.71.41a.1.1,0,0,0-.06.1c0,.09,0,.13.06.16l.84.48A.32.32,0,0,0,215.35,203.16Zm7.48.56-.71.41c-.05,0-.07.07-.06.1s0,.13.06.16l.84.48a.32.32,0,0,0,.3,0l.7-.4s.07-.07.06-.1,0-.13-.06-.16l-.84-.49A.37.37,0,0,0,222.83,203.72Zm-4.42-.23.71-.41a.1.1,0,0,0,.06-.1c0-.09,0-.13-.06-.16l-.84-.48a.32.32,0,0,0-.3,0l-.71.41a.09.09,0,0,0-.05.1c0,.09,0,.13.05.15l.85.49A.3.3,0,0,0,218.41,203.49Zm-4.08-2.35.71-.41c.05,0,.07-.07.06-.1s0-.13-.06-.16l-.84-.49a.39.39,0,0,0-.3,0l-.7.41s-.07.07-.06.1,0,.13.06.16l.84.49A.37.37,0,0,0,214.33,201.14Zm1.36.78.71-.41s.07-.06.06-.1,0-.13-.06-.16l-.84-.48a.32.32,0,0,0-.3,0l-.7.41a.08.08,0,0,0-.06.1c0,.09,0,.13.06.15l.84.49A.3.3,0,0,0,215.69,201.92Zm1.36.78.71-.4c.05,0,.07-.07.06-.1s0-.13-.06-.16l-.84-.49a.39.39,0,0,0-.3,0l-.7.41s-.07.07-.06.1,0,.13.06.16l.84.48A.3.3,0,0,0,217.05,202.7ZM206.53,197l-.84-.49a.32.32,0,0,0-.3,0l-.7.41c-.05,0-.07.06-.06.1s0,.13.06.16l.84.48a.3.3,0,0,0,.29,0l.71-.4c.05,0,.07-.07.06-.1S206.58,197,206.53,197Zm13.24,7.26.71-.4a.11.11,0,0,0,.06-.1c0-.1,0-.13-.06-.16l-.84-.49a.39.39,0,0,0-.3,0l-.71.41a.1.1,0,0,0,0,.1c0,.09,0,.13,0,.16l.85.48A.3.3,0,0,0,219.77,204.27Zm.22,0a.09.09,0,0,0-.05.1c0,.09,0,.13.05.15l.84.49a.32.32,0,0,0,.3,0l.71-.41a.1.1,0,0,0,.06-.1c0-.09,0-.13-.06-.16l-.84-.48a.32.32,0,0,0-.3,0Zm-4-4.52-.71.41a.08.08,0,0,0,0,.1c0,.09,0,.13,0,.15l.84.49a.32.32,0,0,0,.3,0l.71-.41c.05,0,.06-.06.05-.1s0-.13-.05-.16l-.84-.48A.32.32,0,0,0,216,199.8Zm-1.36-.79-.71.41a.1.1,0,0,0-.05.1c0,.1,0,.13.05.16l.84.49a.39.39,0,0,0,.3,0l.71-.41a.11.11,0,0,0,.06-.1c0-.1,0-.13-.06-.16L215,199A.39.39,0,0,0,214.67,199ZM213,200.35l.7-.41s.07-.06.06-.1,0-.13-.06-.16l-.84-.48a.3.3,0,0,0-.29,0l-.71.41a.08.08,0,0,0-.06.1c0,.09,0,.13.06.15l.84.49A.32.32,0,0,0,213,200.35Zm.33-2.12-.71.41s-.06.06,0,.1,0,.13,0,.16l.85.48a.3.3,0,0,0,.29,0l.71-.41a.1.1,0,0,0,.06-.1c0-.09,0-.13-.06-.15l-.84-.49A.32.32,0,0,0,213.31,198.23Zm4.08,2.35-.71.41a.11.11,0,0,0-.06.1c0,.1,0,.13.06.16l.84.49c.19.1.31,0,1-.41a.1.1,0,0,0,.05-.1c0-.1,0-.13-.05-.16l-.84-.49A.39.39,0,0,0,217.39,200.58Zm-5.77-1,.7-.41c.05,0,.07-.07.06-.1s0-.13-.06-.16l-1.28-.74a.3.3,0,0,0-.29,0l-.71.41a.1.1,0,0,0-.06.1c0,.09,0,.13.06.16l1.28.74A.39.39,0,0,0,211.62,199.57Zm-.43-1.62c0,.1,0,.13.05.16l.85.49a.37.37,0,0,0,.29,0l.71-.41a.11.11,0,0,0,.06-.1c0-.1,0-.13-.06-.16l-.84-.49a.39.39,0,0,0-.3,0l-.71.41A.1.1,0,0,0,211.19,198Zm5,.47c0-.1,0-.13-.06-.16l-.84-.49a.37.37,0,0,0-.29,0l-.71.41c-.05,0-.07.07-.06.1s0,.13.06.16l.84.48a.32.32,0,0,0,.3,0l.7-.4S216.22,198.45,216.21,198.42Zm4,9c0,.09,0,.13.06.16l.84.48a.3.3,0,0,0,.29,0l.71-.41a.08.08,0,0,0,.06-.1c0-.09,0-.13-.06-.15l-.84-.49a.32.32,0,0,0-.3,0l-.7.41C220.2,207.34,220.18,207.37,220.19,207.41Zm-1.36-.79c0,.1,0,.13.06.16l.84.49a.39.39,0,0,0,.3,0l.7-.41c.05,0,.07-.07.06-.1s0-.13-.06-.16l-.84-.49a.37.37,0,0,0-.29,0l-.71.41S218.82,206.59,218.83,206.62Zm2.18,0,1.28.74a.3.3,0,0,0,.29,0l.71-.41c.05,0,.07-.06.06-.1s0-.13-.06-.16l-1.28-.74a.37.37,0,0,0-.29,0l-.71.41s-.07.07-.06.1S221,206.57,221,206.6Zm-3.54-.76c0,.09,0,.13.06.16l.84.48a.32.32,0,0,0,.3,0l.7-.41a.08.08,0,0,0,.06-.1c0-.09,0-.13-.06-.15l-.84-.49a.3.3,0,0,0-.29,0l-.71.41C217.48,205.77,217.46,205.8,217.47,205.84Zm7.71-1.12.84.48a.32.32,0,0,0,.3,0l.71-.41a.08.08,0,0,0,.05-.1c0-.09,0-.13-.05-.15l-.84-.49a.32.32,0,0,0-.3,0l-.71.41c-.05,0-.06.06-.05.1S225.13,204.69,225.18,204.72Zm-2.47,1.42.84.49a.32.32,0,0,0,.3,0l.71-.41c.05,0,.06-.06.05-.1s0-.13-.05-.16l-.84-.48a.32.32,0,0,0-.3,0l-.71.41a.08.08,0,0,0-.05.1C222.65,206.08,222.66,206.12,222.71,206.14Zm.77-1,1.28.74a.3.3,0,0,0,.29,0l.71-.41a.08.08,0,0,0,.06-.1c0-.09,0-.13-.06-.15l-1.28-.74a.3.3,0,0,0-.29,0l-.71.41a.08.08,0,0,0-.06.1C223.41,205.11,223.43,205.15,223.48,205.17Zm-20.09-7.42c0,.09,0,.13.05.16l.85.48a.3.3,0,0,0,.29,0l.71-.41a.1.1,0,0,0,.06-.1c0-.09,0-.13-.06-.15l-.84-.49a.32.32,0,0,0-.3,0l-.71.41S203.38,197.71,203.39,197.75Zm2.72,1.57c0,.09,0,.13,0,.15l.84.49a.32.32,0,0,0,.3,0l.71-.41c.05,0,.06-.06.05-.1s0-.13-.05-.16l-.84-.48a.32.32,0,0,0-.3,0l-.71.41A.08.08,0,0,0,206.11,199.32Zm-1.36-.79c0,.1,0,.13.05.16l.84.49a.39.39,0,0,0,.3,0l.71-.41a.11.11,0,0,0,.06-.1c0-.1,0-.13-.06-.16l-.84-.49a.39.39,0,0,0-.3,0l-.71.41A.1.1,0,0,0,204.75,198.53Zm11.36,6.52c0,.1,0,.13.06.16l.84.49a.39.39,0,0,0,.3,0l.7-.41c.05,0,.07-.07.06-.1s0-.13-.06-.16l-.84-.48a.3.3,0,0,0-.29,0l-.71.4S216.1,205,216.11,205.05Zm9.61-1.14c0-.09,0-.13-.05-.16l-.84-.48a.32.32,0,0,0-.3,0l-.71.4a.09.09,0,0,0,0,.1c0,.1,0,.13,0,.16l.84.49a.32.32,0,0,0,.3,0l.71-.41A.09.09,0,0,0,225.72,203.91Zm-16.43-2.78c0,.09,0,.13.06.16l6.3,3.63a.3.3,0,0,0,.29,0l.71-.41a.1.1,0,0,0,.06-.1c0-.09,0-.13-.06-.15l-6.3-3.64a.37.37,0,0,0-.29,0l-.71.41A.11.11,0,0,0,209.29,201.13Zm-1.76-1c0,.09,0,.13.05.15l1.28.74a.32.32,0,0,0,.3,0l.71-.41a.09.09,0,0,0,0-.1c0-.09,0-.13,0-.15l-1.28-.74a.32.32,0,0,0-.3,0l-.71.41A.09.09,0,0,0,207.53,200.1Zm1-.86.71-.41a.1.1,0,0,0,.06-.1c0-.09,0-.13-.06-.15l-.84-.49a.32.32,0,0,0-.3,0l-.71.41s-.06.06-.05.1,0,.13.05.16l.85.48A.3.3,0,0,0,208.54,199.24Zm1.77-4.22c0-.1,0-.13-.06-.16l-.84-.49a.39.39,0,0,0-.3,0l-.7.41s-.07.07-.06.1,0,.13.06.16l.84.49a.37.37,0,0,0,.29,0l.71-.41C210.3,195.09,210.32,195.05,210.31,195Zm1.36.78c0-.09,0-.13-.06-.16l-.84-.48a.32.32,0,0,0-.3,0l-.7.41a.08.08,0,0,0-.06.1c0,.09,0,.13.06.15l.84.49a.3.3,0,0,0,.29,0l.71-.41S211.68,195.84,211.67,195.8Zm3.18,1.83c0-.09,0-.13-.06-.16l-1.28-.74a.37.37,0,0,0-.29,0l-.71.41a.11.11,0,0,0-.06.1c0,.1,0,.13.06.16l1.28.74a.32.32,0,0,0,.3,0l.7-.41C214.84,197.7,214.86,197.67,214.85,197.63Zm-1.82-1c0-.1,0-.13-.06-.16l-.84-.49a.39.39,0,0,0-.3,0l-.7.41s-.07.07-.06.1,0,.13.06.16l.84.49a.37.37,0,0,0,.29,0l.71-.41C213,196.66,213,196.62,213,196.59Zm-4-1-.84-.49a.3.3,0,0,0-.29,0l-.71.41s-.07.06-.06.1,0,.13.06.16l.84.48a.32.32,0,0,0,.3,0l.7-.41a.08.08,0,0,0,.06-.1C209.08,195.64,209.06,195.6,209,195.58Zm-1.83,2.88.71-.41c.05,0,.07-.06.06-.1s0-.13-.06-.16l-.84-.48a.32.32,0,0,0-.3,0l-.7.41a.08.08,0,0,0-.06.1c0,.09,0,.13.06.15l.84.49A.3.3,0,0,0,207.18,198.46ZM223,202.34c0-.09,0-.13-.06-.16l-.84-.48a.32.32,0,0,0-.3,0l-.71.4a.1.1,0,0,0,0,.1c0,.1,0,.13,0,.16l.85.49a.3.3,0,0,0,.29,0l.71-.41A.1.1,0,0,0,223,202.34Zm-1.36-.79c0-.09,0-.13-.06-.15l-.84-.49a.32.32,0,0,0-.3,0l-.71.41s-.06.06-.05.1,0,.13.05.16c1.18.68.83.66,1.85.07A.1.1,0,0,0,221.65,201.55Zm2.72,1.57c0-.09,0-.13-.06-.15l-.84-.49a.32.32,0,0,0-.3,0l-.71.41s-.06.06-.05.1,0,.13.05.16l.85.48a.3.3,0,0,0,.29,0l.71-.41A.1.1,0,0,0,224.37,203.12Zm-4.08-2.35c0-.09,0-.13-.06-.16l-.84-.48a.32.32,0,0,0-.3,0l-.7.41a.08.08,0,0,0-.06.1c0,.09,0,.13.06.15l.84.49a.3.3,0,0,0,.29,0l.71-.41C220.28,200.84,220.3,200.81,220.29,200.77Zm-2.72-1.57c0-.09,0-.13-.06-.16l-.84-.48a.32.32,0,0,0-.3,0l-.7.41a.08.08,0,0,0-.06.1c0,.09,0,.13.06.15l.84.49a.3.3,0,0,0,.29,0l.71-.41C217.56,199.27,217.58,199.24,217.57,199.2Zm1.36.79c0-.1,0-.13-.06-.16l-.84-.49a.32.32,0,0,0-.3,0l-.7.41c-.05,0-.07.06-.06.1s0,.13.06.16l.84.48a.3.3,0,0,0,.29,0l.71-.4S218.94,200,218.93,200Zm-10.84-3.55-1.19-.68a.25.25,0,0,0-.24,0l-.7.4a.12.12,0,0,0-.07.12.17.17,0,0,0,.07.18l3.54,2a.4.4,0,0,0,.37,0l1.86-1.07c.06,0,.08-.08.07-.12s0-.15-.07-.18l-2.13-1.23a.4.4,0,0,0-.37,0l-.93.53A.22.22,0,0,1,208.09,196.44Z"/><path class="cls-61" d="M225.18,204.42l.71-.41a.39.39,0,0,1,.3,0l.84.49c.08.05.08.12,0,.17l-.71.41a.32.32,0,0,1-.3,0l-.84-.49C225.1,204.55,225.1,204.47,225.18,204.42Zm-1.36-.61.84.48a.32.32,0,0,0,.3,0l.71-.4a.1.1,0,0,0,0-.18l-.84-.48a.32.32,0,0,0-.3,0l-.71.41C223.74,203.68,223.74,203.76,223.82,203.81Zm-1.36-.79.85.49a.3.3,0,0,0,.29,0l.71-.41c.08,0,.08-.12,0-.17l-.84-.49a.39.39,0,0,0-.3,0l-.71.41C222.38,202.9,222.38,203,222.46,203Zm-1.36-.78.85.48a.3.3,0,0,0,.29,0l.71-.4a.1.1,0,0,0,0-.18l-.84-.48a.32.32,0,0,0-.3,0l-.71.41C221,202.11,221,202.19,221.1,202.24Zm-1.36-.79.85.49a.3.3,0,0,0,.29,0l.71-.41c.08-.05.08-.12,0-.17l-.84-.49a.39.39,0,0,0-.3,0l-.71.41C219.66,201.33,219.66,201.41,219.74,201.45Zm-1.35-.78.84.49a.37.37,0,0,0,.29,0l.71-.41c.08-.05.08-.13,0-.17l-.84-.49a.32.32,0,0,0-.3,0l-.7.41C218.3,200.55,218.3,200.62,218.39,200.67Zm-1.36-.79.84.49a.3.3,0,0,0,.29,0l.71-.41c.08-.05.08-.12,0-.17l-.84-.49a.39.39,0,0,0-.3,0l-.7.41C216.94,199.76,216.94,199.84,217,199.88Zm-1.36-.78.84.49a.37.37,0,0,0,.29,0l.71-.41c.08-.05.08-.13,0-.17l-.84-.49a.32.32,0,0,0-.3,0l-.7.41C215.58,199,215.58,199.05,215.67,199.1Zm-1.36-.79.84.49a.32.32,0,0,0,.3,0l.7-.41c.09,0,.09-.12,0-.17l-.84-.49a.37.37,0,0,0-.29,0l-.71.41C214.23,198.19,214.23,198.27,214.31,198.31Zm-1.8-1,1.28.74a.39.39,0,0,0,.3,0l.7-.41c.09-.05.09-.13,0-.17l-1.28-.74a.3.3,0,0,0-.29,0l-.71.41C212.43,197.15,212.43,197.23,212.51,197.28Zm-5.11,1.35.85.49a.3.3,0,0,0,.29,0l.71-.41c.08-.05.08-.12,0-.17l-.84-.49a.39.39,0,0,0-.3,0l-.71.41C207.32,198.51,207.32,198.59,207.4,198.63Zm-1.35-.78.84.49a.37.37,0,0,0,.29,0l.71-.41c.08-.05.08-.13,0-.17l-.84-.49a.32.32,0,0,0-.3,0l-.7.41C206,197.73,206,197.8,206.05,197.85Zm-1.36-.79.84.49a.3.3,0,0,0,.29,0l.71-.41c.08,0,.08-.12,0-.17l-.84-.49a.39.39,0,0,0-.3,0l-.7.41C204.6,196.94,204.6,197,204.69,197.06Zm1.47,2.29.84.49a.39.39,0,0,0,.3,0l.71-.41c.08-.05.08-.13,0-.17l-.84-.49a.32.32,0,0,0-.3,0l-.71.41C206.08,199.23,206.08,199.3,206.16,199.35Zm-1.36-.78.84.48a.32.32,0,0,0,.3,0l.71-.41c.08,0,.08-.12,0-.17l-.84-.48a.32.32,0,0,0-.3,0l-.71.41C204.72,198.44,204.72,198.52,204.8,198.57Zm-1.36-.79.85.49a.37.37,0,0,0,.29,0l.71-.41c.08-.05.08-.12,0-.17l-.84-.49a.32.32,0,0,0-.3,0l-.71.41C203.36,197.66,203.36,197.73,203.44,197.78Zm20,7.27,1.28.74a.3.3,0,0,0,.29,0l.71-.41c.08,0,.08-.12,0-.17l-1.28-.74a.3.3,0,0,0-.29,0l-.71.41C223.4,204.93,223.4,205,223.48,205.05Zm-1.36-.79.84.49a.32.32,0,0,0,.3,0l.7-.41c.09,0,.09-.12,0-.17l-.84-.48a.3.3,0,0,0-.29,0l-.71.4C222,204.14,222,204.22,222.12,204.26Zm-1.36-.78.84.49a.39.39,0,0,0,.3,0l.7-.41c.09-.05.09-.13,0-.17l-.84-.49a.3.3,0,0,0-.29,0l-.71.41C220.68,203.36,220.68,203.43,220.76,203.48Zm-1.36-.78.84.48a.32.32,0,0,0,.3,0l.71-.41c.08,0,.08-.12,0-.17l-.85-.48a.3.3,0,0,0-.29,0l-.71.4A.1.1,0,0,0,219.4,202.7Zm-1.36-.79.84.49a.39.39,0,0,0,.3,0l.71-.41c.08-.05.08-.13,0-.17l-.85-.49a.3.3,0,0,0-.29,0l-.71.41C218,201.79,218,201.86,218,201.91Zm-1.36-.78.84.48a.32.32,0,0,0,.3,0l.71-.41c.08,0,.08-.12,0-.17l-.84-.48a.32.32,0,0,0-.3,0l-.71.4A.1.1,0,0,0,216.68,201.13Zm-1.36-.79.84.49a.39.39,0,0,0,.3,0l.71-.41c.08,0,.08-.13,0-.17l-.84-.49a.32.32,0,0,0-.3,0l-.71.41C215.24,200.22,215.24,200.29,215.32,200.34Zm-1.36-.78.84.48a.32.32,0,0,0,.3,0l.71-.41c.08,0,.08-.12,0-.17L215,199a.32.32,0,0,0-.3,0l-.71.41C213.88,199.43,213.88,199.51,214,199.56Zm-1.36-.79.85.49a.37.37,0,0,0,.29,0l.71-.41c.08,0,.08-.12,0-.17l-.84-.49a.32.32,0,0,0-.3,0l-.71.41C212.52,198.65,212.52,198.72,212.6,198.77Zm-1.36-.78.85.48a.3.3,0,0,0,.29,0l.71-.41c.08,0,.08-.12,0-.17l-.84-.48a.32.32,0,0,0-.3,0l-.71.41C211.16,197.86,211.16,197.94,211.24,198Zm11.47,8,.84.49a.39.39,0,0,0,.3,0l.71-.41c.08,0,.08-.13,0-.17l-.84-.49a.32.32,0,0,0-.3,0l-.71.41C222.63,205.9,222.63,206,222.71,206Zm-1.36-.79.84.49a.32.32,0,0,0,.3,0l.71-.41c.08-.05.08-.12,0-.17l-.84-.49a.39.39,0,0,0-.3,0l-.71.41C221.27,205.11,221.27,205.19,221.35,205.23Zm-1.36-.78.84.49a.39.39,0,0,0,.3,0l.71-.41c.08-.05.08-.13,0-.17l-.84-.49a.32.32,0,0,0-.3,0l-.71.41C219.91,204.33,219.91,204.4,220,204.45Zm-1.36-.79.85.49a.3.3,0,0,0,.29,0l.71-.41c.08-.05.08-.12,0-.17l-.84-.49a.39.39,0,0,0-.3,0l-.71.41C218.55,203.54,218.55,203.62,218.63,203.66Zm1.62,3.78.84.49a.3.3,0,0,0,.29,0l.71-.41c.08-.05.08-.12,0-.17l-.84-.49a.39.39,0,0,0-.3,0l-.7.41C220.16,207.32,220.16,207.39,220.25,207.44Zm-1.36-.78.84.48a.32.32,0,0,0,.3,0l.7-.41c.09,0,.09-.12,0-.17l-.84-.48a.3.3,0,0,0-.29,0l-.71.41C218.81,206.53,218.81,206.61,218.89,206.66Zm-1.36-.79.84.49a.32.32,0,0,0,.3,0l.7-.41c.09,0,.09-.12,0-.17l-.84-.49a.37.37,0,0,0-.29,0l-.71.41C217.45,205.75,217.45,205.83,217.53,205.87Zm-1.36-.78.84.48a.32.32,0,0,0,.3,0l.7-.4c.09,0,.09-.13,0-.18l-.84-.48a.3.3,0,0,0-.29,0l-.71.41C216.09,205,216.09,205,216.17,205.09Zm-8.59-5,1.28.74a.32.32,0,0,0,.3,0l.71-.41c.08-.05.08-.12,0-.17l-1.28-.74a.32.32,0,0,0-.3,0l-.71.41C207.5,200,207.5,200.08,207.58,200.13Zm9.69,2.75.85.49a.37.37,0,0,0,.29,0l.71-.41c.08-.05.08-.13,0-.17l-.84-.49a.32.32,0,0,0-.3,0l-.71.41C217.19,202.76,217.19,202.83,217.27,202.88Zm-1.35-.78.84.48a.3.3,0,0,0,.29,0l.71-.41c.08,0,.08-.12,0-.17l-.84-.48a.32.32,0,0,0-.3,0l-.7.4C215.83,202,215.83,202.05,215.92,202.1Zm-1.36-.79.84.49a.37.37,0,0,0,.29,0l.71-.41c.08,0,.08-.13,0-.17l-.84-.49a.32.32,0,0,0-.3,0l-.7.41C214.47,201.19,214.47,201.26,214.56,201.31Zm-1.36-.78.84.48a.3.3,0,0,0,.29,0l.71-.41c.08,0,.08-.12,0-.17l-.84-.48a.32.32,0,0,0-.3,0l-.7.4C213.11,200.4,213.11,200.48,213.2,200.53Zm-1.36-.79.84.49a.39.39,0,0,0,.3,0l.7-.41c.09,0,.09-.13,0-.17l-.84-.49a.3.3,0,0,0-.29,0l-.71.41C211.76,199.62,211.76,199.69,211.84,199.74Zm-1.8-1,1.28.74a.32.32,0,0,0,.3,0l.7-.41c.09,0,.09-.12,0-.17l-1.28-.74a.37.37,0,0,0-.29,0l-.71.41C210,198.58,210,198.66,210,198.7Zm11,7.78,1.28.73a.3.3,0,0,0,.29,0l.71-.4c.08-.05.08-.13,0-.17L222,205.9a.3.3,0,0,0-.29,0l-.71.4A.1.1,0,0,0,221,206.48Zm-1.36-.79.84.49a.39.39,0,0,0,.3,0l.7-.41c.09-.05.09-.13,0-.17l-.84-.49a.3.3,0,0,0-.29,0l-.71.41C219.57,205.57,219.57,205.64,219.65,205.69Zm-1.36-.78.84.48a.32.32,0,0,0,.3,0l.71-.41c.08,0,.08-.12,0-.17l-.85-.48a.3.3,0,0,0-.29,0l-.71.41C218.21,204.78,218.21,204.86,218.29,204.91Zm-1.36-.79.84.49a.39.39,0,0,0,.3,0l.71-.41c.08,0,.08-.13,0-.17l-.85-.49a.3.3,0,0,0-.29,0l-.71.41C216.85,204,216.85,204.07,216.93,204.12Zm-1.36-.78.84.48a.32.32,0,0,0,.3,0l.71-.41c.08,0,.08-.12,0-.17l-.85-.48a.3.3,0,0,0-.29,0l-.71.41C215.49,203.21,215.49,203.29,215.57,203.34Zm-6.22-2.17,6.3,3.63a.3.3,0,0,0,.29,0l.71-.41c.08,0,.08-.12,0-.17l-6.3-3.63a.3.3,0,0,0-.29,0l-.71.4A.1.1,0,0,0,209.35,201.17Zm4.86,1.38.84.49a.32.32,0,0,0,.3,0l.71-.41c.08,0,.08-.12,0-.17l-.84-.49a.32.32,0,0,0-.3,0l-.71.41C214.13,202.43,214.13,202.5,214.21,202.55Zm-1.36-.78.84.48a.32.32,0,0,0,.3,0l.71-.41c.08,0,.08-.12,0-.17l-.84-.48a.32.32,0,0,0-.3,0l-.71.41C212.77,201.64,212.77,201.72,212.85,201.77Zm-1.36-.79.84.49a.32.32,0,0,0,.3,0l.71-.41c.08-.05.08-.12,0-.17l-.84-.49a.39.39,0,0,0-.3,0l-.71.41C211.41,200.86,211.41,200.94,211.49,201Zm-1.36-.78.85.48a.3.3,0,0,0,.29,0l.71-.41c.08,0,.08-.12,0-.17l-.84-.48a.32.32,0,0,0-.3,0l-.71.41C210.05,200.07,210.05,200.15,210.13,200.2Zm-1.36-.79.85.49a.3.3,0,0,0,.29,0l.71-.41c.08-.05.08-.12,0-.17l-.84-.49a.39.39,0,0,0-.3,0l-.71.41C208.69,199.29,208.69,199.37,208.77,199.41Zm2.36-2.92.84.48a.3.3,0,0,0,.29,0l.71-.41c.08,0,.08-.12,0-.17l-.84-.48a.32.32,0,0,0-.3,0l-.7.4C211,196.36,211,196.44,211.13,196.49Zm-1.36-.79.84.49a.37.37,0,0,0,.29,0l.71-.41c.08-.05.08-.13,0-.17l-.84-.49a.32.32,0,0,0-.3,0l-.7.41C209.68,195.58,209.68,195.65,209.77,195.7Zm-1.36-.78.84.48a.3.3,0,0,0,.29,0l.71-.41c.08,0,.08-.12,0-.17l-.84-.48a.32.32,0,0,0-.3,0l-.7.41C208.33,194.79,208.33,194.87,208.41,194.92Zm-1.24.71.84.49a.32.32,0,0,0,.3,0l.7-.41c.09-.05.09-.12,0-.17l-.84-.49a.3.3,0,0,0-.29,0l-.71.41C207.09,195.51,207.09,195.58,207.17,195.63Zm-1.21.7,3.54,2a.4.4,0,0,0,.37,0l1.86-1.08c.1-.06.1-.15,0-.21l-2.13-1.23a.4.4,0,0,0-.37,0l-.93.54a.26.26,0,0,1-.21,0l-1.19-.68a.25.25,0,0,0-.24,0l-.7.4C205.86,196.18,205.86,196.28,206,196.33Z"/><polygon class="cls-56" points="214.58 199.23 195.12 187.92 200.99 198.73 220.45 210.04 214.58 199.23"/><polygon class="cls-57" points="214.86 198.91 195.4 187.6 195.12 187.92 214.58 199.23 214.86 198.91"/><polygon class="cls-62" points="214.86 198.91 214.58 199.23 220.45 210.04 220.62 209.94 220.62 210.29 234.27 202.41 234.27 201.68 220.64 209.55 214.86 198.91"/><path class="cls-43" d="M222.77,195.93c-.58.58-2.38,4.36-1.82,5.37a4.28,4.28,0,0,0,2.94,1,.89.89,0,0,0,.41-.21,1,1,0,0,0,.21-.37,13.8,13.8,0,0,1,1.39-2.32s1.34-1.45,2.48-2.9a.52.52,0,0,0,.11-.19.58.58,0,0,0-.05-.26,4.17,4.17,0,0,0-1.66-1.91,1.2,1.2,0,0,0-.61-.17A8,8,0,0,0,222.77,195.93Z"/><path class="cls-43" d="M216.9,196.81c-.33.95-1.83,1-2.11.92-.59-.13-1.54-.57-1.55-1.13,0-2.36-.05-3.68.5-5.21a8.35,8.35,0,0,1,1.52-2.18c.77-.8,3.23.43,3.11,1.2,0,.21-.5,1.59-.73,2.77A24.32,24.32,0,0,1,216.9,196.81Z"/><path class="cls-63" d="M270.94,60.48c-1-.6-2.45-.51-4,.39l2.91,1.7c1.57-.91,3-1,4-.4Z"/><polygon class="cls-64" points="231.31 119.14 228.4 117.45 228.43 128.26 231.34 129.95 231.31 119.14"/><path class="cls-64" d="M225.22,116.18l-.06-21.33-2.92-1.7.06,21.33a3.94,3.94,0,0,0,1.65,3.61l2.91,1.7A3.94,3.94,0,0,1,225.22,116.18Z"/><polygon class="cls-65" points="266.93 60.87 227.86 83.43 230.77 85.12 269.84 62.57 266.93 60.87"/><path class="cls-63" d="M227.86,83.43a12.36,12.36,0,0,0-5.62,9.72l2.92,1.7a12.41,12.41,0,0,1,5.61-9.73Z"/><path class="cls-66" d="M269.84,62.57c3.11-1.8,5.64-.36,5.65,3.22l.06,21.33a12.36,12.36,0,0,1-5.61,9.72L237.3,115.68l-6,14.27,0-10.81-.44.26c-3.11,1.79-5.64.35-5.65-3.22l-.06-21.33a12.41,12.41,0,0,1,5.61-9.73Z"/><polygon class="cls-64" points="44.45 148.39 41.53 146.69 47.55 154.06 50.47 155.75 44.45 148.39"/><path class="cls-63" d="M51.86,108.32c-1-.6-2.43-.52-4,.38l2.91,1.7c1.56-.9,3-1,4-.39Z"/><path class="cls-64" d="M6.16,164,6.1,142.68,3.18,141l.06,21.34a3.93,3.93,0,0,0,1.64,3.6l2.92,1.7A3.94,3.94,0,0,1,6.16,164Z"/><polygon class="cls-65" points="47.87 108.7 8.8 131.26 11.71 132.96 50.78 110.4 47.87 108.7"/><path class="cls-63" d="M8.8,131.26A12.38,12.38,0,0,0,3.18,141l2.92,1.69A12.36,12.36,0,0,1,11.71,133Z"/><path class="cls-66" d="M50.78,110.4c3.11-1.8,5.63-.35,5.64,3.22L56.48,135a12.33,12.33,0,0,1-5.6,9.71l-.44.26,0,10.82-6-7.36L11.81,167.23c-3.12,1.8-5.64.36-5.65-3.21L6.1,142.68A12.36,12.36,0,0,1,11.71,133Z"/><path class="cls-67" d="M261.07,168.25l-5.87,3.39v.82l5.87-3.39Zm8.73-5-7.63,4.41v.82L269.8,164Zm-11.24,8.71-3.36,1.94v.82l3.36-1.94Zm6.51-3.76-5.41,3.13v.82l5.41-3.13Zm1.1.19,3.64-2.1v-.82l-3.64,2.1Zm-5.1,4.35-5.87,3.39v.81l5.87-3.38Zm8.73-5-7.63,4.41v.82l7.63-4.41Zm-11.24,8.72-3.36,1.94v.82l3.36-1.94Zm1.1.18,5.41-3.12v-.82l-5.41,3.12Zm6.51-3.76,3.64-2.1v-.82l-3.64,2.1Zm-5.1,4.35-5.87,3.39v.82l5.87-3.39Zm8.73-5-7.63,4.41v.82l7.63-4.41Zm-14.6,11.47,3.36-1.94v-.82l-3.36,1.94Zm4.46-2.58,5.41-3.12v-.82l-5.41,3.13Zm6.51-3.75,3.64-2.1v-.82l-3.64,2.1Z"/><path class="cls-67" d="M261.07,151.33l-5.87,3.38v.82l5.87-3.39Zm8.73-5.05-7.63,4.41v.82l7.63-4.41ZM258.56,155l-3.36,1.95v.81l3.36-1.94Zm6.51-3.75-5.41,3.12v.82l5.41-3.12Zm1.1.18,3.64-2.1v-.82l-3.64,2.1Zm-5.1,4.35-5.87,3.39V160l5.87-3.39Zm8.73-5-7.63,4.4V156l7.63-4.4Zm-11.24,8.71-3.36,1.94v.82l3.36-1.94Zm1.1.18,5.41-3.12v-.82l-5.41,3.12Zm6.51-3.76,3.64-2.1V153l-3.64,2.1Zm-5.1,4.35-5.87,3.39v.82l5.87-3.39Zm8.73-5-7.63,4.41v.82L269.8,156Zm-14.6,11.47,3.36-1.94v-.82l-3.36,1.94Zm4.46-2.57,5.41-3.13v-.81l-5.41,3.12Zm6.51-3.76,3.64-2.1v-.82l-3.64,2.1Z"/><path class="cls-67" d="M275.49,105.08l-3.36,2v.81l3.36-1.94Zm1.1.19,5.41-3.13v-.81l-5.41,3.12Zm6.51-3.76,3.63-2.1v-.82l-3.63,2.1Zm4.74-2.73,7.71-4.46V93.5L287.84,98ZM278,105.86l-5.87,3.39v.82l5.87-3.39Zm7-4-5.86,3.38V106l5.86-3.38Zm1.1.18,2.45-1.41v-.82l-2.45,1.41Zm3.55-2,5.94-3.43v-.82l-5.94,3.44Zm-17.48,12.32,3.36-1.94v-.82l-3.36,1.94Zm4.46-2.58,5.41-3.12v-.82l-5.41,3.12ZM283.1,106l3.63-2.1V103l-3.63,2.1Zm4.74-2.73,7.71-4.46V98l-7.71,4.45Z"/><path class="cls-67" d="M9.4,117.92,6,119.86v.82l3.36-1.94Zm1.1.18L15.91,115v-.82l-5.41,3.12ZM17,114.34l3.63-2.1v-.82L17,113.52Zm4.73-2.73,7.72-4.46v-.82l-7.72,4.46Zm-9.84,7.08L6,122.08v.82l5.86-3.39Zm7-4L13,118.06v.82l5.87-3.39Zm1.1.18,2.45-1.41v-.82L20,114Zm3.55-2,5.94-3.44v-.81L23.52,112ZM6,125.12l3.36-1.94v-.82L6,124.3Zm4.46-2.58,5.41-3.12v-.82l-5.41,3.13ZM17,118.79l3.63-2.1v-.82L17,118Zm4.73-2.74,7.72-4.45v-.82l-7.72,4.45Z"/><path class="cls-67" d="M285.51,89.09l-2.06,1.19v.82l2.06-1.19Zm1.1.19,3.56-2.06V86.4l-3.56,2.06Zm4.66-2.7,4.2-2.42v-.82l-4.2,2.43ZM288,89.87l-4.56,2.63v.82L288,90.69Zm5.13-3-4,2.32v.82l4-2.32Zm1.1.19,1.27-.74v-.82l-1.27.74Zm-10.79,8.44,2.06-1.18v-.82l-2.06,1.19Zm3.16-1.82,3.56-2.06v-.81l-3.56,2.05ZM291.27,91l4.29-2.47v-.82l-4.29,2.47Z"/><path class="cls-67" d="M2.06,193,0,194.22V195l2.06-1.19Zm1.1.19,3.56-2.06v-.82L3.16,192.4Zm4.66-2.7L12,188.1v-.82l-4.2,2.42Zm-3.26,3.29L0,196.44v.82l4.56-2.63Zm5.12-3-4,2.32V194l4-2.32Zm1.1.18,1.27-.73v-.82l-1.27.74ZM0,199.48l2.06-1.18v-.82L0,198.66Zm3.16-1.82,3.56-2.06v-.82l-3.56,2.06ZM7.82,195l4.28-2.47v-.82l-4.28,2.47Z"/><path class="cls-67" d="M87.32,125.27l-6,3.49v.84l6-3.49Zm9-5.18-7.85,4.53v.84l7.85-4.53Zm-11.55,9-3.46,2v.84l3.46-2Zm6.69-3.87-5.56,3.21v.84L91.44,126Zm1.13.19,3.74-2.16v-.84l-3.74,2.16Zm-5.25,4.47-6,3.49v.84l6-3.49Zm9-5.18-7.85,4.53V130l7.85-4.53Zm-11.55,9-3.46,2v.84l3.46-2Zm1.13.19,5.56-3.21v-.84L85.88,133Zm6.69-3.86,3.74-2.16v-.84l-3.74,2.16Zm-5.25,4.47-6,3.48v.85l6-3.49Zm9-5.18-7.85,4.53v.84l7.85-4.53ZM81.29,141l3.46-2v-.85l-3.46,2Zm4.59-2.65,5.56-3.21v-.84l-5.56,3.21Zm6.69-3.86,3.74-2.16v-.84l-3.74,2.16Z"/><path class="cls-67" d="M84.65,144.5l-3.45,2v.84l3.45-2Zm1.13.18,5.56-3.21v-.84l-5.56,3.21Zm6.69-3.86,3.74-2.16v-.84L92.47,140ZM97.34,138l6.52-3.77v-.84l-6.52,3.77Zm-10.11,7.28-6,3.49v.84l6-3.49Zm7.16-4.13-6,3.48v.84l6-3.48Zm1.13.19L98,139.89v-.84l-2.52,1.45Zm3.65-2.11,4.69-2.71v-.84l-4.69,2.71Zm-18,12.66,3.45-2v-.85l-3.45,2Zm4.58-2.65L91.34,146v-.84l-5.56,3.21Zm6.69-3.86,3.74-2.16v-.84l-3.74,2.16Zm4.87-2.81,6.52-3.77V138l-6.52,3.77Z"/><path class="cls-67" d="M177.22,216.53l3.67-2.11v-.85l-3.67,2.12Zm4.8-2.77,2.55-1.47v-.84L182,212.92Zm3.68-2.12,4.3-2.49v-.84l-4.3,2.48Zm-1.76,2.46-6.7,3.87v.84l6.7-3.87Zm1.13.19,1.33-.77v-.84l-1.33.77Zm2.46-1.42,2.47-1.43v-.84L187.53,212Zm-10.25,8.2,8.48-4.9v-.84l-8.48,4.9Zm9.61-5.55,3.11-1.8v-.84l-3.11,1.8Z"/><path class="cls-67" d="M23.78,173.41l-6,3.48v.84l6-3.48Zm7.16-4.14-6,3.48v.85l6-3.49Zm3.65-2.1-2.51,1.45v.84L34.59,168Zm1.13-.66v.85l6.11-3.53V163ZM21.2,177.18l-3.45,2V180l3.45-2Zm6.7-3.86-5.56,3.21v.84l5.56-3.21Zm1.13.18,3.74-2.15v-.85L29,172.66Zm4.87-2.81,7.93-4.58v-.84l-7.93,4.58ZM23.78,178l-6,3.48v.84l6-3.48Zm7.16-4.14-6,3.48v.85l6-3.49Zm3.65-2.1-2.51,1.45V174l2.51-1.45Zm1.13.19,6.11-3.53v-.84l-6.11,3.52ZM21.2,181.75l-3.45,2v.85l3.45-2Zm1.14.19,5.56-3.21v-.84l-5.56,3.21ZM29,178.07l3.74-2.15v-.85L29,177.23Zm4.87-2.81,7.93-4.58v-.84l-7.93,4.58Zm-10.12,7.29-6,3.48v.84l6-3.48Zm7.16-4.14-6,3.48v.84l6-3.48Zm1.14.19,2.51-1.45v-.84l-2.51,1.45Zm3.64-2.11L41.83,173v-.84l-6.11,3.52Zm-18,12.66,3.45-2v-.84l-3.45,2Zm4.59-2.64,5.56-3.21v-.85l-5.56,3.22ZM29,182.64l3.74-2.16v-.84L29,181.8Zm4.87-2.81,7.93-4.58v-.84L33.9,179Z"/></g></g></g></svg>